SplineFontDB: 3.2
FontName: SeriousSans
FullName: Serious Sans
FamilyName: Serious Sans
Weight: Book
Copyright: https://github.com/kaBeech/serious-sans/blob/main/LICENSE
Version: 0.1.1
ItalicAngle: 0
UnderlinePosition: 0
UnderlineWidth: 0
Ascent: 1638
Descent: 410
InvalidEm: 0
LayerCount: 2
Layer: 0 1 "Back" 1
Layer: 1 1 "Fore" 0
XUID: [1021 107 -322497659 2235226]
StyleMap: 0x0040
FSType: 4
OS2Version: 3
OS2_WeightWidthSlopeOnly: 0
OS2_UseTypoMetrics: 0
CreationTime: 1532631502
ModificationTime: 1679173345
PfmFamily: 81
TTFWeight: 400
TTFWidth: 5
LineGap: 0
VLineGap: 0
Panose: 0 0 0 0 0 0 0 0 0 0
OS2TypoAscent: 1255
OS2TypoAOffset: 0
OS2TypoDescent: -385
OS2TypoDOffset: 0
OS2TypoLinegap: 201
OS2WinAscent: 1593
OS2WinAOffset: 0
OS2WinDescent: 631
OS2WinDOffset: 0
HheadAscent: 1630
HheadAOffset: 0
HheadDescent: -649
HheadDOffset: 0
OS2SubXSize: 649
OS2SubYSize: 600
OS2SubXOff: 0
OS2SubYOff: 76
OS2SupXSize: 649
OS2SupYSize: 600
OS2SupXOff: 0
OS2SupYOff: 350
OS2StrikeYSize: 0
OS2StrikeYPos: 270
OS2CapHeight: 1180
OS2XHeight: 993
OS2Vendor: 'NONE'
OS2CodePages: 00000001.00000000
OS2UnicodeRanges: 00000001.00000000.00000000.00000000
MarkAttachClasses: 1
DEI: 91125
TtTable: prep
PUSHW_1
 511
SCANCTRL
PUSHB_1
 1
SCANTYPE
SVTCA[y-axis]
MPPEM
PUSHB_1
 8
LT
IF
PUSHB_2
 1
 1
INSTCTRL
EIF
PUSHB_2
 70
 6
CALL
IF
POP
PUSHB_1
 16
EIF
MPPEM
PUSHB_1
 20
GT
IF
POP
PUSHB_1
 128
EIF
SCVTCI
PUSHB_1
 6
CALL
NOT
IF
EIF
PUSHB_1
 20
CALL
EndTTInstrs
TtTable: fpgm
PUSHB_1
 0
FDEF
PUSHB_1
 0
SZP0
MPPEM
PUSHB_1
 42
LT
IF
PUSHB_1
 74
SROUND
EIF
PUSHB_1
 0
SWAP
MIAP[rnd]
RTG
PUSHB_1
 6
CALL
IF
RTDG
EIF
MPPEM
PUSHB_1
 42
LT
IF
RDTG
EIF
DUP
MDRP[rp0,rnd,grey]
PUSHB_1
 1
SZP0
MDAP[no-rnd]
RTG
ENDF
PUSHB_1
 1
FDEF
DUP
MDRP[rp0,min,white]
PUSHB_1
 12
CALL
ENDF
PUSHB_1
 2
FDEF
MPPEM
GT
IF
RCVT
SWAP
EIF
POP
ENDF
PUSHB_1
 3
FDEF
ROUND[Black]
RTG
DUP
PUSHB_1
 64
LT
IF
POP
PUSHB_1
 64
EIF
ENDF
PUSHB_1
 4
FDEF
PUSHB_1
 6
CALL
IF
POP
SWAP
POP
ROFF
IF
MDRP[rp0,min,rnd,black]
ELSE
MDRP[min,rnd,black]
EIF

StartChar: .notdef
Encoding: 65536 -1 0
Width: 1114
GlyphClass: 1
Flags: W
LayerCount: 2
Fore
SplineSet
121 -549 m 1,0,-1
 121 1534 l 1,1,-1
 997 1534 l 1,2,-1
 997 -549 l 1,3,-1
 121 -549 l 1,0,-1
229 -438 m 1,4,-1
 887 -438 l 1,5,-1
 887 1423 l 1,6,-1
 229 1423 l 1,7,-1
 229 -438 l 1,4,-1
EndSplineSet
EndChar

StartChar: exclam
Encoding: 33 33 4
Width: 1114
GlyphClass: 2
Flags: W
LayerCount: 2
Fore
SplineSet
680 1511 m 0,0,1
 680 1493 680 1493 671 1242 c 128,-1,2
 662 991 662 991 666 834 c 0,3,4
 670 680 670 680 666 650.5 c 128,-1,5
 662 621 662 621 664 555 c 1,6,7
 660 510 660 510 629 484.5 c 128,-1,8
 598 459 598 459 555 461 c 0,9,10
 514 461 514 461 487.5 487.5 c 128,-1,11
 461 514 461 514 465 565 c 0,12,13
 467 596 467 596 472 624.5 c 128,-1,14
 477 653 477 653 478 672.5 c 128,-1,15
 479 692 479 692 481 765 c 128,-1,16
 483 838 483 838 477 952 c 0,17,18
 475 1032 475 1032 474 1121 c 128,-1,19
 473 1210 473 1210 475 1269.5 c 128,-1,20
 477 1329 477 1329 479 1405 c 128,-1,21
 481 1481 481 1481 481 1505 c 0,22,23
 483 1560 483 1560 512 1589 c 128,-1,24
 541 1618 541 1618 584 1618 c 0,25,26
 627 1620 627 1620 653.5 1593 c 128,-1,27
 680 1566 680 1566 680 1511 c 0,0,1
565 -49 m 0,28,29
 489 -57 489 -57 441 -8 c 128,-1,30
 393 41 393 41 393 111 c 0,31,32
 393 172 393 172 446.5 217 c 128,-1,33
 500 262 500 262 565 264 c 0,34,35
 637 266 637 266 682 222 c 128,-1,36
 727 178 727 178 727 113 c 0,37,38
 727 47 727 47 683 3 c 128,-1,39
 639 -41 639 -41 565 -49 c 0,28,29
EndSplineSet
EndChar

StartChar: quotedbl
Encoding: 34 34 5
Width: 1114
GlyphClass: 2
Flags: W
LayerCount: 2
Fore
SplineSet
502 1511 m 0,0,1
 504 1427 504 1427 500 1235.5 c 128,-1,2
 496 1044 496 1044 485 973 c 0,3,4
 479 932 479 932 450.5 911.5 c 128,-1,5
 422 891 422 891 387 893 c 0,6,7
 346 895 346 895 314.5 918.5 c 128,-1,8
 283 942 283 942 287 985 c 0,9,10
 293 1089 293 1089 292 1253 c 128,-1,11
 291 1417 291 1417 285 1524 c 0,12,13
 283 1549 283 1549 294 1566 c 128,-1,14
 305 1583 305 1583 323.5 1591 c 128,-1,15
 342 1599 342 1599 361.5 1602.5 c 128,-1,16
 381 1606 381 1606 399 1604 c 0,17,18
 417 1604 417 1604 434 1599.5 c 128,-1,19
 451 1595 451 1595 466 1586 c 128,-1,20
 481 1577 481 1577 491.5 1557.5 c 128,-1,21
 502 1538 502 1538 502 1511 c 0,0,1
829 1511 m 0,22,23
 831 1427 831 1427 827 1235.5 c 128,-1,24
 823 1044 823 1044 815 973 c 0,25,26
 809 932 809 932 779.5 911.5 c 128,-1,27
 750 891 750 891 717 893 c 0,28,29
 676 895 676 895 643 918.5 c 128,-1,30
 610 942 610 942 616 985 c 0,31,32
 622 1089 622 1089 620 1253 c 128,-1,33
 618 1417 618 1417 612 1524 c 0,34,35
 612 1549 612 1549 623.5 1566 c 128,-1,36
 635 1583 635 1583 653.5 1591 c 128,-1,37
 672 1599 672 1599 690.5 1602.5 c 128,-1,38
 709 1606 709 1606 727 1604 c 0,39,40
 745 1604 745 1604 761.5 1599.5 c 128,-1,41
 778 1595 778 1595 794.5 1586 c 128,-1,42
 811 1577 811 1577 820 1557.5 c 128,-1,43
 829 1538 829 1538 829 1511 c 0,22,23
EndSplineSet
EndChar

StartChar: numbersign
Encoding: 35 35 6
Width: 1114
GlyphClass: 2
Flags: W
LayerCount: 2
Fore
SplineSet
332 86 m 1,0,1
 318 43 318 43 272.5 15.5 c 128,-1,2
 227 -12 227 -12 188 0 c 1,3,4
 149 8 149 8 131 52 c 128,-1,5
 113 96 113 96 129 150 c 0,6,7
 145 205 145 205 186 387 c 1,8,-1
 125 387 l 2,9,10
 74 387 74 387 47 407.5 c 128,-1,11
 20 428 20 428 20 463 c 0,12,13
 18 500 18 500 43 524.5 c 128,-1,14
 68 549 68 549 121 553 c 0,15,16
 137 553 137 553 171 554 c 128,-1,17
 205 555 205 555 221 555 c 1,18,-1
 291 909 l 1,19,20
 275 909 275 909 246 908 c 128,-1,21
 217 907 217 907 207 907 c 0,22,23
 156 905 156 905 128 928.5 c 128,-1,24
 100 952 100 952 100 987 c 0,25,26
 98 1024 98 1024 125 1049.5 c 128,-1,27
 152 1075 152 1075 205 1077 c 0,28,29
 244 1079 244 1079 324 1079 c 1,30,31
 381 1388 381 1388 383 1399 c 0,32,33
 399 1450 399 1450 434 1470.5 c 128,-1,34
 469 1491 469 1491 506 1481 c 0,35,36
 549 1473 549 1473 572.5 1440 c 128,-1,37
 596 1407 596 1407 586 1354 c 2,38,-1
 530 1083 l 1,39,-1
 762 1083 l 1,40,-1
 817 1382 l 1,41,42
 833 1435 833 1435 867 1456 c 128,-1,43
 901 1477 901 1477 942 1466 c 0,44,45
 987 1458 987 1458 1009.5 1425.5 c 128,-1,46
 1032 1393 1032 1393 1020 1339 c 0,47,48
 997 1253 997 1253 969 1087 c 1,49,-1
 991 1087 l 2,50,51
 1040 1087 1040 1087 1074 1059.5 c 128,-1,52
 1108 1032 1108 1032 1110 1001 c 0,53,54
 1110 964 1110 964 1085.5 938.5 c 128,-1,55
 1061 913 1061 913 1010 911 c 2,56,-1
 936 911 l 1,57,-1
 877 561 l 1,58,-1
 961 561 l 2,59,60
 1008 561 1008 561 1026 539.5 c 128,-1,61
 1044 518 1044 518 1047 483 c 0,62,63
 1047 393 1047 393 961 393 c 2,64,-1
 846 393 l 1,65,66
 805 160 805 160 786 78 c 1,67,68
 770 35 770 35 728 11.5 c 128,-1,69
 686 -12 686 -12 645 0 c 0,70,71
 606 8 606 8 587.5 48 c 128,-1,72
 569 88 569 88 586 139 c 0,73,74
 606 221 606 221 639 391 c 1,75,76
 596 391 596 391 514 390 c 128,-1,77
 432 389 432 389 393 389 c 1,78,79
 350 168 350 168 332 86 c 1,0,1
498 911 m 1,80,-1
 426 561 l 1,81,82
 510 563 510 563 668 563 c 1,83,84
 701 731 701 731 731 911 c 1,85,-1
 498 911 l 1,80,-1
EndSplineSet
EndChar

StartChar: dollar
Encoding: 36 36 7
Width: 1114
GlyphClass: 2
Flags: W
LayerCount: 2
Fore
SplineSet
662 -203 m 1,0,1
 658 -248 658 -248 627 -272.5 c 128,-1,2
 596 -297 596 -297 555 -297 c 0,3,4
 516 -297 516 -297 496.5 -269.5 c 128,-1,5
 477 -242 477 -242 481 -190 c 0,6,7
 485 -141 485 -141 485 -59 c 1,8,-1
 477 -59 l 2,9,10
 403 -59 403 -59 339.5 -41 c 128,-1,11
 276 -23 276 -23 229 8 c 128,-1,12
 182 39 182 39 148.5 74 c 128,-1,13
 115 109 115 109 94 150 c 0,14,15
 69 205 69 205 77.5 239.5 c 128,-1,16
 86 274 86 274 121 291 c 0,17,18
 146 301 146 301 160 305 c 128,-1,19
 174 309 174 309 191.5 307 c 128,-1,20
 209 305 209 305 225.5 290.5 c 128,-1,21
 242 276 242 276 260 250 c 0,22,23
 301 187 301 187 354.5 151 c 128,-1,24
 408 115 408 115 485 115 c 2,25,-1
 492 115 l 1,26,27
 496 457 496 457 496 725 c 1,28,29
 486 725 486 725 460 729 c 128,-1,30
 434 733 434 733 422 733 c 0,31,32
 348 741 348 741 287.5 772 c 128,-1,33
 227 803 227 803 190.5 847 c 128,-1,34
 154 891 154 891 133.5 939 c 128,-1,35
 113 987 113 987 113 1036 c 0,36,37
 113 1110 113 1110 135.5 1177.5 c 128,-1,38
 158 1245 158 1245 204 1303.5 c 128,-1,39
 250 1362 250 1362 324.5 1404 c 128,-1,40
 399 1446 399 1446 498 1462 c 1,41,42
 500 1511 500 1511 500 1581 c 0,43,44
 502 1694 502 1694 584 1694 c 0,45,46
 676 1696 676 1696 676 1587 c 2,47,-1
 676 1479 l 1,48,49
 721 1477 721 1477 802 1458.5 c 128,-1,50
 883 1440 883 1440 922 1423 c 0,51,52
 961 1409 961 1409 978 1378.5 c 128,-1,53
 995 1348 995 1348 989 1313 c 0,54,55
 987 1288 987 1288 974 1275 c 128,-1,56
 961 1262 961 1262 941.5 1258.5 c 128,-1,57
 922 1255 922 1255 904.5 1257.5 c 128,-1,58
 887 1260 887 1260 868 1264 c 0,59,60
 850 1268 850 1268 821.5 1281 c 128,-1,61
 793 1294 793 1294 758 1304.5 c 128,-1,62
 723 1315 723 1315 674 1317 c 1,63,64
 672 1153 672 1153 666 883 c 1,65,66
 760 871 760 871 833.5 839 c 128,-1,67
 907 807 907 807 952 766 c 128,-1,68
 997 725 997 725 1027 671.5 c 128,-1,69
 1057 618 1057 618 1067 567 c 128,-1,70
 1077 516 1077 516 1077 461 c 0,71,72
 1077 367 1077 367 1045.5 283 c 128,-1,73
 1014 199 1014 199 956.5 137.5 c 128,-1,74
 899 76 899 76 823.5 31 c 128,-1,75
 748 -14 748 -14 659 -37 c 1,76,77
 660 -160 660 -160 662 -203 c 1,0,1
301 1087 m 0,78,79
 301 1021 301 1021 353.5 972.5 c 128,-1,80
 406 924 406 924 496 903 c 1,81,82
 498 1044 498 1044 498 1296 c 1,83,84
 410 1269 410 1269 355.5 1216 c 128,-1,85
 301 1163 301 1163 301 1087 c 0,78,79
887 426 m 0,86,87
 887 465 887 465 877.5 497.5 c 128,-1,88
 868 530 868 530 845.5 566 c 128,-1,89
 823 602 823 602 777 633 c 128,-1,90
 731 664 731 664 664 686 c 1,91,92
 664 596 664 596 663 414.5 c 128,-1,93
 662 233 662 233 659 152 c 1,94,95
 757 193 757 193 822 264.5 c 128,-1,96
 887 336 887 336 887 426 c 0,86,87
EndSplineSet
EndChar

StartChar: percent
Encoding: 37 37 8
Width: 1114
GlyphClass: 2
Flags: W
LayerCount: 2
Fore
SplineSet
274 885 m 0,0,1
 202 885 202 885 146 925 c 128,-1,2
 90 965 90 965 63.5 1025 c 128,-1,3
 37 1085 37 1085 37 1155 c 0,4,5
 37 1282 37 1282 107.5 1363 c 128,-1,6
 178 1444 178 1444 307 1444 c 0,7,8
 358 1444 358 1444 402 1426.5 c 128,-1,9
 446 1409 446 1409 481 1374 c 128,-1,10
 516 1339 516 1339 534.5 1279 c 128,-1,11
 553 1219 553 1219 549 1139 c 0,12,13
 543 1014 543 1014 476 949.5 c 128,-1,14
 409 885 409 885 274 885 c 0,0,1
88 39 m 0,15,16
 131 127 131 127 292 408.5 c 128,-1,17
 453 690 453 690 613.5 977 c 128,-1,18
 774 1264 774 1264 829 1386 c 1,19,20
 854 1423 854 1423 894 1432.5 c 128,-1,21
 934 1442 934 1442 969 1421 c 0,22,23
 1006 1405 1006 1405 1011 1373 c 128,-1,24
 1016 1341 1016 1341 987 1296 c 0,25,26
 911 1171 911 1171 625.5 659 c 128,-1,27
 340 147 340 147 248 -33 c 0,28,29
 195 -131 195 -131 123 -96 c 0,30,31
 41 -57 41 -57 88 39 c 0,15,16
297 1038 m 0,32,33
 348 1038 348 1038 373.5 1071 c 128,-1,34
 399 1104 399 1104 406 1159 c 0,35,36
 408 1229 408 1229 377 1261.5 c 128,-1,37
 346 1294 346 1294 291 1294 c 0,38,39
 242 1294 242 1294 215 1258.5 c 128,-1,40
 188 1223 188 1223 184 1161 c 0,41,42
 182 1104 182 1104 205.5 1073 c 128,-1,43
 229 1042 229 1042 297 1038 c 0,32,33
821 -57 m 0,44,45
 749 -57 749 -57 694 -17 c 128,-1,46
 639 23 639 23 611.5 83 c 128,-1,47
 584 143 584 143 586 213 c 0,48,49
 586 340 586 340 655.5 421 c 128,-1,50
 725 502 725 502 854 502 c 0,51,52
 905 502 905 502 949 485.5 c 128,-1,53
 993 469 993 469 1029 433 c 128,-1,54
 1065 397 1065 397 1083.5 336.5 c 128,-1,55
 1102 276 1102 276 1096 197 c 0,56,57
 1090 72 1090 72 1023 6.5 c 128,-1,58
 956 -59 956 -59 821 -57 c 0,44,45
844 98 m 0,59,60
 893 96 893 96 919.5 130 c 128,-1,61
 946 164 946 164 950 217 c 0,62,63
 952 350 952 350 840 350 c 0,64,65
 793 350 793 350 765 314.5 c 128,-1,66
 737 279 737 279 733 219 c 0,67,68
 731 164 731 164 756 132 c 128,-1,69
 781 100 781 100 844 98 c 0,59,60
EndSplineSet
EndChar

StartChar: ampersand
Encoding: 38 38 9
Width: 1114
GlyphClass: 2
Flags: W
LayerCount: 2
Fore
SplineSet
1024 -72 m 0,0,1
 987 -95 987 -95 941 -71 c 128,-1,2
 895 -47 895 -47 860 10 c 0,3,4
 856 20 856 20 836.5 71.5 c 128,-1,5
 817 123 817 123 807 145 c 1,6,7
 801 137 801 137 780.5 110.5 c 128,-1,8
 760 84 760 84 749.5 71.5 c 128,-1,9
 739 59 739 59 716.5 34.5 c 128,-1,10
 694 10 694 10 676.5 -3 c 128,-1,11
 659 -16 659 -16 631.5 -34.5 c 128,-1,12
 604 -53 604 -53 578.5 -62.5 c 128,-1,13
 553 -72 553 -72 517 -79 c 128,-1,14
 481 -86 481 -86 444 -86 c 0,15,16
 329 -86 329 -86 234 -26.5 c 128,-1,17
 139 33 139 33 86 129 c 128,-1,18
 33 225 33 225 33 338 c 0,19,20
 33 725 33 725 352 864 c 1,21,22
 334 895 334 895 307.5 938 c 128,-1,23
 281 981 281 981 269.5 998.5 c 128,-1,24
 258 1016 258 1016 243.5 1043.5 c 128,-1,25
 229 1071 229 1071 224 1091.5 c 128,-1,26
 219 1112 219 1112 215 1141.5 c 128,-1,27
 211 1171 211 1171 211 1206 c 256,28,29
 211 1243 211 1243 220 1279 c 128,-1,30
 229 1315 229 1315 254 1353 c 128,-1,31
 279 1391 279 1391 313.5 1419.5 c 128,-1,32
 348 1448 348 1448 406.5 1465.5 c 128,-1,33
 465 1483 465 1483 537 1483 c 0,34,35
 596 1483 596 1483 653.5 1464.5 c 128,-1,36
 711 1446 711 1446 758 1410 c 128,-1,37
 805 1374 805 1374 832.5 1315.5 c 128,-1,38
 860 1257 860 1257 860 1186 c 0,39,40
 860 1120 860 1120 843.5 1064 c 128,-1,41
 827 1008 827 1008 801.5 970 c 128,-1,42
 776 932 776 932 737 897 c 128,-1,43
 698 862 698 862 665.5 841.5 c 128,-1,44
 633 821 633 821 590 801 c 1,45,46
 627 738 627 738 715 612.5 c 128,-1,47
 803 487 803 487 827 446 c 1,48,49
 841 475 841 475 859 513 c 128,-1,50
 877 551 877 551 887 574.5 c 128,-1,51
 897 598 897 598 905 608 c 0,52,53
 942 661 942 661 975 674.5 c 128,-1,54
 1008 688 1008 688 1047 668 c 0,55,56
 1082 652 1082 652 1090 607.5 c 128,-1,57
 1098 563 1098 563 1071 508 c 0,58,59
 1061 490 1061 490 1009.5 426 c 128,-1,60
 958 362 958 362 926 309 c 1,61,62
 949 270 949 270 989.5 197.5 c 128,-1,63
 1030 125 1030 125 1038 113 c 0,64,65
 1069 64 1069 64 1062 4 c 128,-1,66
 1055 -56 1055 -56 1024 -72 c 0,0,1
406 1171 m 0,67,68
 406 1120 406 1120 433.5 1058.5 c 128,-1,69
 461 997 461 997 500 950 c 1,70,71
 545 964 545 964 576.5 979.5 c 128,-1,72
 608 995 608 995 636 1019.5 c 128,-1,73
 664 1044 664 1044 677 1080 c 128,-1,74
 690 1116 690 1116 690 1165 c 0,75,76
 690 1241 690 1241 644 1281 c 128,-1,77
 598 1321 598 1321 532 1321 c 0,78,79
 406 1321 406 1321 406 1171 c 0,67,68
238 356 m 0,80,81
 238 250 238 250 296 178 c 128,-1,82
 354 106 354 106 446 106 c 0,83,84
 475 106 475 106 502.5 112.5 c 128,-1,85
 530 119 530 119 549.5 125 c 128,-1,86
 569 131 569 131 590.5 145.5 c 128,-1,87
 612 160 612 160 624.5 169 c 128,-1,88
 637 178 637 178 653.5 197.5 c 128,-1,89
 670 217 670 217 676 225 c 128,-1,90
 682 233 682 233 697.5 254.5 c 128,-1,91
 713 276 713 276 717 281 c 1,92,93
 680 361 680 361 655 406 c 0,94,95
 630 453 630 453 555.5 559.5 c 128,-1,96
 481 666 481 666 449 717 c 1,97,98
 388 690 388 690 344.5 650 c 128,-1,99
 301 610 301 610 278.5 562 c 128,-1,100
 256 514 256 514 247 464.5 c 128,-1,101
 238 415 238 415 238 356 c 0,80,81
EndSplineSet
EndChar

StartChar: quotesingle
Encoding: 39 39 10
Width: 1114
GlyphClass: 2
Flags: W
LayerCount: 2
Fore
SplineSet
678 1491 m 0,0,1
 680 1409 680 1409 676 1238 c 128,-1,2
 672 1067 672 1067 662 995 c 0,3,4
 656 952 656 952 626 931.5 c 128,-1,5
 596 911 596 911 563 913 c 0,6,7
 522 915 522 915 490.5 940 c 128,-1,8
 459 965 459 965 463 1008 c 0,9,10
 469 1114 469 1114 467 1253.5 c 128,-1,11
 465 1393 465 1393 461 1501 c 0,12,13
 461 1526 461 1526 470 1544.5 c 128,-1,14
 479 1563 479 1563 498.5 1570 c 128,-1,15
 518 1577 518 1577 536.5 1580 c 128,-1,16
 555 1583 555 1583 573 1581 c 0,17,18
 591 1581 591 1581 608 1577 c 128,-1,19
 625 1573 625 1573 641 1563.5 c 128,-1,20
 657 1554 657 1554 667.5 1536 c 128,-1,21
 678 1518 678 1518 678 1491 c 0,0,1
EndSplineSet
EndChar

StartChar: parenleft
Encoding: 40 40 11
Width: 1114
GlyphClass: 2
Flags: W
LayerCount: 2
Fore
SplineSet
885 -190 m 0,0,1
 885 -223 885 -223 858 -245.5 c 128,-1,2
 831 -268 831 -268 803 -268 c 0,3,4
 666 -268 666 -268 554 -170 c 128,-1,5
 442 -72 442 -72 371.5 102 c 128,-1,6
 301 276 301 276 281 504 c 0,7,8
 267 654 267 654 287 893.5 c 128,-1,9
 307 1133 307 1133 367 1288 c 0,10,11
 394 1356 394 1356 437.5 1422.5 c 128,-1,12
 481 1489 481 1489 537.5 1544 c 128,-1,13
 594 1599 594 1599 664.5 1633 c 128,-1,14
 735 1667 735 1667 805 1667 c 0,15,16
 889 1667 889 1667 887 1583 c 0,17,18
 887 1540 887 1540 862.5 1520.5 c 128,-1,19
 838 1501 838 1501 801 1501 c 0,20,21
 748 1501 748 1501 701.5 1470.5 c 128,-1,22
 655 1440 655 1440 620.5 1386.5 c 128,-1,23
 586 1333 586 1333 560.5 1269.5 c 128,-1,24
 535 1206 535 1206 516 1133 c 0,25,26
 489 1027 489 1027 479 840 c 128,-1,27
 469 653 469 653 479 537 c 0,28,29
 489 412 489 412 523 294 c 128,-1,30
 557 176 557 176 602 91 c 128,-1,31
 647 6 647 6 700.5 -45 c 128,-1,32
 754 -96 754 -96 803 -96 c 0,33,34
 844 -96 844 -96 864.5 -116.5 c 128,-1,35
 885 -137 885 -137 885 -190 c 0,0,1
EndSplineSet
EndChar

StartChar: parenright
Encoding: 41 41 12
Width: 1114
GlyphClass: 2
Flags: W
LayerCount: 2
Fore
SplineSet
848 504 m 0,0,1
 825 277 825 277 755.5 102.5 c 128,-1,2
 686 -72 686 -72 574.5 -170 c 128,-1,3
 463 -268 463 -268 326 -268 c 0,4,5
 297 -268 297 -268 270.5 -245.5 c 128,-1,6
 244 -223 244 -223 244 -190 c 0,7,8
 244 -137 244 -137 265.5 -116.5 c 128,-1,9
 287 -96 287 -96 326 -96 c 0,10,11
 373 -96 373 -96 426 -45 c 128,-1,12
 479 6 479 6 524 91 c 128,-1,13
 569 176 569 176 604 295 c 128,-1,14
 639 414 639 414 647 537 c 0,15,16
 657 654 657 654 647 840 c 128,-1,17
 637 1026 637 1026 610 1133 c 0,18,19
 594 1207 594 1207 568.5 1270 c 128,-1,20
 543 1333 543 1333 508 1386.5 c 128,-1,21
 473 1440 473 1440 427 1470.5 c 128,-1,22
 381 1501 381 1501 330 1501 c 0,23,24
 291 1501 291 1501 266.5 1520.5 c 128,-1,25
 242 1540 242 1540 242 1583 c 0,26,27
 242 1610 242 1610 249 1627.5 c 128,-1,28
 256 1645 256 1645 270.5 1653 c 128,-1,29
 285 1661 285 1661 297 1664 c 128,-1,30
 309 1667 309 1667 324 1667 c 0,31,32
 394 1667 394 1667 464.5 1633 c 128,-1,33
 535 1599 535 1599 591 1544 c 128,-1,34
 647 1489 647 1489 691 1422.5 c 128,-1,35
 735 1356 735 1356 762 1288 c 0,36,37
 821 1132 821 1132 841.5 893 c 128,-1,38
 862 654 862 654 848 504 c 0,0,1
EndSplineSet
EndChar

StartChar: asterisk
Encoding: 42 42 13
Width: 1114
GlyphClass: 2
Flags: W
LayerCount: 2
Fore
SplineSet
453 285 m 0,0,1
 445 260 445 260 425.5 248 c 128,-1,2
 406 236 406 236 382 233.5 c 128,-1,3
 358 231 358 231 336.5 236.5 c 128,-1,4
 315 242 315 242 299 250 c 0,5,6
 281 260 281 260 268.5 279.5 c 128,-1,7
 256 299 256 299 252 327.5 c 128,-1,8
 248 356 248 356 264 387 c 2,9,-1
 401 610 l 1,10,11
 233 600 233 600 154 600 c 0,12,13
 105 600 105 600 76 633 c 128,-1,14
 47 666 47 666 47 702 c 0,15,16
 47 720 47 720 52 740 c 128,-1,17
 57 760 57 760 67.5 777.5 c 128,-1,18
 78 795 78 795 99.5 805 c 128,-1,19
 121 815 121 815 147 813 c 0,20,21
 241 805 241 805 426 793 c 1,22,23
 338 943 338 943 281 1022 c 0,24,25
 252 1069 252 1069 257 1114 c 128,-1,26
 262 1159 262 1159 295 1174 c 0,27,28
 313 1186 313 1186 341 1187 c 128,-1,29
 369 1188 369 1188 397.5 1171.5 c 128,-1,30
 426 1155 426 1155 442 1122 c 0,31,32
 465 1073 465 1073 563 887 c 1,33,34
 645 1026 645 1026 686 1120 c 0,35,36
 700 1153 700 1153 728 1169.5 c 128,-1,37
 756 1186 756 1186 781.5 1185 c 128,-1,38
 807 1184 807 1184 825 1169 c 0,39,40
 845 1159 845 1159 858.5 1136.5 c 128,-1,41
 872 1114 872 1114 872 1083.5 c 128,-1,42
 872 1053 872 1053 852 1024 c 0,43,44
 786 928 786 928 709 784 c 1,45,46
 887 784 887 784 963 807 c 0,47,48
 1008 821 1008 821 1040.5 790.5 c 128,-1,49
 1073 760 1073 760 1075 725 c 0,50,51
 1075 707 1075 707 1071 688.5 c 128,-1,52
 1067 670 1067 670 1057 651.5 c 128,-1,53
 1047 633 1047 633 1028.5 622.5 c 128,-1,54
 1010 612 1010 612 983 618 c 0,55,56
 913 630 913 630 711 627 c 1,57,-1
 848 389 l 2,58,59
 871 342 871 342 865.5 306 c 128,-1,60
 860 270 860 270 836 254 c 0,61,62
 816 242 816 242 784 240 c 128,-1,63
 752 238 752 238 720 252 c 128,-1,64
 688 266 688 266 680 299 c 0,65,66
 653 381 653 381 571 535 c 1,67,68
 476 346 476 346 453 285 c 0,0,1
EndSplineSet
EndChar

StartChar: plus
Encoding: 43 43 14
Width: 1114
GlyphClass: 2
Flags: W
LayerCount: 2
Fore
SplineSet
633 512 m 0,0,1
 633 465 633 465 612.5 445.5 c 128,-1,2
 592 426 592 426 555 426 c 0,3,4
 467 426 467 426 467 512 c 2,5,-1
 467 731 l 1,6,7
 426 731 426 731 356.5 730 c 128,-1,8
 287 729 287 729 260 729 c 0,9,10
 209 729 209 729 184.5 754.5 c 128,-1,11
 160 780 160 780 160 817 c 0,12,13
 158 856 158 856 182.5 882.5 c 128,-1,14
 207 909 207 909 258 907 c 0,15,16
 401 903 401 903 467 903 c 1,17,18
 467 1005 467 1005 463 1124 c 0,19,20
 459 1212 459 1212 551 1212 c 0,21,22
 592 1214 592 1214 617.5 1196 c 128,-1,23
 643 1178 643 1178 639 1126 c 0,24,25
 633 1007 633 1007 633 899 c 1,26,-1
 858 899 l 2,27,28
 905 899 905 899 924.5 878.5 c 128,-1,29
 944 858 944 858 946 823 c 0,30,31
 946 805 946 805 942 789.5 c 128,-1,32
 938 774 938 774 930 759.5 c 128,-1,33
 922 745 922 745 903.5 738 c 128,-1,34
 885 731 885 731 858 733 c 0,35,36
 805 739 805 739 631 735 c 1,37,38
 631 680 631 680 632 604 c 128,-1,39
 633 528 633 528 633 512 c 0,0,1
EndSplineSet
EndChar

StartChar: comma
Encoding: 44 44 15
Width: 1114
GlyphClass: 2
Flags: W
LayerCount: 2
Fore
SplineSet
721 197 m 0,0,1
 701 97 701 97 633 -112.5 c 128,-1,2
 565 -322 565 -322 528 -371 c 0,3,4
 495 -414 495 -414 445 -432.5 c 128,-1,5
 395 -451 395 -451 360 -438 c 0,6,7
 340 -432 340 -432 322.5 -413.5 c 128,-1,8
 305 -395 305 -395 302 -368.5 c 128,-1,9
 299 -342 299 -342 317 -313 c 0,10,11
 360 -252 360 -252 436 -43 c 128,-1,12
 512 166 512 166 528 248 c 0,13,14
 534 277 534 277 557 293 c 128,-1,15
 580 309 580 309 604.5 309 c 128,-1,16
 629 309 629 309 653 305 c 0,17,18
 686 295 686 295 706.5 266.5 c 128,-1,19
 727 238 727 238 721 197 c 0,0,1
EndSplineSet
EndChar

StartChar: hyphen
Encoding: 45 45 16
Width: 1114
GlyphClass: 2
Flags: W
LayerCount: 2
Fore
SplineSet
326 676 m 0,0,1
 443 676 443 676 604.5 679 c 128,-1,2
 766 682 766 682 786 682 c 0,3,4
 833 682 833 682 852.5 660.5 c 128,-1,5
 872 639 872 639 874 604 c 0,6,7
 874 514 874 514 786 514 c 0,8,9
 759 514 759 514 580 506 c 128,-1,10
 401 498 401 498 330 498 c 0,11,12
 242 498 242 498 242 586 c 1,13,14
 236 676 236 676 326 676 c 0,0,1
EndSplineSet
EndChar

StartChar: period
Encoding: 46 46 17
Width: 1114
GlyphClass: 2
Flags: W
LayerCount: 2
Fore
SplineSet
565 -29 m 0,0,1
 489 -37 489 -37 441 13 c 128,-1,2
 393 63 393 63 393 131 c 0,3,4
 393 194 393 194 446.5 239.5 c 128,-1,5
 500 285 500 285 565 287 c 0,6,7
 637 289 637 289 682 245 c 128,-1,8
 727 201 727 201 727 133 c 0,9,10
 727 67 727 67 683 23 c 128,-1,11
 639 -21 639 -21 565 -29 c 0,0,1
EndSplineSet
EndChar

StartChar: slash
Encoding: 47 47 18
Width: 1114
GlyphClass: 2
Flags: W
LayerCount: 2
Fore
SplineSet
1047 1384 m 0,0,1
 994 1280 994 1280 748 871.5 c 128,-1,2
 502 463 502 463 449 365 c 0,3,4
 416 302 416 302 342 150 c 128,-1,5
 268 -2 268 -2 250 -35 c 0,6,7
 217 -92 217 -92 167 -114.5 c 128,-1,8
 117 -137 117 -137 80 -115 c 0,9,10
 49 -99 49 -99 43 -39.5 c 128,-1,11
 37 20 37 20 66 70 c 0,12,13
 365 562 365 562 578 944 c 0,14,15
 711 1180 711 1180 860 1477 c 0,16,17
 876 1510 876 1510 905 1527 c 128,-1,18
 934 1544 934 1544 960.5 1543 c 128,-1,19
 987 1542 987 1542 1014 1532 c 0,20,21
 1051 1514 1051 1514 1061.5 1474.5 c 128,-1,22
 1072 1435 1072 1435 1047 1384 c 0,0,1
EndSplineSet
EndChar

StartChar: zero
Encoding: 48 48 19
Width: 1114
GlyphClass: 2
Flags: W
LayerCount: 2
Fore
SplineSet
528 -49 m 0,0,1
 432 -49 432 -49 351 -14.5 c 128,-1,2
 270 20 270 20 212 81.5 c 128,-1,3
 154 143 154 143 122 235.5 c 128,-1,4
 90 328 90 328 92 438 c 0,5,6
 92 458 92 458 91 539.5 c 128,-1,7
 90 621 90 621 90 669 c 128,-1,8
 90 717 90 717 93 802 c 128,-1,9
 96 887 96 887 103.5 948.5 c 128,-1,10
 111 1010 111 1010 125 1080.5 c 128,-1,11
 139 1151 139 1151 160 1204 c 0,12,13
 209 1333 209 1333 326.5 1401.5 c 128,-1,14
 444 1470 444 1470 612 1470 c 0,15,16
 696 1470 696 1470 769 1441.5 c 128,-1,17
 842 1413 842 1413 900 1358 c 128,-1,18
 958 1303 958 1303 996 1214.5 c 128,-1,19
 1034 1126 1034 1126 1044 1012 c 0,20,21
 1052 910 1052 910 1054.5 779.5 c 128,-1,22
 1057 649 1057 649 1047.5 517 c 128,-1,23
 1038 385 1038 385 1019.5 315.5 c 128,-1,24
 1001 246 1001 246 978.5 192.5 c 128,-1,25
 956 139 956 139 930.5 100 c 128,-1,26
 905 61 905 61 872.5 34.5 c 128,-1,27
 840 8 840 8 805 -8.5 c 128,-1,28
 770 -25 770 -25 725 -34 c 128,-1,29
 680 -43 680 -43 634.5 -46 c 128,-1,30
 589 -49 589 -49 528 -49 c 0,0,1
291 471 m 0,31,32
 291 463 291 463 293 446.5 c 128,-1,33
 295 430 295 430 295 424 c 1,34,35
 569 799 569 799 788 1194 c 1,36,37
 751 1247 751 1247 698 1276 c 128,-1,38
 645 1305 645 1305 582 1305 c 0,39,40
 467 1305 467 1305 403.5 1241.5 c 128,-1,41
 340 1178 340 1178 307 1036 c 0,42,43
 295 985 295 985 289 916.5 c 128,-1,44
 283 848 283 848 284 750.5 c 128,-1,45
 285 653 285 653 286 613 c 128,-1,46
 287 573 287 573 291 471 c 0,31,32
827 344 m 0,47,48
 835 369 835 369 844.5 479.5 c 128,-1,49
 854 590 854 590 858 732 c 128,-1,50
 862 874 862 874 852 1006 c 1,51,52
 633 555 633 555 334 250 c 1,53,54
 389 123 389 123 528 123 c 0,55,56
 583 123 583 123 626.5 132 c 128,-1,57
 670 141 670 141 710 164.5 c 128,-1,58
 750 188 750 188 778.5 233 c 128,-1,59
 807 278 807 278 827 344 c 0,47,48
EndSplineSet
EndChar

StartChar: one
Encoding: 49 49 20
Width: 1114
GlyphClass: 2
Flags: W
LayerCount: 2
Fore
SplineSet
1069 78 m 0,0,1
 1071 37 1071 37 1047.5 9.5 c 128,-1,2
 1024 -18 1024 -18 963 -18 c 0,3,4
 936 -18 936 -18 598 -14 c 128,-1,5
 260 -10 260 -10 160 -10 c 0,6,7
 115 -10 115 -10 93.5 14.5 c 128,-1,8
 72 39 72 39 72 78 c 0,9,10
 70 119 70 119 91.5 145.5 c 128,-1,11
 113 172 113 172 162 172 c 0,12,13
 254 172 254 172 477 170 c 1,14,15
 477 252 477 252 475 301 c 0,16,17
 473 317 473 317 474 409.5 c 128,-1,18
 475 502 475 502 475 543 c 128,-1,19
 475 584 475 584 479 694.5 c 128,-1,20
 483 805 483 805 485 859 c 128,-1,21
 487 913 487 913 492.5 1031 c 128,-1,22
 498 1149 498 1149 500 1204 c 1,23,24
 348 1077 348 1077 279 1053 c 0,25,26
 238 1037 238 1037 196 1073.5 c 128,-1,27
 154 1110 154 1110 156 1147 c 0,28,29
 156 1180 156 1180 171 1205.5 c 128,-1,30
 186 1231 186 1231 223 1257 c 0,31,32
 282 1302 282 1302 347 1356.5 c 128,-1,33
 412 1411 412 1411 441.5 1435.5 c 128,-1,34
 471 1460 471 1460 501.5 1477.5 c 128,-1,35
 532 1495 532 1495 555 1495 c 0,36,37
 598 1495 598 1495 645 1458 c 128,-1,38
 692 1421 692 1421 692 1397 c 0,39,40
 692 1350 692 1350 680 1062 c 128,-1,41
 668 774 668 774 668 725 c 0,42,43
 668 520 668 520 670 383 c 0,44,45
 670 307 670 307 676 162 c 1,46,47
 735 162 735 162 800.5 160 c 128,-1,48
 866 158 866 158 908 157 c 128,-1,49
 950 156 950 156 967 156 c 0,50,51
 1024 156 1024 156 1045.5 134.5 c 128,-1,52
 1067 113 1067 113 1069 78 c 0,0,1
EndSplineSet
EndChar

StartChar: two
Encoding: 50 50 21
Width: 1114
GlyphClass: 2
Flags: W
LayerCount: 2
Fore
SplineSet
973 -25 m 0,0,1
 887 -25 887 -25 759 -29 c 128,-1,2
 631 -33 631 -33 532.5 -37 c 128,-1,3
 434 -41 434 -41 330.5 -41 c 128,-1,4
 227 -41 227 -41 170 -33 c 0,5,6
 125 -29 125 -29 105.5 22.5 c 128,-1,7
 86 74 86 74 86 170 c 0,8,9
 86 258 86 258 124 355.5 c 128,-1,10
 162 453 162 453 235.5 542 c 128,-1,11
 309 631 309 631 408 686 c 0,12,13
 627 809 627 809 690 858 c 0,14,15
 774 924 774 924 797 997 c 0,16,17
 809 1040 809 1040 809 1104 c 0,18,19
 809 1210 809 1210 746.5 1258.5 c 128,-1,20
 684 1307 684 1307 569 1307 c 0,21,22
 489 1307 489 1307 416.5 1257.5 c 128,-1,23
 344 1208 344 1208 305 1149 c 0,24,25
 287 1122 287 1122 270.5 1107 c 128,-1,26
 254 1092 254 1092 235.5 1089.5 c 128,-1,27
 217 1087 217 1087 202.5 1091.5 c 128,-1,28
 188 1096 188 1096 164 1106 c 0,29,30
 129 1124 129 1124 121 1159 c 128,-1,31
 113 1194 113 1194 137 1249 c 0,32,33
 157 1288 157 1288 198.5 1327 c 128,-1,34
 240 1366 240 1366 293 1401 c 128,-1,35
 346 1436 346 1436 417.5 1457.5 c 128,-1,36
 489 1479 489 1479 561 1479 c 0,37,38
 782 1479 782 1479 897 1376.5 c 128,-1,39
 1012 1274 1012 1274 1012 1069 c 0,40,41
 1012 899 1012 899 926 797 c 0,42,43
 863 721 863 721 696 629 c 0,44,45
 655 604 655 604 555 553 c 0,46,47
 467 506 467 506 407.5 437.5 c 128,-1,48
 348 369 348 369 322.5 297 c 128,-1,49
 297 225 297 225 291 141 c 1,50,51
 406 135 406 135 512 135 c 128,-1,52
 618 135 618 135 677.5 138 c 128,-1,53
 737 141 737 141 815 147.5 c 128,-1,54
 893 154 893 154 918 156 c 0,55,56
 920 156 920 156 937 157 c 128,-1,57
 954 158 954 158 960.5 158 c 128,-1,58
 967 158 967 158 981 158 c 128,-1,59
 995 158 995 158 1002.5 154 c 128,-1,60
 1010 150 1010 150 1019 143.5 c 128,-1,61
 1028 137 1028 137 1033 127 c 128,-1,62
 1038 117 1038 117 1040 102 c 0,63,64
 1042 77 1042 77 1038 50 c 128,-1,65
 1034 23 1034 23 1017 -1 c 128,-1,66
 1000 -25 1000 -25 973 -25 c 0,0,1
EndSplineSet
EndChar

StartChar: three
Encoding: 51 51 22
Width: 1114
GlyphClass: 2
Flags: W
LayerCount: 2
Fore
SplineSet
1055 408 m 0,0,1
 1055 197 1055 197 925 74 c 128,-1,2
 795 -49 795 -49 561 -49 c 0,3,4
 489 -49 489 -49 417.5 -27.5 c 128,-1,5
 346 -6 346 -6 293 27.5 c 128,-1,6
 240 61 240 61 199 101 c 128,-1,7
 158 141 158 141 137 180 c 0,8,9
 112 227 112 227 120.5 266 c 128,-1,10
 129 305 129 305 164 322 c 0,11,12
 205 342 205 342 238.5 333 c 128,-1,13
 272 324 272 324 305 281 c 0,14,15
 350 220 350 220 419.5 171.5 c 128,-1,16
 489 123 489 123 569 123 c 0,17,18
 692 123 692 123 771 192.5 c 128,-1,19
 850 262 850 262 850 373 c 0,20,21
 850 441 850 441 829.5 490 c 128,-1,22
 809 539 809 539 764 575.5 c 128,-1,23
 719 612 719 612 641 631.5 c 128,-1,24
 563 651 563 651 457 651 c 0,25,26
 414 651 414 651 383 685 c 128,-1,27
 352 719 352 719 352 760 c 0,28,29
 352 803 352 803 374.5 829.5 c 128,-1,30
 397 856 397 856 440 856 c 0,31,32
 612 856 612 856 709.5 924.5 c 128,-1,33
 807 993 807 993 805 1124 c 1,34,35
 807 1216 807 1216 740.5 1261.5 c 128,-1,36
 674 1307 674 1307 549 1307 c 0,37,38
 524 1307 524 1307 501.5 1301.5 c 128,-1,39
 479 1296 479 1296 464 1291 c 128,-1,40
 449 1286 449 1286 432.5 1274 c 128,-1,41
 416 1262 416 1262 405.5 1253.5 c 128,-1,42
 395 1245 395 1245 381 1226.5 c 128,-1,43
 367 1208 367 1208 360.5 1201 c 128,-1,44
 354 1194 354 1194 340 1171 c 0,45,46
 307 1126 307 1126 273.5 1118 c 128,-1,47
 240 1110 240 1110 199 1130 c 0,48,49
 164 1146 164 1146 157 1184.5 c 128,-1,50
 150 1223 150 1223 172 1274 c 0,51,52
 192 1315 192 1315 224 1348.5 c 128,-1,53
 256 1382 256 1382 299 1413 c 128,-1,54
 342 1444 342 1444 404.5 1461.5 c 128,-1,55
 467 1479 467 1479 539 1479 c 0,56,57
 775 1479 775 1479 893.5 1380.5 c 128,-1,58
 1012 1282 1012 1282 1008 1090 c 0,59,60
 1008 1031 1008 1031 992.5 982.5 c 128,-1,61
 977 934 977 934 950.5 900 c 128,-1,62
 924 866 924 866 885 840.5 c 128,-1,63
 846 815 846 815 806 800.5 c 128,-1,64
 766 786 766 786 721 778 c 1,65,66
 805 760 805 760 864.5 733.5 c 128,-1,67
 924 707 924 707 968 665 c 128,-1,68
 1012 623 1012 623 1033.5 559.5 c 128,-1,69
 1055 496 1055 496 1055 408 c 0,0,1
EndSplineSet
EndChar

StartChar: four
Encoding: 52 52 23
Width: 1114
GlyphClass: 2
Flags: W
LayerCount: 2
Fore
SplineSet
918 113 m 0,0,1
 930 47 930 47 906.5 0 c 128,-1,2
 883 -47 883 -47 838 -47 c 0,3,4
 799 -47 799 -47 762 -17.5 c 128,-1,5
 725 12 725 12 723 43 c 0,6,7
 723 68 723 68 723 123 c 128,-1,8
 723 178 723 178 723 281.5 c 128,-1,9
 723 385 723 385 723 459 c 1,10,11
 350 463 350 463 207 432 c 0,12,13
 174 426 174 426 147.5 434 c 128,-1,14
 121 442 121 442 105.5 462.5 c 128,-1,15
 90 483 90 483 82 510 c 128,-1,16
 74 537 74 537 74 565.5 c 128,-1,17
 74 594 74 594 84 621 c 0,18,19
 104 678 104 678 193.5 808 c 128,-1,20
 283 938 283 938 425 1129.5 c 128,-1,21
 567 1321 567 1321 627 1407 c 0,22,23
 654 1446 654 1446 687.5 1465.5 c 128,-1,24
 721 1485 721 1485 752 1485 c 0,25,26
 793 1489 793 1489 826.5 1470.5 c 128,-1,27
 860 1452 860 1452 868 1407 c 0,28,29
 880 1335 880 1335 887.5 1185.5 c 128,-1,30
 895 1036 895 1036 897 932.5 c 128,-1,31
 899 829 899 829 903 621 c 1,32,33
 938 619 938 619 981 618 c 0,34,35
 1028 618 1028 618 1047.5 596.5 c 128,-1,36
 1067 575 1067 575 1069 541 c 0,37,38
 1069 451 1069 451 981 451 c 0,39,40
 940 451 940 451 905 453 c 1,41,42
 910 154 910 154 918 113 c 0,0,1
709 1233 m 1,43,44
 406 836 406 836 297 616 c 1,45,46
 457 626 457 626 723 623 c 1,47,48
 723 1006 723 1006 709 1233 c 1,43,44
EndSplineSet
EndChar

StartChar: five
Encoding: 53 53 24
Width: 1114
GlyphClass: 2
Flags: W
LayerCount: 2
Fore
SplineSet
1063 606 m 0,0,1
 1063 454 1063 454 1025 332.5 c 128,-1,2
 987 211 987 211 918.5 130 c 128,-1,3
 850 49 850 49 753.5 6 c 128,-1,4
 657 -37 657 -37 543 -37 c 0,5,6
 453 -37 453 -37 377 -18.5 c 128,-1,7
 301 0 301 0 250 33 c 128,-1,8
 199 66 199 66 164 101.5 c 128,-1,9
 129 137 129 137 106 176 c 0,10,11
 81 231 81 231 89.5 266 c 128,-1,12
 98 301 98 301 133 319 c 0,13,14
 156 329 156 329 171 333.5 c 128,-1,15
 186 338 186 338 204.5 336 c 128,-1,16
 223 334 223 334 239.5 319.5 c 128,-1,17
 256 305 256 305 274 279 c 0,18,19
 366 138 366 138 524 135 c 0,20,21
 678 135 678 135 768 257 c 128,-1,22
 858 379 858 379 858 584 c 0,23,24
 858 711 858 711 801.5 785.5 c 128,-1,25
 745 860 745 860 629 860 c 0,26,27
 598 860 598 860 569.5 857 c 128,-1,28
 541 854 541 854 520.5 849 c 128,-1,29
 500 844 500 844 477.5 833.5 c 128,-1,30
 455 823 455 823 441.5 817 c 128,-1,31
 428 811 428 811 408.5 794.5 c 128,-1,32
 389 778 389 778 383 772 c 128,-1,33
 377 766 377 766 356.5 746.5 c 128,-1,34
 336 727 336 727 332 723 c 0,35,36
 316 709 316 709 292 698.5 c 128,-1,37
 268 688 268 688 239.5 685 c 128,-1,38
 211 682 211 682 182 694 c 0,39,40
 147 708 147 708 130 757.5 c 128,-1,41
 113 807 113 807 111 878.5 c 128,-1,42
 109 950 109 950 112 1016.5 c 128,-1,43
 115 1083 115 1083 120 1160 c 128,-1,44
 125 1237 125 1237 125 1266 c 1,45,46
 109 1293 109 1293 104.5 1326.5 c 128,-1,47
 100 1360 100 1360 107.5 1388.5 c 128,-1,48
 115 1417 115 1417 136.5 1437.5 c 128,-1,49
 158 1458 158 1458 186 1458 c 0,50,51
 262 1458 262 1458 543.5 1454 c 128,-1,52
 825 1450 825 1450 973 1450 c 0,53,54
 1000 1450 1000 1450 1017 1427.5 c 128,-1,55
 1034 1405 1034 1405 1039 1376.5 c 128,-1,56
 1044 1348 1044 1348 1040 1323 c 0,57,58
 1038 1309 1038 1309 1033 1298.5 c 128,-1,59
 1028 1288 1028 1288 1019 1283 c 128,-1,60
 1010 1278 1010 1278 1002.5 1274 c 128,-1,61
 995 1270 995 1270 981 1269 c 128,-1,62
 967 1268 967 1268 960.5 1268 c 128,-1,63
 954 1268 954 1268 937 1270 c 128,-1,64
 920 1272 920 1272 918 1272 c 0,65,66
 889 1272 889 1272 815 1278 c 128,-1,67
 741 1284 741 1284 684 1287 c 128,-1,68
 627 1290 627 1290 524.5 1290 c 128,-1,69
 422 1290 422 1290 309 1284 c 1,70,71
 309 1264 309 1264 305 1165.5 c 128,-1,72
 301 1067 301 1067 300 1023 c 128,-1,73
 299 979 299 979 301 897 c 1,74,75
 358 960 358 960 456.5 1001 c 128,-1,76
 555 1042 555 1042 682 1042 c 0,77,78
 772 1042 772 1042 845 1008.5 c 128,-1,79
 918 975 918 975 965 915.5 c 128,-1,80
 1012 856 1012 856 1037.5 777 c 128,-1,81
 1063 698 1063 698 1063 606 c 0,0,1
EndSplineSet
EndChar

StartChar: six
Encoding: 54 54 25
Width: 1114
GlyphClass: 2
Flags: W
LayerCount: 2
Fore
SplineSet
1063 504 m 0,0,1
 1063 389 1063 389 1025 287.5 c 128,-1,2
 987 186 987 186 921.5 113.5 c 128,-1,3
 856 41 856 41 765 -2 c 128,-1,4
 674 -45 674 -45 571 -45 c 0,5,6
 444 -45 444 -45 350 3 c 128,-1,7
 256 51 256 51 195.5 142 c 128,-1,8
 135 233 135 233 106.5 360 c 128,-1,9
 78 487 78 487 80 645 c 0,10,11
 82 821 82 821 114.5 962.5 c 128,-1,12
 147 1104 147 1104 205.5 1200 c 128,-1,13
 264 1296 264 1296 350 1363 c 128,-1,14
 436 1430 436 1430 535.5 1464.5 c 128,-1,15
 635 1499 635 1499 756 1509 c 0,16,17
 803 1513 803 1513 838.5 1496 c 128,-1,18
 874 1479 874 1479 879 1440 c 0,19,20
 881 1415 881 1415 854 1385.5 c 128,-1,21
 827 1356 827 1356 795 1346 c 0,22,23
 772 1340 772 1340 726 1329.5 c 128,-1,24
 680 1319 680 1319 647 1309.5 c 128,-1,25
 614 1300 614 1300 569 1282 c 128,-1,26
 524 1264 524 1264 480 1229 c 128,-1,27
 436 1194 436 1194 393 1145 c 0,28,29
 348 1092 348 1092 310 999.5 c 128,-1,30
 272 907 272 907 262 836 c 1,31,32
 325 912 325 912 427.5 948.5 c 128,-1,33
 530 985 530 985 655 985 c 0,34,35
 749 985 749 985 823 958.5 c 128,-1,36
 897 932 897 932 951.5 874.5 c 128,-1,37
 1006 817 1006 817 1034.5 724 c 128,-1,38
 1063 631 1063 631 1063 504 c 0,0,1
266 471 m 0,39,40
 270 426 270 426 284.5 380 c 128,-1,41
 299 334 299 334 324.5 287 c 128,-1,42
 350 240 350 240 385 205 c 128,-1,43
 420 170 420 170 469 148.5 c 128,-1,44
 518 127 518 127 573 127 c 0,45,46
 649 127 649 127 716.5 180 c 128,-1,47
 784 233 784 233 823 314 c 128,-1,48
 862 395 862 395 862 479 c 0,49,50
 862 575 862 575 845.5 641 c 128,-1,51
 829 707 829 707 793.5 741.5 c 128,-1,52
 758 776 758 776 713 790.5 c 128,-1,53
 668 805 668 805 602 805 c 0,54,55
 500 805 500 805 409.5 751.5 c 128,-1,56
 319 698 319 698 262 616 c 1,57,58
 262 528 262 528 266 471 c 0,39,40
EndSplineSet
EndChar

StartChar: seven
Encoding: 55 55 26
Width: 1114
GlyphClass: 2
Flags: W
LayerCount: 2
Fore
SplineSet
373 53 m 0,0,1
 348 0 348 0 308 -26.5 c 128,-1,2
 268 -53 268 -53 229 -45 c 0,3,4
 186 -35 186 -35 169 4 c 128,-1,5
 152 43 152 43 172 90 c 0,6,7
 276 301 276 301 396 510 c 128,-1,8
 516 719 516 719 595 843 c 128,-1,9
 674 967 674 967 740.5 1083.5 c 128,-1,10
 807 1200 807 1200 829 1274 c 1,11,12
 651 1280 651 1280 450.5 1275 c 128,-1,13
 250 1270 250 1270 188 1253 c 0,14,15
 163 1247 163 1247 144 1255.5 c 128,-1,16
 125 1264 125 1264 112.5 1280 c 128,-1,17
 100 1296 100 1296 94 1314.5 c 128,-1,18
 88 1333 88 1333 88 1352 c 0,19,20
 88 1389 88 1389 106.5 1410.5 c 128,-1,21
 125 1432 125 1432 174 1442 c 0,22,23
 250 1456 250 1456 384 1460 c 128,-1,24
 518 1464 518 1464 630.5 1460 c 128,-1,25
 743 1456 743 1456 852 1452 c 128,-1,26
 961 1448 961 1448 969 1448 c 0,27,28
 989 1448 989 1448 1010.5 1439 c 128,-1,29
 1032 1430 1032 1430 1049.5 1409.5 c 128,-1,30
 1067 1389 1067 1389 1068 1356 c 128,-1,31
 1069 1323 1069 1323 1049 1280 c 0,32,33
 1020 1219 1020 1219 945 1095 c 128,-1,34
 870 971 870 971 789.5 841 c 128,-1,35
 709 711 709 711 593 494.5 c 128,-1,36
 477 278 477 278 373 53 c 0,0,1
EndSplineSet
EndChar

StartChar: eight
Encoding: 56 56 27
Width: 1114
GlyphClass: 2
Flags: W
LayerCount: 2
Fore
SplineSet
1065 418 m 0,0,1
 1065 352 1065 352 1047.5 286.5 c 128,-1,2
 1030 221 1030 221 989 158.5 c 128,-1,3
 948 96 948 96 888.5 49 c 128,-1,4
 829 2 829 2 737 -27.5 c 128,-1,5
 645 -57 645 -57 532 -57 c 0,6,7
 430 -57 430 -57 346 -28.5 c 128,-1,8
 262 0 262 0 210 44 c 128,-1,9
 158 88 158 88 122 149.5 c 128,-1,10
 86 211 86 211 71.5 273.5 c 128,-1,11
 57 336 57 336 57 401 c 0,12,13
 57 471 57 471 92 551 c 128,-1,14
 127 631 127 631 193.5 698.5 c 128,-1,15
 260 766 260 766 342 793 c 1,16,17
 233 844 233 844 173 927 c 128,-1,18
 113 1010 113 1010 113 1096 c 0,19,20
 113 1121 113 1121 117 1148.5 c 128,-1,21
 121 1176 121 1176 132 1213.5 c 128,-1,22
 143 1251 143 1251 162.5 1286 c 128,-1,23
 182 1321 182 1321 216 1355 c 128,-1,24
 250 1389 250 1389 293 1414.5 c 128,-1,25
 336 1440 336 1440 400.5 1455 c 128,-1,26
 465 1470 465 1470 541 1470 c 0,27,28
 621 1470 621 1470 685.5 1455 c 128,-1,29
 750 1440 750 1440 794 1414.5 c 128,-1,30
 838 1389 838 1389 871.5 1355 c 128,-1,31
 905 1321 905 1321 923.5 1286 c 128,-1,32
 942 1251 942 1251 954.5 1212.5 c 128,-1,33
 967 1174 967 1174 971 1144 c 128,-1,34
 975 1114 975 1114 975 1087 c 0,35,36
 975 1062 975 1062 969 1038 c 128,-1,37
 963 1014 963 1014 952.5 995.5 c 128,-1,38
 942 977 942 977 925.5 956.5 c 128,-1,39
 909 936 909 936 895 921.5 c 128,-1,40
 881 907 881 907 858.5 888.5 c 128,-1,41
 836 870 836 870 822.5 861 c 128,-1,42
 809 852 809 852 784.5 835.5 c 128,-1,43
 760 819 760 819 752 813 c 1,44,45
 828 780 828 780 885 739 c 128,-1,46
 942 698 942 698 976 658 c 128,-1,47
 1010 618 1010 618 1030.5 573 c 128,-1,48
 1051 528 1051 528 1058 492.5 c 128,-1,49
 1065 457 1065 457 1065 418 c 0,0,1
305 1102 m 0,50,51
 305 1034 305 1034 367.5 982 c 128,-1,52
 430 930 430 930 573 877 c 1,53,54
 659 912 659 912 725 971 c 128,-1,55
 791 1030 791 1030 791 1081 c 0,56,57
 791 1138 791 1138 758 1193.5 c 128,-1,58
 725 1249 725 1249 666.5 1286 c 128,-1,59
 608 1323 608 1323 541 1323 c 0,60,61
 445 1323 445 1323 375 1254.5 c 128,-1,62
 305 1186 305 1186 305 1102 c 0,50,51
541 119 m 0,63,64
 600 119 600 119 659.5 136.5 c 128,-1,65
 719 154 719 154 767 186.5 c 128,-1,66
 815 219 815 219 844.5 272.5 c 128,-1,67
 874 326 874 326 874 385 c 0,68,69
 874 418 874 418 868 447.5 c 128,-1,70
 862 477 862 477 843.5 516 c 128,-1,71
 825 555 825 555 792.5 588 c 128,-1,72
 760 621 760 621 701.5 656.5 c 128,-1,73
 643 692 643 692 565 721 c 1,74,75
 418 682 418 682 325.5 585.5 c 128,-1,76
 233 489 233 489 233 381 c 0,77,78
 233 305 233 305 279.5 243.5 c 128,-1,79
 326 182 326 182 395.5 150.5 c 128,-1,80
 465 119 465 119 541 119 c 0,63,64
EndSplineSet
EndChar

StartChar: nine
Encoding: 57 57 28
Width: 1114
GlyphClass: 2
Flags: W
LayerCount: 2
Fore
SplineSet
334 -45 m 0,0,1
 287 -49 287 -49 251 -31.5 c 128,-1,2
 215 -14 215 -14 211 25 c 0,3,4
 209 52 209 52 234.5 80.5 c 128,-1,5
 260 109 260 109 295 119 c 0,6,7
 318 125 318 125 368 135 c 128,-1,8
 418 145 418 145 458 156.5 c 128,-1,9
 498 168 498 168 548 186.5 c 128,-1,10
 598 205 598 205 645 237.5 c 128,-1,11
 692 270 692 270 731 315 c 0,12,13
 782 374 782 374 822 453 c 128,-1,14
 862 532 862 532 877 596 c 1,15,16
 820 530 820 530 730.5 505.5 c 128,-1,17
 641 481 641 481 510 481 c 0,18,19
 420 481 420 481 338 523 c 128,-1,20
 256 565 256 565 198.5 635 c 128,-1,21
 141 705 141 705 107.5 796 c 128,-1,22
 74 887 74 887 74 981 c 0,23,24
 74 1096 74 1096 112 1195 c 128,-1,25
 150 1294 150 1294 215.5 1364 c 128,-1,26
 281 1434 281 1434 372 1473.5 c 128,-1,27
 463 1513 463 1513 565 1513 c 0,28,29
 817 1513 817 1513 940 1323 c 128,-1,30
 1063 1133 1063 1133 1059 776 c 0,31,32
 1057 612 1057 612 1018 480 c 128,-1,33
 979 348 979 348 913.5 256 c 128,-1,34
 848 164 848 164 756 98.5 c 128,-1,35
 664 33 664 33 559.5 -1 c 128,-1,36
 455 -35 455 -35 334 -45 c 0,0,1
274 1006 m 0,37,38
 274 838 274 838 347 751 c 128,-1,39
 420 664 420 664 563 664 c 0,40,41
 653 664 653 664 739 704.5 c 128,-1,42
 825 745 825 745 877 817 c 1,43,44
 879 876 879 876 870 997 c 0,45,46
 866 1042 866 1042 852 1088.5 c 128,-1,47
 838 1135 838 1135 812 1182 c 128,-1,48
 786 1229 786 1229 751.5 1263.5 c 128,-1,49
 717 1298 717 1298 667.5 1319.5 c 128,-1,50
 618 1341 618 1341 563 1341 c 0,51,52
 487 1341 487 1341 419.5 1292 c 128,-1,53
 352 1243 352 1243 313 1166.5 c 128,-1,54
 274 1090 274 1090 274 1006 c 0,37,38
EndSplineSet
EndChar

StartChar: colon
Encoding: 58 58 29
Width: 1114
GlyphClass: 2
Flags: W
LayerCount: 2
Fore
SplineSet
696 854 m 0,0,1
 700 786 700 786 682 711 c 0,2,3
 672 670 672 670 637 648.5 c 128,-1,4
 602 627 602 627 569 629 c 0,5,6
 446 635 446 635 438 723 c 0,7,8
 434 778 434 778 436 864 c 0,9,10
 436 891 436 891 451.5 908.5 c 128,-1,11
 467 926 467 926 489.5 934 c 128,-1,12
 512 942 512 942 532.5 944 c 128,-1,13
 553 946 553 946 571 946 c 0,14,15
 589 946 589 946 609 942 c 128,-1,16
 629 938 629 938 648.5 929 c 128,-1,17
 668 920 668 920 681 900.5 c 128,-1,18
 694 881 694 881 696 854 c 0,0,1
698 307 m 0,19,20
 710 235 710 235 690 160 c 0,21,22
 680 119 680 119 639 99.5 c 128,-1,23
 598 80 598 80 563 82 c 0,24,25
 522 84 522 84 483 107.5 c 128,-1,26
 444 131 444 131 440 174 c 0,27,28
 438 217 438 217 437 228.5 c 128,-1,29
 436 240 436 240 439 270.5 c 128,-1,30
 442 301 442 301 442 317 c 0,31,32
 442 342 442 342 456.5 360.5 c 128,-1,33
 471 379 471 379 492.5 386 c 128,-1,34
 514 393 514 393 534.5 396 c 128,-1,35
 555 399 555 399 573 399 c 0,36,37
 598 399 598 399 622.5 392 c 128,-1,38
 647 385 647 385 669.5 362.5 c 128,-1,39
 692 340 692 340 698 307 c 0,19,20
EndSplineSet
EndChar

StartChar: semicolon
Encoding: 59 59 30
Width: 1114
GlyphClass: 2
Flags: W
LayerCount: 2
Fore
SplineSet
721 768 m 0,0,1
 725 700 725 700 705 625 c 0,2,3
 695 584 695 584 661 562.5 c 128,-1,4
 627 541 627 541 594 543 c 0,5,6
 567 545 567 545 539.5 554 c 128,-1,7
 512 563 512 563 488.5 585.5 c 128,-1,8
 465 608 465 608 463 639 c 0,9,10
 459 694 459 694 461 780 c 0,11,12
 461 805 461 805 475 823.5 c 128,-1,13
 489 842 489 842 512 849 c 128,-1,14
 535 856 535 856 556.5 859 c 128,-1,15
 578 862 578 862 596 860 c 0,16,17
 614 860 614 860 632.5 857 c 128,-1,18
 651 854 651 854 671.5 844 c 128,-1,19
 692 834 692 834 705.5 814.5 c 128,-1,20
 719 795 719 795 721 768 c 0,0,1
682 152 m 0,21,22
 678 86 678 86 549 -383 c 0,23,24
 539 -426 539 -426 507 -445.5 c 128,-1,25
 475 -465 475 -465 442 -463 c 0,26,27
 401 -461 401 -461 369.5 -436.5 c 128,-1,28
 338 -412 338 -412 342 -369 c 0,29,30
 346 -320 346 -320 385 -129.5 c 128,-1,31
 424 61 424 61 446 162 c 0,32,33
 452 193 452 193 464.5 211 c 128,-1,34
 477 229 477 229 492.5 235.5 c 128,-1,35
 508 242 508 242 524.5 244 c 128,-1,36
 541 246 541 246 555 244 c 0,37,38
 573 244 573 244 594.5 238.5 c 128,-1,39
 616 233 616 233 637.5 224 c 128,-1,40
 659 215 659 215 671.5 197 c 128,-1,41
 684 179 684 179 682 152 c 0,21,22
EndSplineSet
EndChar

StartChar: less
Encoding: 60 60 31
Width: 1114
GlyphClass: 2
Flags: W
LayerCount: 2
Fore
SplineSet
1083 29 m 0,0,1
 1073 9 1073 9 1052.5 -5.5 c 128,-1,2
 1032 -20 1032 -20 997.5 -24.5 c 128,-1,3
 963 -29 963 -29 915 -12 c 0,4,5
 864 4 864 4 788.5 59.5 c 128,-1,6
 713 115 713 115 626 191.5 c 128,-1,7
 539 268 539 268 453 348 c 128,-1,8
 367 428 367 428 271.5 513 c 128,-1,9
 176 598 176 598 111 645 c 0,10,11
 84 663 84 663 76 700 c 128,-1,12
 68 737 68 737 77 771 c 128,-1,13
 86 805 86 805 113 819 c 0,14,15
 230 905 230 905 386.5 1035 c 128,-1,16
 543 1165 543 1165 673 1270.5 c 128,-1,17
 803 1376 803 1376 905 1438 c 0,18,19
 938 1458 938 1458 965.5 1459 c 128,-1,20
 993 1460 993 1460 1013.5 1449 c 128,-1,21
 1034 1438 1034 1438 1048.5 1421.5 c 128,-1,22
 1063 1405 1063 1405 1071 1386 c 0,23,24
 1089 1351 1089 1351 1066.5 1315.5 c 128,-1,25
 1044 1280 1044 1280 975 1231 c 0,26,27
 860 1151 860 1151 626.5 968.5 c 128,-1,28
 393 786 393 786 330 737 c 1,29,30
 410 676 410 676 507 589 c 128,-1,31
 604 502 604 502 679 431 c 128,-1,32
 754 360 754 360 840 286.5 c 128,-1,33
 926 213 926 213 989 170 c 0,34,35
 1055 127 1055 127 1076 95.5 c 128,-1,36
 1097 64 1097 64 1083 29 c 0,0,1
EndSplineSet
EndChar

StartChar: equal
Encoding: 61 61 32
Width: 1114
GlyphClass: 2
Flags: W
LayerCount: 2
Fore
SplineSet
258 1081 m 0,0,1
 375 1077 375 1077 499 1077 c 128,-1,2
 623 1077 623 1077 730.5 1079 c 128,-1,3
 838 1081 838 1081 858 1081 c 0,4,5
 905 1081 905 1081 924.5 1060.5 c 128,-1,6
 944 1040 944 1040 946 1006 c 0,7,8
 946 988 946 988 942 972 c 128,-1,9
 938 956 938 956 930 942 c 128,-1,10
 922 928 922 928 903.5 920.5 c 128,-1,11
 885 913 885 913 858 915 c 0,12,13
 784 917 784 917 703.5 916 c 128,-1,14
 623 915 623 915 479.5 911 c 128,-1,15
 336 907 336 907 268 907 c 0,16,17
 217 907 217 907 188.5 931.5 c 128,-1,18
 160 956 160 956 160 991 c 0,19,20
 158 1030 158 1030 182.5 1056.5 c 128,-1,21
 207 1083 207 1083 258 1081 c 0,0,1
264 676 m 0,22,23
 426 674 426 674 641 678 c 128,-1,24
 856 682 856 682 858 682 c 0,25,26
 905 682 905 682 924.5 660.5 c 128,-1,27
 944 639 944 639 946 604 c 0,28,29
 946 586 946 586 942 570.5 c 128,-1,30
 938 555 938 555 930 540.5 c 128,-1,31
 922 526 922 526 903.5 519 c 128,-1,32
 885 512 885 512 858 514 c 0,33,34
 784 516 784 516 701 515 c 128,-1,35
 618 514 618 514 473 510 c 128,-1,36
 328 506 328 506 260 506 c 0,37,38
 209 506 209 506 184.5 531.5 c 128,-1,39
 160 557 160 557 160 594 c 0,40,41
 158 629 158 629 184.5 652.5 c 128,-1,42
 211 676 211 676 264 676 c 0,22,23
EndSplineSet
EndChar

StartChar: greater
Encoding: 62 62 33
Width: 1114
GlyphClass: 2
Flags: W
LayerCount: 2
Fore
SplineSet
256 10 m 0,0,1
 225 -8 225 -8 196.5 -10 c 128,-1,2
 168 -12 168 -12 147.5 -1 c 128,-1,3
 127 10 127 10 112.5 26.5 c 128,-1,4
 98 43 98 43 90 61 c 0,5,6
 72 96 72 96 94.5 132 c 128,-1,7
 117 168 117 168 186 217 c 0,8,9
 301 297 301 297 534.5 479.5 c 128,-1,10
 768 662 768 662 834 711 c 1,11,12
 754 772 754 772 654.5 859 c 128,-1,13
 555 946 555 946 481.5 1016.5 c 128,-1,14
 408 1087 408 1087 322 1161 c 128,-1,15
 236 1235 236 1235 170 1278 c 0,16,17
 104 1321 104 1321 82.5 1352.5 c 128,-1,18
 61 1384 61 1384 78 1419 c 0,19,20
 88 1439 88 1439 107.5 1453.5 c 128,-1,21
 127 1468 127 1468 163 1472.5 c 128,-1,22
 199 1477 199 1477 246 1460 c 0,23,24
 297 1444 297 1444 373 1389.5 c 128,-1,25
 449 1335 449 1335 536 1257.5 c 128,-1,26
 623 1180 623 1180 709 1100 c 128,-1,27
 795 1020 795 1020 889 936 c 128,-1,28
 983 852 983 852 1053 803 c 0,29,30
 1078 785 1078 785 1086 748 c 128,-1,31
 1094 711 1094 711 1083.5 677 c 128,-1,32
 1073 643 1073 643 1049 629 c 0,33,34
 932 543 932 543 775 413 c 128,-1,35
 618 283 618 283 488 177 c 128,-1,36
 358 71 358 71 256 10 c 0,0,1
EndSplineSet
EndChar

StartChar: question
Encoding: 63 63 34
Width: 1114
GlyphClass: 2
Flags: W
LayerCount: 2
Fore
SplineSet
651 537 m 0,0,1
 643 484 643 484 613.5 455 c 128,-1,2
 584 426 584 426 528 440 c 0,3,4
 471 454 471 454 452.5 493 c 128,-1,5
 434 532 434 532 451 598 c 0,6,7
 465 653 465 653 492.5 702.5 c 128,-1,8
 520 752 520 752 553 786.5 c 128,-1,9
 586 821 586 821 621.5 853 c 128,-1,10
 657 885 657 885 690 912.5 c 128,-1,11
 723 940 723 940 749.5 968.5 c 128,-1,12
 776 997 776 997 792.5 1031 c 128,-1,13
 809 1065 809 1065 809 1104 c 0,14,15
 809 1210 809 1210 746.5 1258.5 c 128,-1,16
 684 1307 684 1307 569 1307 c 0,17,18
 540 1307 540 1307 511.5 1293.5 c 128,-1,19
 483 1280 483 1280 461.5 1263.5 c 128,-1,20
 440 1247 440 1247 416.5 1219.5 c 128,-1,21
 393 1192 393 1192 380 1172.5 c 128,-1,22
 367 1153 367 1153 348 1126 c 0,23,24
 330 1099 330 1099 313.5 1084 c 128,-1,25
 297 1069 297 1069 278.5 1068 c 128,-1,26
 260 1067 260 1067 245.5 1070 c 128,-1,27
 231 1073 231 1073 209 1083 c 0,28,29
 174 1101 174 1101 165 1136 c 128,-1,30
 156 1171 156 1171 182 1227 c 0,31,32
 205 1270 205 1270 236.5 1310 c 128,-1,33
 268 1350 268 1350 315 1390 c 128,-1,34
 362 1430 362 1430 427 1454.5 c 128,-1,35
 492 1479 492 1479 561 1479 c 0,36,37
 782 1479 782 1479 897 1376.5 c 128,-1,38
 1012 1274 1012 1274 1012 1069 c 0,39,40
 1012 1014 1012 1014 994.5 969 c 128,-1,41
 977 924 977 924 948.5 891 c 128,-1,42
 920 858 920 858 884 829.5 c 128,-1,43
 848 801 848 801 810 772 c 128,-1,44
 772 743 772 743 740.5 712.5 c 128,-1,45
 709 682 709 682 684 636 c 128,-1,46
 659 590 659 590 651 537 c 0,0,1
547 -29 m 0,47,48
 471 -37 471 -37 423 13 c 128,-1,49
 375 63 375 63 375 131 c 0,50,51
 375 194 375 194 427 239.5 c 128,-1,52
 479 285 479 285 547 287 c 0,53,54
 619 289 619 289 664 245 c 128,-1,55
 709 201 709 201 709 133 c 0,56,57
 709 67 709 67 665 23 c 128,-1,58
 621 -21 621 -21 547 -29 c 0,47,48
EndSplineSet
EndChar

StartChar: at
Encoding: 64 64 35
Width: 1114
GlyphClass: 2
Flags: W
LayerCount: 2
Fore
SplineSet
985 10 m 0,0,1
 975 -19 975 -19 963.5 -40 c 128,-1,2
 952 -61 952 -61 932.5 -93 c 128,-1,3
 913 -125 913 -125 891.5 -147.5 c 128,-1,4
 870 -170 870 -170 835.5 -193.5 c 128,-1,5
 801 -217 801 -217 761 -232.5 c 128,-1,6
 721 -248 721 -248 665.5 -257 c 128,-1,7
 610 -266 610 -266 547 -264 c 0,8,9
 438 -264 438 -264 344 -211 c 128,-1,10
 250 -158 250 -158 181.5 -62.5 c 128,-1,11
 113 33 113 33 73 169 c 128,-1,12
 33 305 33 305 33 467 c 0,13,14
 33 647 33 647 60.5 802.5 c 128,-1,15
 88 958 88 958 139 1074 c 128,-1,16
 190 1190 190 1190 260 1273 c 128,-1,17
 330 1356 330 1356 414 1398 c 128,-1,18
 498 1440 498 1440 590 1440 c 0,19,20
 660 1440 660 1440 715 1428.5 c 128,-1,21
 770 1417 770 1417 822 1391.5 c 128,-1,22
 874 1366 874 1366 914 1323 c 128,-1,23
 954 1280 954 1280 988 1215.5 c 128,-1,24
 1022 1151 1022 1151 1043.5 1065 c 128,-1,25
 1065 979 1065 979 1077.5 862 c 128,-1,26
 1090 745 1090 745 1090 600 c 0,27,28
 1090 526 1090 526 1078.5 459.5 c 128,-1,29
 1067 393 1067 393 1045.5 334.5 c 128,-1,30
 1024 276 1024 276 982 242.5 c 128,-1,31
 940 209 940 209 885 209 c 0,32,33
 738 209 738 209 719 381 c 1,34,35
 672 242 672 242 541 242 c 0,36,37
 420 242 420 242 352.5 317.5 c 128,-1,38
 285 393 285 393 285 549 c 0,39,40
 285 627 285 627 302 692.5 c 128,-1,41
 319 758 319 758 349 804 c 128,-1,42
 379 850 379 850 419 881.5 c 128,-1,43
 459 913 459 913 506 926.5 c 128,-1,44
 553 940 553 940 602 938 c 128,-1,45
 651 936 651 936 700 915 c 0,46,47
 747 897 747 897 776 866.5 c 128,-1,48
 805 836 805 836 791 811 c 0,49,50
 783 795 783 795 772.5 784.5 c 128,-1,51
 762 774 762 774 747.5 770 c 128,-1,52
 733 766 733 766 721 764 c 128,-1,53
 709 762 709 762 690.5 765 c 128,-1,54
 672 768 672 768 661.5 770 c 128,-1,55
 651 772 651 772 631 778 c 0,56,57
 604 782 604 782 578.5 780 c 128,-1,58
 553 778 553 778 528.5 763 c 128,-1,59
 504 748 504 748 485.5 724 c 128,-1,60
 467 700 467 700 454.5 661.5 c 128,-1,61
 442 623 442 623 442 573 c 0,62,63
 442 546 442 546 445.5 523 c 128,-1,64
 449 500 449 500 458 470 c 128,-1,65
 467 440 467 440 486.5 423 c 128,-1,66
 506 406 506 406 535 406 c 0,67,68
 601 406 601 406 627 456 c 128,-1,69
 653 506 653 506 657 623 c 0,70,71
 657 656 657 656 711 676 c 0,72,73
 768 699 768 699 807 682 c 0,74,75
 834 672 834 672 829 641 c 0,76,77
 817 532 817 532 823 472 c 128,-1,78
 829 412 829 412 843.5 390.5 c 128,-1,79
 858 369 858 369 885 369 c 0,80,81
 901 369 901 369 913.5 395.5 c 128,-1,82
 926 422 926 422 931 465 c 128,-1,83
 936 508 936 508 938 540.5 c 128,-1,84
 940 573 940 573 940 604 c 0,85,86
 940 708 940 708 931 796.5 c 128,-1,87
 922 885 922 885 908.5 947.5 c 128,-1,88
 895 1010 895 1010 872.5 1060 c 128,-1,89
 850 1110 850 1110 829.5 1142 c 128,-1,90
 809 1174 809 1174 780.5 1196.5 c 128,-1,91
 752 1219 752 1219 730.5 1230 c 128,-1,92
 709 1241 709 1241 681 1247 c 128,-1,93
 653 1253 653 1253 639 1254 c 128,-1,94
 625 1255 625 1255 604 1255 c 0,95,96
 522 1255 522 1255 451.5 1204 c 128,-1,97
 381 1153 381 1153 326.5 1062 c 128,-1,98
 272 971 272 971 241.5 835.5 c 128,-1,99
 211 700 211 700 211 541 c 0,100,101
 211 402 211 402 231.5 290 c 128,-1,102
 252 178 252 178 287 109.5 c 128,-1,103
 322 41 322 41 368 -6 c 128,-1,104
 414 -53 414 -53 460 -71.5 c 128,-1,105
 506 -90 506 -90 555 -90 c 0,106,107
 608 -90 608 -90 653 -80 c 128,-1,108
 698 -70 698 -70 728 -55.5 c 128,-1,109
 758 -41 758 -41 784.5 -16.5 c 128,-1,110
 811 8 811 8 825.5 28.5 c 128,-1,111
 840 49 840 49 858 82 c 0,112,113
 866 96 866 96 872.5 104.5 c 128,-1,114
 879 113 879 113 887 124 c 128,-1,115
 895 135 895 135 901 140 c 128,-1,116
 907 145 907 145 916.5 149.5 c 128,-1,117
 926 154 926 154 935 154 c 128,-1,118
 944 154 944 154 954 150 c 0,119,120
 970 144 970 144 981.5 134.5 c 128,-1,121
 993 125 993 125 999.5 109.5 c 128,-1,122
 1006 94 1006 94 1001.5 68.5 c 128,-1,123
 997 43 997 43 985 10 c 0,0,1
EndSplineSet
EndChar

StartChar: A
Encoding: 65 65 36
Width: 1114
GlyphClass: 2
Flags: W
LayerCount: 2
Fore
SplineSet
213 84 m 2,0,1
 193 21 193 21 156 0.5 c 128,-1,2
 119 -20 119 -20 80 -4 c 0,3,4
 8 29 8 29 35 152 c 0,5,6
 47 218 47 218 154 471 c 1,7,8
 117 496 117 496 117 530 c 0,9,10
 115 559 115 559 142.5 584.5 c 128,-1,11
 170 610 170 610 215 625 c 1,12,13
 467 1211 467 1211 602 1407 c 0,14,15
 633 1448 633 1448 656.5 1466.5 c 128,-1,16
 680 1485 680 1485 709 1485 c 0,17,18
 748 1489 748 1489 779.5 1470.5 c 128,-1,19
 811 1452 811 1452 817 1407 c 0,20,21
 860 1153 860 1153 961.5 687 c 128,-1,22
 1063 221 1063 221 1102 152 c 0,23,24
 1122 113 1122 113 1118 81 c 128,-1,25
 1114 49 1114 49 1097.5 27.5 c 128,-1,26
 1081 6 1081 6 1059 -4 c 0,27,28
 1020 -20 1020 -20 981 -1 c 128,-1,29
 942 18 942 18 918 84 c 0,30,31
 891 147 891 147 815 514 c 1,32,33
 553 504 553 504 346 471 c 1,34,-1
 213 84 l 2,0,1
668 1233 m 1,35,36
 578 1096 578 1096 412 651 c 1,37,38
 621 676 621 676 782 680 c 1,39,-1
 668 1233 l 1,35,36
EndSplineSet
EndChar

StartChar: B
Encoding: 66 66 37
Width: 1114
GlyphClass: 2
Flags: W
LayerCount: 2
Fore
SplineSet
436 -29 m 0,0,1
 401 -31 401 -31 358 -35 c 128,-1,2
 315 -39 315 -39 288.5 -41 c 128,-1,3
 262 -43 262 -43 234.5 -45 c 128,-1,4
 207 -47 207 -47 185.5 -47 c 128,-1,5
 164 -47 164 -47 147 -43 c 2,6,-1
 139 -43 l 2,7,8
 98 -43 98 -43 71.5 -15.5 c 128,-1,9
 45 12 45 12 49 61 c 0,10,11
 55 147 55 147 53 389 c 128,-1,12
 51 631 51 631 43 887 c 0,13,14
 39 1024 39 1024 39 1071 c 128,-1,15
 39 1118 39 1118 42 1198 c 128,-1,16
 45 1278 45 1278 45 1309 c 0,17,18
 47 1364 47 1364 75.5 1391.5 c 128,-1,19
 104 1419 104 1419 147 1419 c 2,20,-1
 156 1419 l 1,21,22
 189 1429 189 1429 224.5 1436.5 c 128,-1,23
 260 1444 260 1444 289.5 1447 c 128,-1,24
 319 1450 319 1450 353 1451 c 128,-1,25
 387 1452 387 1452 406.5 1452 c 128,-1,26
 426 1452 426 1452 448.5 1452 c 128,-1,27
 471 1452 471 1452 471 1452 c 2,28,29
 610 1452 610 1452 718.5 1401 c 128,-1,30
 827 1350 827 1350 889.5 1252.5 c 128,-1,31
 952 1155 952 1155 954 1026 c 0,32,33
 956 907 956 907 901 822 c 128,-1,34
 846 737 846 737 750 698 c 1,35,36
 820 675 820 675 885 631.5 c 128,-1,37
 950 588 950 588 995 533.5 c 128,-1,38
 1040 479 1040 479 1040 432 c 0,39,40
 1040 354 1040 354 1000.5 277.5 c 128,-1,41
 961 201 961 201 886 137.5 c 128,-1,42
 811 74 811 74 694 28.5 c 128,-1,43
 577 -17 577 -17 436 -29 c 0,0,1
467 1290 m 0,44,45
 356 1290 356 1290 252 1264 c 1,46,47
 252 1225 252 1225 248 1139 c 128,-1,48
 244 1053 244 1053 242 956.5 c 128,-1,49
 240 860 240 860 242 760 c 1,50,51
 338 756 338 756 424 756 c 0,52,53
 485 756 485 756 536.5 766 c 128,-1,54
 588 776 588 776 622.5 792.5 c 128,-1,55
 657 809 657 809 684 832.5 c 128,-1,56
 711 856 711 856 726 880.5 c 128,-1,57
 741 905 741 905 750.5 935 c 128,-1,58
 760 965 760 965 764 988.5 c 128,-1,59
 768 1012 768 1012 768 1038 c 0,60,61
 768 1091 768 1091 746.5 1136.5 c 128,-1,62
 725 1182 725 1182 693.5 1209.5 c 128,-1,63
 662 1237 662 1237 621 1256.5 c 128,-1,64
 580 1276 580 1276 541 1283 c 128,-1,65
 502 1290 502 1290 467 1290 c 0,44,45
440 608 m 1,66,67
 290 608 290 608 246 606 c 1,68,69
 254 276 254 276 258 137 c 1,70,71
 281 137 281 137 333 139 c 128,-1,72
 385 141 385 141 412 141 c 0,73,74
 506 145 506 145 589 174 c 128,-1,75
 672 203 672 203 724 243 c 128,-1,76
 776 283 776 283 807 327 c 128,-1,77
 838 371 838 371 838 408 c 0,78,79
 838 435 838 435 815.5 461 c 128,-1,80
 793 487 793 487 747.5 516 c 128,-1,81
 702 545 702 545 622 569.5 c 128,-1,82
 542 594 542 594 440 608 c 1,66,67
EndSplineSet
EndChar

StartChar: C
Encoding: 67 67 38
Width: 1114
GlyphClass: 2
Flags: W
LayerCount: 2
Fore
SplineSet
1038 131 m 0,0,1
 864 -70 864 -70 498 -63 c 0,2,3
 414 -63 414 -63 339 -34.5 c 128,-1,4
 264 -6 264 -6 211 41 c 128,-1,5
 158 88 158 88 118 150.5 c 128,-1,6
 78 213 78 213 58.5 283.5 c 128,-1,7
 39 354 39 354 39 426 c 0,8,9
 39 576 39 576 69.5 715 c 128,-1,10
 100 854 100 854 152.5 966.5 c 128,-1,11
 205 1079 205 1079 274.5 1173.5 c 128,-1,12
 344 1268 344 1268 423 1330.5 c 128,-1,13
 502 1393 502 1393 584 1426.5 c 128,-1,14
 666 1460 666 1460 743 1460 c 0,15,16
 819 1460 819 1460 881 1444 c 1,17,18
 889 1475 889 1475 912.5 1494 c 128,-1,19
 936 1513 936 1513 965 1516 c 0,20,21
 998 1522 998 1522 1032.5 1500.5 c 128,-1,22
 1067 1479 1067 1479 1075 1438 c 0,23,24
 1081 1407 1081 1407 1086.5 1377.5 c 128,-1,25
 1092 1348 1092 1348 1093 1319 c 128,-1,26
 1094 1290 1094 1290 1094 1271.5 c 128,-1,27
 1094 1253 1094 1253 1094 1228.5 c 128,-1,28
 1094 1204 1094 1204 1094 1198 c 0,29,30
 1094 1155 1094 1155 1062 1111 c 128,-1,31
 1030 1067 1030 1067 997 1063 c 0,32,33
 960 1057 960 1057 921.5 1082.5 c 128,-1,34
 883 1108 883 1108 883 1151 c 0,35,36
 883 1167 883 1167 887 1237 c 0,37,38
 885 1239 885 1239 867.5 1250.5 c 128,-1,39
 850 1262 850 1262 842 1267 c 128,-1,40
 834 1272 834 1272 818.5 1280 c 128,-1,41
 803 1288 803 1288 787.5 1291 c 128,-1,42
 772 1294 772 1294 758 1294 c 0,43,44
 695 1294 695 1294 622 1253 c 128,-1,45
 549 1212 549 1212 482.5 1136.5 c 128,-1,46
 416 1061 416 1061 361.5 962.5 c 128,-1,47
 307 864 307 864 275.5 740 c 128,-1,48
 244 616 244 616 244 492 c 0,49,50
 244 402 244 402 279.5 315.5 c 128,-1,51
 315 229 315 229 379.5 175 c 128,-1,52
 444 121 444 121 520 121 c 0,53,54
 586 121 586 121 649.5 134 c 128,-1,55
 713 147 713 147 763 168.5 c 128,-1,56
 813 190 813 190 849 211.5 c 128,-1,57
 885 233 885 233 915 258 c 0,58,59
 942 276 942 276 961.5 286.5 c 128,-1,60
 981 297 981 297 1003.5 297 c 128,-1,61
 1026 297 1026 297 1047 283 c 0,62,63
 1122 225 1122 225 1038 131 c 0,0,1
EndSplineSet
EndChar

StartChar: D
Encoding: 68 68 39
Width: 1114
GlyphClass: 2
Flags: W
LayerCount: 2
Fore
SplineSet
645 -63 m 0,0,1
 543 -63 543 -63 445.5 -54 c 128,-1,2
 348 -45 348 -45 290.5 -32.5 c 128,-1,3
 233 -20 233 -20 190 -10 c 128,-1,4
 147 0 147 0 139 0 c 0,5,6
 98 0 98 0 71.5 27.5 c 128,-1,7
 45 55 45 55 49 104 c 0,8,9
 55 202 55 202 53 453.5 c 128,-1,10
 51 705 51 705 43 997 c 0,11,12
 41 1112 41 1112 40 1148 c 128,-1,13
 39 1184 39 1184 42 1259.5 c 128,-1,14
 45 1335 45 1335 45 1352 c 0,15,16
 47 1407 47 1407 75.5 1434.5 c 128,-1,17
 104 1462 104 1462 147 1462 c 0,18,19
 174 1462 174 1462 215 1458 c 128,-1,20
 256 1454 256 1454 320.5 1442 c 128,-1,21
 385 1430 385 1430 452.5 1408 c 128,-1,22
 520 1386 520 1386 599 1347.5 c 128,-1,23
 678 1309 678 1309 748.5 1257.5 c 128,-1,24
 819 1206 819 1206 884.5 1129.5 c 128,-1,25
 950 1053 950 1053 998.5 961.5 c 128,-1,26
 1047 870 1047 870 1075.5 744 c 128,-1,27
 1104 618 1104 618 1104 473 c 0,28,29
 1104 401 1104 401 1084.5 327.5 c 128,-1,30
 1065 254 1065 254 1025 183.5 c 128,-1,31
 985 113 985 113 932 57.5 c 128,-1,32
 879 2 879 2 804 -30.5 c 128,-1,33
 729 -63 729 -63 645 -63 c 0,0,1
244 713 m 0,34,35
 246 625 246 625 251 447.5 c 128,-1,36
 256 270 256 270 258 180 c 1,37,38
 342 143 342 143 434 128 c 128,-1,39
 526 113 526 113 643 113 c 0,40,41
 700 113 700 113 751.5 150.5 c 128,-1,42
 803 188 803 188 835.5 248.5 c 128,-1,43
 868 309 868 309 887.5 382 c 128,-1,44
 907 455 907 455 907 524 c 0,45,46
 907 909 907 909 592 1112 c 0,47,48
 479 1184 479 1184 270 1260 c 1,49,-1
 268 1262 l 1,50,-1
 268 1262 l 1,51,-1
 266 1262 l 1,52,-1
 266 1262 l 1,53,-1
 264 1262 l 1,54,-1
 264 1262 l 1,55,-1
 262 1264 l 1,56,-1
 262 1264 l 1,57,-1
 260 1264 l 1,58,-1
 260 1264 l 1,59,-1
 258 1264 l 1,60,-1
 258 1266 l 1,61,-1
 256 1266 l 1,62,-1
 256 1266 l 1,63,-1
 256 1266 l 1,64,-1
 254 1266 l 1,65,-1
 252 1268 l 1,66,-1
 252 1268 l 1,67,-1
 250 1268 l 1,68,-1
 250 1268 l 1,69,-1
 248 1268 l 1,70,-1
 248 1268 l 1,71,-1
 246 1270 l 1,72,-1
 246 1270 l 1,73,-1
 244 1270 l 1,74,-1
 244 1270 l 1,75,-1
 242 1270 l 1,76,-1
 242 1272 l 1,77,78
 236 1006 236 1006 244 713 c 0,34,35
EndSplineSet
EndChar

StartChar: E
Encoding: 69 69 40
Width: 1114
GlyphClass: 2
Flags: W
LayerCount: 2
Fore
SplineSet
952 -12 m 0,0,1
 915 -10 915 -10 774 -19.5 c 128,-1,2
 633 -29 633 -29 464 -36 c 128,-1,3
 295 -43 295 -43 199 -37 c 0,4,5
 152 -35 152 -35 104.5 9 c 128,-1,6
 57 53 57 53 49 117 c 0,7,8
 43 170 43 170 43 308 c 128,-1,9
 43 446 43 446 45 602 c 128,-1,10
 47 758 47 758 43 952 c 0,11,12
 41 1075 41 1075 40 1115 c 128,-1,13
 39 1155 39 1155 42 1233 c 128,-1,14
 45 1311 45 1311 45 1329 c 0,15,16
 47 1384 47 1384 75.5 1413 c 128,-1,17
 104 1442 104 1442 147 1442 c 0,18,19
 200 1444 200 1444 229 1407 c 1,20,21
 346 1423 346 1423 502.5 1427.5 c 128,-1,22
 659 1432 659 1432 780 1427.5 c 128,-1,23
 901 1423 901 1423 973 1415 c 0,24,25
 1022 1409 1022 1409 1040.5 1390.5 c 128,-1,26
 1059 1372 1059 1372 1061 1339 c 0,27,28
 1061 1321 1061 1321 1057 1304.5 c 128,-1,29
 1053 1288 1053 1288 1043.5 1275 c 128,-1,30
 1034 1262 1034 1262 1015.5 1253.5 c 128,-1,31
 997 1245 997 1245 973 1249 c 0,32,33
 780 1263 780 1263 584.5 1258 c 128,-1,34
 389 1253 389 1253 250 1233 c 1,35,36
 242 1020 242 1020 242 815 c 1,37,38
 392 815 392 815 649.5 830.5 c 128,-1,39
 907 846 907 846 940 846 c 0,40,41
 987 846 987 846 1006.5 825.5 c 128,-1,42
 1026 805 1026 805 1026 768 c 0,43,44
 1026 678 1026 678 940 680 c 0,45,46
 903 680 903 680 623.5 659.5 c 128,-1,47
 344 639 344 639 244 639 c 1,48,49
 244 594 244 594 245 521.5 c 128,-1,50
 246 449 246 449 247 396.5 c 128,-1,51
 248 344 248 344 249 288.5 c 128,-1,52
 250 233 250 233 253 197.5 c 128,-1,53
 256 162 256 162 262 147 c 1,54,55
 315 133 315 133 582.5 143.5 c 128,-1,56
 850 154 850 154 926 170 c 0,57,58
 955 174 955 174 975 173 c 128,-1,59
 995 172 995 172 1010.5 165 c 128,-1,60
 1026 158 1026 158 1035 149.5 c 128,-1,61
 1044 141 1044 141 1049.5 128 c 128,-1,62
 1055 115 1055 115 1058 104.5 c 128,-1,63
 1061 94 1061 94 1061 84 c 0,64,65
 1061 45 1061 45 1033 14.5 c 128,-1,66
 1005 -16 1005 -16 952 -12 c 0,0,1
EndSplineSet
EndChar

StartChar: F
Encoding: 70 70 41
Width: 1114
GlyphClass: 2
Flags: W
LayerCount: 2
Fore
SplineSet
260 49 m 1,0,1
 256 6 256 6 220 -19.5 c 128,-1,2
 184 -45 184 -45 139 -43 c 0,3,4
 98 -43 98 -43 71.5 -15.5 c 128,-1,5
 45 12 45 12 49 61 c 0,6,7
 55 151 55 151 53 406.5 c 128,-1,8
 51 662 51 662 43 932 c 0,9,10
 39 1069 39 1069 39 1116 c 128,-1,11
 39 1163 39 1163 42 1243 c 128,-1,12
 45 1323 45 1323 45 1352 c 0,13,14
 47 1407 47 1407 75.5 1434.5 c 128,-1,15
 104 1462 104 1462 147 1462 c 0,16,17
 202 1466 202 1466 231 1427 c 1,18,19
 432 1441 432 1441 637 1445.5 c 128,-1,20
 842 1450 842 1450 973 1438 c 0,21,22
 1020 1434 1020 1434 1039.5 1414.5 c 128,-1,23
 1059 1395 1059 1395 1061 1360 c 0,24,25
 1061 1321 1061 1321 1037.5 1294.5 c 128,-1,26
 1014 1268 1014 1268 965 1268 c 0,27,28
 635 1284 635 1284 250 1253 c 1,29,30
 250 1218 250 1218 247 1141.5 c 128,-1,31
 244 1065 244 1065 242 985 c 128,-1,32
 240 905 240 905 242 823 c 1,33,34
 351 835 351 835 484.5 833 c 128,-1,35
 618 831 618 831 726 822 c 128,-1,36
 834 813 834 813 897 803 c 0,37,38
 946 795 946 795 964.5 776.5 c 128,-1,39
 983 758 983 758 985 725 c 0,40,41
 985 707 985 707 982 691.5 c 128,-1,42
 979 676 979 676 970 661.5 c 128,-1,43
 961 647 961 647 942.5 640 c 128,-1,44
 924 633 924 633 897 635 c 0,45,46
 834 645 834 645 723 652 c 128,-1,47
 612 659 612 659 473 660.5 c 128,-1,48
 334 662 334 662 244 647 c 1,49,50
 258 104 258 104 260 49 c 1,0,1
EndSplineSet
EndChar

StartChar: G
Encoding: 71 71 42
Width: 1114
GlyphClass: 2
Flags: W
LayerCount: 2
Fore
SplineSet
1040 500 m 0,0,1
 1036 457 1036 457 1014.5 399.5 c 128,-1,2
 993 342 993 342 960.5 277.5 c 128,-1,3
 928 213 928 213 878.5 152.5 c 128,-1,4
 829 92 829 92 773 43 c 128,-1,5
 717 -6 717 -6 644 -36 c 128,-1,6
 571 -66 571 -66 498 -63 c 0,7,8
 414 -63 414 -63 339 -34.5 c 128,-1,9
 264 -6 264 -6 211 41 c 128,-1,10
 158 88 158 88 118 150.5 c 128,-1,11
 78 213 78 213 58.5 283.5 c 128,-1,12
 39 354 39 354 39 426 c 0,13,14
 39 578 39 578 69.5 721 c 128,-1,15
 100 864 100 864 152.5 979 c 128,-1,16
 205 1094 205 1094 274.5 1189 c 128,-1,17
 344 1284 344 1284 423 1348.5 c 128,-1,18
 502 1413 502 1413 584 1448 c 128,-1,19
 666 1483 666 1483 743 1483 c 0,20,21
 829 1483 829 1483 934.5 1443 c 128,-1,22
 1040 1403 1040 1403 1071 1374 c 0,23,24
 1116 1329 1116 1329 1094 1257 c 0,25,26
 1086 1230 1086 1230 1055 1218 c 128,-1,27
 1024 1206 1024 1206 991 1219 c 0,28,29
 979 1223 979 1223 934 1249.5 c 128,-1,30
 889 1276 889 1276 843 1296.5 c 128,-1,31
 797 1317 797 1317 758 1317 c 0,32,33
 695 1317 695 1317 622 1275 c 128,-1,34
 549 1233 549 1233 482.5 1154 c 128,-1,35
 416 1075 416 1075 361.5 974.5 c 128,-1,36
 307 874 307 874 275.5 747.5 c 128,-1,37
 244 621 244 621 244 492 c 0,38,39
 244 402 244 402 279.5 315.5 c 128,-1,40
 315 229 315 229 379.5 175 c 128,-1,41
 444 121 444 121 520 121 c 0,42,43
 569 121 569 121 621.5 152.5 c 128,-1,44
 674 184 674 184 715 233.5 c 128,-1,45
 756 283 756 283 792.5 344.5 c 128,-1,46
 829 406 829 406 854 463 c 128,-1,47
 879 520 879 520 893 569 c 1,48,49
 764 563 764 563 640 546.5 c 128,-1,50
 516 530 516 530 469 504 c 0,51,52
 434 486 434 486 402.5 506 c 128,-1,53
 371 526 371 526 367 561 c 0,54,55
 355 639 355 639 444 682 c 0,56,57
 501 711 501 711 694 726 c 128,-1,58
 887 741 887 741 997 735 c 0,59,60
 1048 733 1048 733 1067.5 717.5 c 128,-1,61
 1087 702 1087 702 1094 670 c 0,62,63
 1102 594 1102 594 1049 575 c 1,64,65
 1049 569 1049 569 1044.5 542.5 c 128,-1,66
 1040 516 1040 516 1040 500 c 0,0,1
EndSplineSet
EndChar

StartChar: H
Encoding: 72 72 43
Width: 1114
GlyphClass: 2
Flags: W
LayerCount: 2
Fore
SplineSet
1026 49 m 1,0,1
 1022 6 1022 6 986 -19.5 c 128,-1,2
 950 -45 950 -45 907 -43 c 0,3,4
 866 -43 866 -43 839.5 -15.5 c 128,-1,5
 813 12 813 12 817 61 c 0,6,7
 837 346 837 346 836 700 c 1,8,9
 801 698 801 698 585 668.5 c 128,-1,10
 369 639 369 639 276 639 c 1,11,12
 276 633 276 633 275 617.5 c 128,-1,13
 274 602 274 602 274 596 c 0,14,15
 262 393 262 393 274 49 c 1,16,17
 270 6 270 6 233.5 -19.5 c 128,-1,18
 197 -45 197 -45 154 -43 c 0,19,20
 113 -43 113 -43 86 -15.5 c 128,-1,21
 59 12 59 12 63 61 c 0,22,23
 65 90 65 90 66.5 153.5 c 128,-1,24
 68 217 68 217 68 323.5 c 128,-1,25
 68 430 68 430 70 516 c 0,26,27
 70 586 70 586 74 716 c 128,-1,28
 78 846 78 846 79 908.5 c 128,-1,29
 80 971 80 971 78 1096 c 0,30,31
 76 1188 76 1188 76 1213.5 c 128,-1,32
 76 1239 76 1239 78 1284 c 128,-1,33
 80 1329 80 1329 82 1352 c 0,34,35
 84 1407 84 1407 111.5 1434.5 c 128,-1,36
 139 1462 139 1462 182 1462 c 0,37,38
 227 1464 227 1464 257 1438.5 c 128,-1,39
 287 1413 287 1413 287 1358 c 0,40,41
 287 1338 287 1338 281.5 1270 c 128,-1,42
 276 1202 276 1202 276 1145 c 0,43,44
 276 1092 276 1092 278.5 982 c 128,-1,45
 281 872 281 872 281 815 c 1,46,47
 387 815 387 815 499.5 827.5 c 128,-1,48
 612 840 612 840 704.5 852 c 128,-1,49
 797 864 797 864 834 868 c 1,50,51
 834 882 834 882 831.5 910 c 128,-1,52
 829 938 829 938 829 952 c 0,53,54
 827 1079 827 1079 827 1120 c 128,-1,55
 827 1161 827 1161 830.5 1247 c 128,-1,56
 834 1333 834 1333 836 1352 c 0,57,58
 836 1407 836 1407 865.5 1434.5 c 128,-1,59
 895 1462 895 1462 936 1462 c 0,60,61
 981 1464 981 1464 1010.5 1438.5 c 128,-1,62
 1040 1413 1040 1413 1040 1358 c 0,63,64
 1040 1319 1040 1319 1038 1198 c 128,-1,65
 1036 1077 1036 1077 1035 986 c 128,-1,66
 1034 895 1034 895 1038 723 c 0,67,68
 1042 580 1042 580 1034 346 c 128,-1,69
 1026 112 1026 112 1026 49 c 1,0,1
EndSplineSet
EndChar

StartChar: I
Encoding: 73 73 44
Width: 1114
GlyphClass: 2
Flags: W
LayerCount: 2
Fore
SplineSet
981 -23 m 0,0,1
 928 -15 928 -15 807 -13.5 c 128,-1,2
 686 -12 686 -12 571.5 -16 c 128,-1,3
 457 -20 457 -20 327 -24.5 c 128,-1,4
 197 -29 197 -29 147 -29 c 0,5,6
 94 -29 94 -29 68.5 -8.5 c 128,-1,7
 43 12 43 12 43 45 c 0,8,9
 41 82 41 82 64.5 107.5 c 128,-1,10
 88 133 88 133 141 135 c 0,11,12
 227 139 227 139 444 145 c 1,13,14
 467 495 467 495 457 887 c 0,15,16
 455 961 455 961 454 1026.5 c 128,-1,17
 453 1092 453 1092 453 1120.5 c 128,-1,18
 453 1149 453 1149 457 1209.5 c 128,-1,19
 461 1270 461 1270 461 1280 c 1,20,21
 275 1284 275 1284 162 1280 c 0,22,23
 111 1280 111 1280 84 1302.5 c 128,-1,24
 57 1325 57 1325 57 1360 c 0,25,26
 55 1397 55 1397 80.5 1423.5 c 128,-1,27
 106 1450 106 1450 160 1450 c 0,28,29
 672 1464 672 1464 971 1436 c 0,30,31
 1061 1428 1061 1428 1065 1352 c 0,32,33
 1065 1334 1065 1334 1060 1316 c 128,-1,34
 1055 1298 1055 1298 1043.5 1282 c 128,-1,35
 1032 1266 1032 1266 1011.5 1256.5 c 128,-1,36
 991 1247 991 1247 967 1253 c 0,37,38
 906 1263 906 1263 666 1276 c 1,39,40
 666 1260 666 1260 664 1184 c 128,-1,41
 662 1108 662 1108 662 1063 c 128,-1,42
 662 1018 662 1018 662 934 c 128,-1,43
 662 850 662 850 664 768 c 0,44,45
 668 623 668 623 660.5 405.5 c 128,-1,46
 653 188 653 188 653 147 c 1,47,48
 741 147 741 147 857 146 c 128,-1,49
 973 145 973 145 981 145 c 0,50,51
 1028 145 1028 145 1047.5 123.5 c 128,-1,52
 1067 102 1067 102 1069 68 c 0,53,54
 1069 50 1069 50 1066 34 c 128,-1,55
 1063 18 1063 18 1053.5 3 c 128,-1,56
 1044 -12 1044 -12 1026 -19.5 c 128,-1,57
 1008 -27 1008 -27 981 -23 c 0,0,1
EndSplineSet
EndChar

StartChar: J
Encoding: 74 74 45
Width: 1114
GlyphClass: 2
Flags: W
LayerCount: 2
Fore
SplineSet
776 440 m 0,0,1
 760 256 760 256 727 141.5 c 128,-1,2
 694 27 694 27 647 -22.5 c 128,-1,3
 600 -72 600 -72 535 -72 c 0,4,5
 465 -72 465 -72 398.5 -47.5 c 128,-1,6
 332 -23 332 -23 281.5 18 c 128,-1,7
 231 59 231 59 188 107.5 c 128,-1,8
 145 156 145 156 116.5 204 c 128,-1,9
 88 252 88 252 71.5 290 c 128,-1,10
 55 328 55 328 53 350 c 0,11,12
 49 368 49 368 51 394 c 128,-1,13
 53 420 53 420 59.5 442.5 c 128,-1,14
 66 465 66 465 84 482.5 c 128,-1,15
 102 500 102 500 133 504 c 0,16,17
 178 512 178 512 205.5 486.5 c 128,-1,18
 233 461 233 461 233 422 c 0,19,20
 233 399 233 399 241.5 367.5 c 128,-1,21
 250 336 250 336 269.5 294 c 128,-1,22
 289 252 289 252 317.5 217 c 128,-1,23
 346 182 346 182 397.5 158.5 c 128,-1,24
 449 135 449 135 510 135 c 0,25,26
 584 135 584 135 594 492 c 0,27,28
 594 537 594 537 590 780.5 c 128,-1,29
 586 1024 586 1024 590 1278 c 1,30,31
 361 1284 361 1284 184 1280 c 0,32,33
 133 1280 133 1280 106.5 1302.5 c 128,-1,34
 80 1325 80 1325 80 1360 c 0,35,36
 78 1397 78 1397 103.5 1423.5 c 128,-1,37
 129 1450 129 1450 182 1450 c 0,38,39
 694 1464 694 1464 991 1436 c 0,40,41
 1081 1428 1081 1428 1087 1352 c 0,42,43
 1087 1334 1087 1334 1081 1316 c 128,-1,44
 1075 1298 1075 1298 1065 1282 c 128,-1,45
 1055 1266 1055 1266 1034.5 1256.5 c 128,-1,46
 1014 1247 1014 1247 987 1253 c 0,47,48
 915 1263 915 1263 768 1272 c 1,49,50
 768 1213 768 1213 772 1092 c 128,-1,51
 776 971 776 971 779 871.5 c 128,-1,52
 782 772 782 772 782 650 c 128,-1,53
 782 528 782 528 776 440 c 0,0,1
EndSplineSet
EndChar

StartChar: K
Encoding: 75 75 46
Width: 1114
GlyphClass: 2
Flags: W
LayerCount: 2
Fore
SplineSet
260 49 m 1,0,1
 256 6 256 6 220 -19.5 c 128,-1,2
 184 -45 184 -45 139 -43 c 0,3,4
 98 -43 98 -43 71.5 -15.5 c 128,-1,5
 45 12 45 12 49 61 c 0,6,7
 55 151 55 151 53 406.5 c 128,-1,8
 51 662 51 662 43 932 c 0,9,10
 39 1063 39 1063 39 1109 c 128,-1,11
 39 1155 39 1155 42 1242 c 128,-1,12
 45 1329 45 1329 45 1352 c 0,13,14
 47 1407 47 1407 75.5 1434.5 c 128,-1,15
 104 1462 104 1462 147 1462 c 0,16,17
 192 1464 192 1464 222 1438.5 c 128,-1,18
 252 1413 252 1413 252 1358 c 0,19,20
 252 1309 252 1309 247 1143 c 128,-1,21
 242 977 242 977 242 868 c 1,22,23
 316 940 316 940 464 1085.5 c 128,-1,24
 612 1231 612 1231 700 1316 c 128,-1,25
 788 1401 788 1401 813 1421 c 0,26,27
 842 1448 842 1448 868.5 1457 c 128,-1,28
 895 1466 895 1466 914.5 1461 c 128,-1,29
 934 1456 934 1456 950 1440 c 0,30,31
 1003 1383 1003 1383 934 1296 c 0,32,33
 903 1259 903 1259 716.5 1072 c 128,-1,34
 530 885 530 885 385 745 c 1,35,36
 455 671 455 671 621.5 514.5 c 128,-1,37
 788 358 788 358 911 239.5 c 128,-1,38
 1034 121 1034 121 1047 90 c 0,39,40
 1059 51 1059 51 1047.5 20.5 c 128,-1,41
 1036 -10 1036 -10 1010 -27 c 0,42,43
 940 -74 940 -74 874 8 c 0,44,45
 854 35 854 35 728 149.5 c 128,-1,46
 602 264 602 264 456.5 402.5 c 128,-1,47
 311 541 311 541 244 623 c 1,48,-1
 244 582 l 2,49,50
 244 547 244 547 260 49 c 1,0,1
EndSplineSet
EndChar

StartChar: L
Encoding: 76 76 47
Width: 1114
GlyphClass: 2
Flags: W
LayerCount: 2
Fore
SplineSet
977 20 m 0,0,1
 838 -7 838 -7 555 -19 c 128,-1,2
 272 -31 272 -31 139 -31 c 0,3,4
 98 -31 98 -31 71.5 -3 c 128,-1,5
 45 25 45 25 49 74 c 0,6,7
 49 90 49 90 72.5 308 c 128,-1,8
 96 526 96 526 106 729 c 0,9,10
 112 821 112 821 108 1067 c 128,-1,11
 104 1313 104 1313 104 1333 c 0,12,13
 106 1388 106 1388 136 1417 c 128,-1,14
 166 1446 166 1446 207 1446 c 0,15,16
 252 1448 252 1448 281.5 1422.5 c 128,-1,17
 311 1397 311 1397 311 1341 c 0,18,19
 311 1282 311 1282 307 1179.5 c 128,-1,20
 303 1077 303 1077 298 921.5 c 128,-1,21
 293 766 293 766 289 651 c 0,22,23
 287 565 287 565 273.5 401.5 c 128,-1,24
 260 238 260 238 260 147 c 1,25,26
 432 145 432 145 660.5 166.5 c 128,-1,27
 889 188 889 188 965 209 c 0,28,29
 990 215 990 215 1009 207 c 128,-1,30
 1028 199 1028 199 1039.5 182.5 c 128,-1,31
 1051 166 1051 166 1058 146.5 c 128,-1,32
 1065 127 1065 127 1065 111 c 0,33,34
 1065 74 1065 74 1046.5 51 c 128,-1,35
 1028 28 1028 28 977 20 c 0,0,1
EndSplineSet
EndChar

StartChar: M
Encoding: 77 77 48
Width: 1114
GlyphClass: 2
Flags: W
LayerCount: 2
Fore
SplineSet
190 121 m 0,0,1
 192 55 192 55 163.5 17.5 c 128,-1,2
 135 -20 135 -20 94 -20 c 0,3,4
 20 -18 20 -18 20 131 c 0,5,6
 20 156 20 156 25.5 215 c 128,-1,7
 31 274 31 274 41 370.5 c 128,-1,8
 51 467 51 467 57 539 c 0,9,10
 59 564 59 564 63 614 c 0,11,12
 75 766 75 766 82.5 851 c 128,-1,13
 90 936 90 936 103.5 1063 c 128,-1,14
 117 1190 117 1190 129 1262.5 c 128,-1,15
 141 1335 141 1335 156 1364 c 0,16,17
 176 1407 176 1407 219 1426.5 c 128,-1,18
 262 1446 262 1446 301 1442 c 0,19,20
 393 1442 393 1442 414 1366 c 0,21,22
 439 1276 439 1276 467.5 1068 c 128,-1,23
 496 860 496 860 526.5 594 c 128,-1,24
 557 328 557 328 569 242 c 1,25,26
 589 531 589 531 616 762 c 0,27,28
 634 932 634 932 666 1104 c 128,-1,29
 698 1276 698 1276 721 1366 c 0,30,31
 729 1397 729 1397 755.5 1416.5 c 128,-1,32
 782 1436 782 1436 810 1440 c 128,-1,33
 838 1444 838 1444 862 1442 c 0,34,35
 864 1442 864 1442 870 1442 c 0,36,37
 886 1442 886 1442 897.5 1442 c 128,-1,38
 909 1442 909 1442 928.5 1437 c 128,-1,39
 948 1432 948 1432 959.5 1423.5 c 128,-1,40
 971 1415 971 1415 982 1397.5 c 128,-1,41
 993 1380 993 1380 997 1356 c 0,42,43
 1005 1295 1005 1295 1044 756 c 128,-1,44
 1083 217 1083 217 1100 147 c 0,45,46
 1129 24 1129 24 1057 -8 c 0,47,48
 1018 -24 1018 -24 980 -5 c 128,-1,49
 942 14 942 14 922 80 c 0,50,51
 879 217 879 217 846 1276 c 1,52,53
 787 979 787 979 768 735 c 0,54,55
 750 502 750 502 719 292 c 128,-1,56
 688 82 688 82 668 35 c 0,57,58
 645 -14 645 -14 555 -14 c 0,59,60
 514 -16 514 -16 487.5 -2 c 128,-1,61
 461 12 461 12 453 39 c 0,62,63
 428 137 428 137 371.5 490.5 c 128,-1,64
 315 844 315 844 268 1167 c 1,65,66
 262 1101 262 1101 256 1019.5 c 128,-1,67
 250 938 250 938 246 877.5 c 128,-1,68
 242 817 242 817 233.5 698.5 c 128,-1,69
 225 580 225 580 221 518 c 0,70,71
 217 432 217 432 208 341 c 128,-1,72
 199 250 199 250 194.5 198 c 128,-1,73
 190 146 190 146 190 121 c 0,0,1
EndSplineSet
EndChar

StartChar: N
Encoding: 78 78 49
Width: 1114
GlyphClass: 2
Flags: W
LayerCount: 2
Fore
SplineSet
911 -29 m 0,0,1
 872 -31 872 -31 846.5 -15.5 c 128,-1,2
 821 0 821 0 811 27 c 0,3,4
 793 68 793 68 713 207 c 128,-1,5
 633 346 633 346 548 496.5 c 128,-1,6
 463 647 463 647 369.5 833.5 c 128,-1,7
 276 1020 276 1020 229 1151 c 1,8,9
 241 928 241 928 238.5 735.5 c 128,-1,10
 236 543 236 543 229.5 343 c 128,-1,11
 223 143 223 143 225 100 c 0,12,13
 227 34 227 34 198.5 3.5 c 128,-1,14
 170 -27 170 -27 129 -25 c 0,15,16
 86 -25 86 -25 70.5 10 c 128,-1,17
 55 45 55 45 55 113 c 0,18,19
 55 154 55 154 61.5 430.5 c 128,-1,20
 68 707 68 707 70 913.5 c 128,-1,21
 72 1120 72 1120 66 1311 c 0,22,23
 64 1352 64 1352 76 1380.5 c 128,-1,24
 88 1409 88 1409 110.5 1422.5 c 128,-1,25
 133 1436 133 1436 157.5 1441 c 128,-1,26
 182 1446 182 1446 211 1442 c 0,27,28
 299 1442 299 1442 322 1366 c 0,29,30
 365 1231 365 1231 559.5 868.5 c 128,-1,31
 754 506 754 506 889 283 c 1,32,33
 897 476 897 476 893 843 c 128,-1,34
 889 1210 889 1210 874 1327 c 0,35,36
 868 1376 868 1376 894 1410 c 128,-1,37
 920 1444 920 1444 961 1444 c 0,38,39
 984 1444 984 1444 1000 1439 c 128,-1,40
 1016 1434 1016 1434 1025 1426.5 c 128,-1,41
 1034 1419 1034 1419 1040.5 1402.5 c 128,-1,42
 1047 1386 1047 1386 1050 1373 c 128,-1,43
 1053 1360 1053 1360 1057 1331 c 0,44,45
 1061 1298 1061 1298 1063 1002.5 c 128,-1,46
 1065 707 1065 707 1056 389.5 c 128,-1,47
 1047 72 1047 72 1024 23 c 0,48,49
 1003 -29 1003 -29 911 -29 c 0,0,1
EndSplineSet
EndChar

StartChar: O
Encoding: 79 79 50
Width: 1114
GlyphClass: 2
Flags: W
LayerCount: 2
Fore
SplineSet
494 -49 m 0,0,1
 367 -47 367 -47 267.5 27.5 c 128,-1,2
 168 102 168 102 113.5 228 c 128,-1,3
 59 354 59 354 61 504 c 0,4,5
 61 514 61 514 61 539 c 0,6,7
 61 631 61 631 62 686 c 128,-1,8
 63 741 63 741 70.5 833.5 c 128,-1,9
 78 926 78 926 95.5 1009 c 128,-1,10
 113 1092 113 1092 139 1165 c 0,11,12
 190 1298 190 1298 320.5 1384 c 128,-1,13
 451 1470 451 1470 612 1470 c 0,14,15
 694 1470 694 1470 770 1438.5 c 128,-1,16
 846 1407 846 1407 905.5 1347.5 c 128,-1,17
 965 1288 965 1288 1004.5 1196 c 128,-1,18
 1044 1104 1044 1104 1055 989 c 0,19,20
 1063 887 1063 887 1064 770 c 128,-1,21
 1065 653 1065 653 1057 533.5 c 128,-1,22
 1049 414 1049 414 1030 344 c 0,23,24
 1003 248 1003 248 964.5 178.5 c 128,-1,25
 926 109 926 109 878.5 64.5 c 128,-1,26
 831 20 831 20 769 -5.5 c 128,-1,27
 707 -31 707 -31 642.5 -40 c 128,-1,28
 578 -49 578 -49 494 -49 c 0,0,1
494 123 m 0,29,30
 549 123 549 123 599 136.5 c 128,-1,31
 649 150 649 150 696 179.5 c 128,-1,32
 743 209 743 209 780 258 c 128,-1,33
 817 307 817 307 838 373 c 0,34,35
 846 400 846 400 854 496 c 128,-1,36
 862 592 862 592 867 725 c 128,-1,37
 872 858 872 858 860 987 c 0,38,39
 848 1122 848 1122 773 1213.5 c 128,-1,40
 698 1305 698 1305 590 1305 c 0,41,42
 479 1305 479 1305 404.5 1224 c 128,-1,43
 330 1143 330 1143 297 997 c 0,44,45
 252 802 252 802 260 537 c 0,46,47
 262 471 262 471 270.5 415.5 c 128,-1,48
 279 360 279 360 296 305 c 128,-1,49
 313 250 313 250 339 210 c 128,-1,50
 365 170 365 170 405 146.5 c 128,-1,51
 445 123 445 123 494 123 c 0,29,30
EndSplineSet
EndChar

StartChar: P
Encoding: 80 80 51
Width: 1114
GlyphClass: 2
Flags: W
LayerCount: 2
Fore
SplineSet
299 49 m 0,0,1
 301 6 301 6 265 -17.5 c 128,-1,2
 229 -41 229 -41 184 -39 c 0,3,4
 141 -39 141 -39 113.5 -13.5 c 128,-1,5
 86 12 86 12 90 61 c 0,6,7
 92 94 92 94 92 158.5 c 128,-1,8
 92 223 92 223 91 318.5 c 128,-1,9
 90 414 90 414 88 503 c 128,-1,10
 86 592 86 592 83 721 c 128,-1,11
 80 850 80 850 80 936 c 0,12,13
 78 1069 78 1069 82 1288 c 1,14,15
 72 1298 72 1298 70 1298 c 1,16,17
 54 1323 54 1323 58.5 1348.5 c 128,-1,18
 63 1374 63 1374 80.5 1394.5 c 128,-1,19
 98 1415 98 1415 119 1419 c 0,20,21
 193 1435 193 1435 335 1445.5 c 128,-1,22
 477 1456 477 1456 535 1456 c 0,23,24
 674 1456 674 1456 783.5 1407 c 128,-1,25
 893 1358 893 1358 957.5 1258.5 c 128,-1,26
 1022 1159 1022 1159 1024 1022 c 0,27,28
 1024 907 1024 907 986 806 c 128,-1,29
 948 705 948 705 883.5 631 c 128,-1,30
 819 557 819 557 725 514 c 128,-1,31
 631 471 631 471 520 471 c 0,32,33
 360 471 360 471 268 494 c 1,34,35
 272 408 272 408 278.5 329 c 128,-1,36
 285 250 285 250 291 165 c 128,-1,37
 297 80 297 80 299 49 c 0,0,1
535 1290 m 0,38,39
 463 1290 463 1290 276 1274 c 1,40,41
 276 1233 276 1233 272 1122.5 c 128,-1,42
 268 1012 268 1012 266 895 c 128,-1,43
 264 778 264 778 264 668 c 1,44,45
 348 637 348 637 461 639 c 0,46,47
 520 639 520 639 568 647 c 128,-1,48
 616 655 616 655 652 669.5 c 128,-1,49
 688 684 688 684 716.5 707.5 c 128,-1,50
 745 731 745 731 764.5 754.5 c 128,-1,51
 784 778 784 778 797.5 810 c 128,-1,52
 811 842 811 842 818 867.5 c 128,-1,53
 825 893 825 893 829.5 927 c 128,-1,54
 834 961 834 961 835 982.5 c 128,-1,55
 836 1004 836 1004 836 1034 c 0,56,57
 836 1091 836 1091 814.5 1137.5 c 128,-1,58
 793 1184 793 1184 761 1211.5 c 128,-1,59
 729 1239 729 1239 688 1257.5 c 128,-1,60
 647 1276 647 1276 609.5 1283 c 128,-1,61
 572 1290 572 1290 535 1290 c 0,38,39
EndSplineSet
EndChar

StartChar: Q
Encoding: 81 81 52
Width: 1114
GlyphClass: 2
Flags: W
LayerCount: 2
Fore
SplineSet
1032 -422 m 0,0,1
 999 -442 999 -442 962 -432 c 0,2,3
 926 -422 926 -422 897 -385 c 128,-1,4
 868 -348 868 -348 798.5 -247.5 c 128,-1,5
 729 -147 729 -147 664 -43 c 1,6,7
 611 -51 611 -51 547 -49 c 0,8,9
 457 -49 457 -49 379 -20.5 c 128,-1,10
 301 8 301 8 244.5 59.5 c 128,-1,11
 188 111 188 111 147 181.5 c 128,-1,12
 106 252 106 252 86 333 c 128,-1,13
 66 414 66 414 61 504 c 0,14,15
 47 901 47 901 141 1157 c 0,16,17
 194 1292 194 1292 323.5 1381 c 128,-1,18
 453 1470 453 1470 612 1470 c 0,19,20
 696 1470 696 1470 769 1441.5 c 128,-1,21
 842 1413 842 1413 901.5 1358 c 128,-1,22
 961 1303 961 1303 1000.5 1208.5 c 128,-1,23
 1040 1114 1040 1114 1055 989 c 0,24,25
 1069 848 1069 848 1065 644 c 128,-1,26
 1061 440 1061 440 1038 334 c 0,27,28
 995 113 995 113 838 18 c 1,29,30
 879 -41 879 -41 925 -102.5 c 128,-1,31
 971 -164 971 -164 1013 -217 c 128,-1,32
 1055 -270 1055 -270 1069 -289 c 0,33,34
 1083 -312 1083 -312 1079 -338.5 c 128,-1,35
 1075 -365 1075 -365 1061.5 -388.5 c 128,-1,36
 1048 -412 1048 -412 1032 -422 c 0,0,1
260 537 m 0,37,38
 266 420 266 420 304 326.5 c 128,-1,39
 342 233 342 233 405.5 178 c 128,-1,40
 469 123 469 123 547 123 c 2,41,-1
 567 123 l 1,42,43
 518 215 518 215 498 266 c 0,44,45
 453 387 453 387 516 438 c 0,46,47
 534 452 534 452 556 455.5 c 128,-1,48
 578 459 578 459 597 443.5 c 128,-1,49
 616 428 616 428 629 397 c 0,50,51
 666 295 666 295 735 174 c 1,52,53
 823 233 823 233 852 365 c 0,54,55
 858 396 858 396 865 489 c 128,-1,56
 872 582 872 582 874.5 721 c 128,-1,57
 877 860 877 860 860 987 c 0,58,59
 844 1132 844 1132 771 1218.5 c 128,-1,60
 698 1305 698 1305 590 1305 c 0,61,62
 477 1305 477 1305 402.5 1225 c 128,-1,63
 328 1145 328 1145 295 1001 c 0,64,65
 242 789 242 789 260 537 c 0,37,38
EndSplineSet
EndChar

StartChar: R
Encoding: 82 82 53
Width: 1114
GlyphClass: 2
Flags: W
LayerCount: 2
Fore
SplineSet
291 49 m 0,0,1
 293 6 293 6 257 -17.5 c 128,-1,2
 221 -41 221 -41 174 -39 c 0,3,4
 131 -39 131 -39 103.5 -13.5 c 128,-1,5
 76 12 76 12 82 61 c 0,6,7
 90 167 90 167 90 242 c 128,-1,8
 90 317 90 317 88 610 c 0,9,10
 88 649 88 649 92 777 c 128,-1,11
 96 905 96 905 92 1020 c 0,12,13
 90 1090 90 1090 81 1208.5 c 128,-1,14
 72 1327 72 1327 72 1352 c 2,15,-1
 72 1364 l 2,16,17
 70 1403 70 1403 98 1432 c 1,18,19
 125 1465 125 1465 172 1462 c 0,20,21
 213 1462 213 1462 238 1446 c 1,22,23
 408 1438 408 1438 546 1402 c 128,-1,24
 684 1366 684 1366 776 1313 c 128,-1,25
 868 1260 868 1260 931.5 1192 c 128,-1,26
 995 1124 995 1124 1022 1056.5 c 128,-1,27
 1049 989 1049 989 1049 920 c 0,28,29
 1049 869 1049 869 1035.5 825.5 c 128,-1,30
 1022 782 1022 782 997.5 750.5 c 128,-1,31
 973 719 973 719 934 694.5 c 128,-1,32
 895 670 895 670 851 652.5 c 128,-1,33
 807 635 807 635 746.5 621.5 c 128,-1,34
 686 608 686 608 626.5 601 c 128,-1,35
 567 594 567 594 494 588 c 1,36,37
 701 482 701 482 858.5 339.5 c 128,-1,38
 1016 197 1016 197 1065 96 c 1,39,40
 1077 59 1077 59 1065 28.5 c 128,-1,41
 1053 -2 1053 -2 1026 -20 c 0,42,43
 995 -43 995 -43 959.5 -35 c 128,-1,44
 924 -27 924 -27 893 14 c 0,45,46
 860 57 860 57 799.5 119.5 c 128,-1,47
 739 182 739 182 654 259 c 128,-1,48
 569 336 569 336 460.5 410.5 c 128,-1,49
 352 485 352 485 250 530 c 1,50,51
 256 411 256 411 272.5 249.5 c 128,-1,52
 289 88 289 88 291 49 c 0,0,1
276 1020 m 0,53,54
 276 997 276 997 273 959.5 c 128,-1,55
 270 922 270 922 268 892 c 128,-1,56
 266 862 266 862 261 810 c 128,-1,57
 256 758 256 758 254 735 c 1,58,59
 297 727 297 727 383 733 c 0,60,61
 467 737 467 737 524.5 742.5 c 128,-1,62
 582 748 582 748 640 757 c 128,-1,63
 698 766 698 766 735 778.5 c 128,-1,64
 772 791 772 791 803 809 c 128,-1,65
 834 827 834 827 847 853 c 128,-1,66
 860 879 860 879 860 911 c 0,67,68
 860 968 860 968 818 1021.5 c 128,-1,69
 776 1075 776 1075 711.5 1116 c 128,-1,70
 647 1157 647 1157 565 1191 c 128,-1,71
 483 1225 483 1225 408.5 1245.5 c 128,-1,72
 334 1266 334 1266 266 1278 c 1,73,74
 272 1129 272 1129 276 1020 c 0,53,54
EndSplineSet
EndChar

StartChar: S
Encoding: 83 83 54
Width: 1114
GlyphClass: 2
Flags: W
LayerCount: 2
Fore
SplineSet
70 135 m 0,0,1
 43 190 43 190 52 225 c 128,-1,2
 61 260 61 260 96 279 c 0,3,4
 121 289 121 289 135.5 293 c 128,-1,5
 150 297 150 297 167 295 c 128,-1,6
 184 293 184 293 200.5 278.5 c 128,-1,7
 217 264 217 264 238 238 c 0,8,9
 275 183 275 183 339 149 c 128,-1,10
 403 115 403 115 485 115 c 0,11,12
 534 115 534 115 587.5 128 c 128,-1,13
 641 141 641 141 692 169 c 128,-1,14
 743 197 743 197 784 233.5 c 128,-1,15
 825 270 825 270 849.5 320.5 c 128,-1,16
 874 371 874 371 874 426 c 0,17,18
 874 457 874 457 870 481.5 c 128,-1,19
 866 506 866 506 855 534.5 c 128,-1,20
 844 563 844 563 824.5 586.5 c 128,-1,21
 805 610 805 610 770 633.5 c 128,-1,22
 735 657 735 657 688 675.5 c 128,-1,23
 641 694 641 694 573.5 709.5 c 128,-1,24
 506 725 506 725 422 733 c 0,25,26
 348 741 348 741 287.5 772 c 128,-1,27
 227 803 227 803 190.5 847 c 128,-1,28
 154 891 154 891 133.5 939 c 128,-1,29
 113 987 113 987 113 1036 c 0,30,31
 113 1106 113 1106 136.5 1170.5 c 128,-1,32
 160 1235 160 1235 209 1292.5 c 128,-1,33
 258 1350 258 1350 327.5 1392 c 128,-1,34
 397 1434 397 1434 494.5 1458.5 c 128,-1,35
 592 1483 592 1483 702 1483 c 0,36,37
 757 1483 757 1483 853.5 1473.5 c 128,-1,38
 950 1464 950 1464 985 1450 c 0,39,40
 1024 1436 1024 1436 1041.5 1405 c 128,-1,41
 1059 1374 1059 1374 1055 1339 c 0,42,43
 1053 1314 1053 1314 1038.5 1300 c 128,-1,44
 1024 1286 1024 1286 1003.5 1284 c 128,-1,45
 983 1282 983 1282 966.5 1283 c 128,-1,46
 950 1284 950 1284 932 1290 c 0,47,48
 928 1290 928 1290 920 1294 c 0,49,50
 883 1302 883 1302 861.5 1307.5 c 128,-1,51
 840 1313 840 1313 792.5 1317 c 128,-1,52
 745 1321 745 1321 686 1321 c 0,53,54
 592 1321 592 1321 509 1293.5 c 128,-1,55
 426 1266 426 1266 371.5 1210.5 c 128,-1,56
 317 1155 317 1155 317 1087 c 0,57,58
 317 1007 317 1007 387 952 c 128,-1,59
 457 897 457 897 584 893 c 0,60,61
 699 887 699 887 786.5 857 c 128,-1,62
 874 827 874 827 927.5 785 c 128,-1,63
 981 743 981 743 1017 687 c 128,-1,64
 1053 631 1053 631 1065 575.5 c 128,-1,65
 1077 520 1077 520 1077 461 c 0,66,67
 1077 367 1077 367 1045.5 284 c 128,-1,68
 1014 201 1014 201 957.5 138.5 c 128,-1,69
 901 76 901 76 825.5 31 c 128,-1,70
 750 -14 750 -14 660.5 -36.5 c 128,-1,71
 571 -59 571 -59 477 -59 c 0,72,73
 334 -59 334 -59 223.5 -3 c 128,-1,74
 113 53 113 53 70 135 c 0,0,1
EndSplineSet
EndChar

StartChar: T
Encoding: 84 84 55
Width: 1114
GlyphClass: 2
Flags: W
LayerCount: 2
Fore
SplineSet
692 68 m 1,0,1
 688 25 688 25 651 -2 c 128,-1,2
 614 -29 614 -29 571 -27 c 0,3,4
 530 -27 530 -27 503.5 1 c 128,-1,5
 477 29 477 29 481 80 c 0,6,7
 487 172 487 172 473 650 c 128,-1,8
 459 1128 459 1128 461 1272 c 1,9,10
 193 1284 193 1284 152 1290 c 0,11,12
 48 1306 48 1306 45 1370 c 0,13,14
 43 1409 43 1409 70.5 1439.5 c 128,-1,15
 98 1470 98 1470 150 1460 c 0,16,17
 263 1442 263 1442 981 1436 c 0,18,19
 1030 1436 1030 1436 1051.5 1411 c 128,-1,20
 1073 1386 1073 1386 1075 1352 c 0,21,22
 1075 1311 1075 1311 1050.5 1280 c 128,-1,23
 1026 1249 1026 1249 977 1253 c 0,24,25
 961 1253 961 1253 666 1264 c 1,26,27
 669 846 669 846 692 68 c 1,0,1
EndSplineSet
EndChar

StartChar: U
Encoding: 85 85 56
Width: 1114
GlyphClass: 2
Flags: W
LayerCount: 2
Fore
SplineSet
1090 532 m 0,0,1
 1088 440 1088 440 1066 359.5 c 128,-1,2
 1044 279 1044 279 1011.5 219.5 c 128,-1,3
 979 160 979 160 935 111.5 c 128,-1,4
 891 63 891 63 843 31.5 c 128,-1,5
 795 0 795 0 741.5 -20.5 c 128,-1,6
 688 -41 688 -41 638 -50 c 128,-1,7
 588 -59 588 -59 539 -59 c 0,8,9
 480 -59 480 -59 418 -43 c 128,-1,10
 356 -27 356 -27 292.5 13 c 128,-1,11
 229 53 229 53 179 113.5 c 128,-1,12
 129 174 129 174 96 271.5 c 128,-1,13
 63 369 63 369 59 489 c 0,14,15
 43 1112 43 1112 53 1335 c 0,16,17
 53 1390 53 1390 84 1421 c 128,-1,18
 115 1452 115 1452 156 1452 c 0,19,20
 242 1452 242 1452 242 1348 c 0,21,22
 242 654 242 654 252 508 c 0,23,24
 254 451 254 451 265 399.5 c 128,-1,25
 276 348 276 348 299 298 c 128,-1,26
 322 248 322 248 354.5 210 c 128,-1,27
 387 172 387 172 438 149.5 c 128,-1,28
 489 127 489 127 555 127 c 0,29,30
 702 127 702 127 793 224 c 0,31,32
 885 321 885 321 897 520 c 0,33,34
 903 606 903 606 905 737 c 128,-1,35
 907 868 907 868 906 969.5 c 128,-1,36
 905 1071 905 1071 904 1184.5 c 128,-1,37
 903 1298 903 1298 903 1319 c 0,38,39
 903 1364 903 1364 910.5 1393.5 c 128,-1,40
 918 1423 918 1423 933 1435.5 c 128,-1,41
 948 1448 948 1448 961.5 1451 c 128,-1,42
 975 1454 975 1454 997 1454 c 0,43,44
 1036 1454 1036 1454 1061.5 1424.5 c 128,-1,45
 1087 1395 1087 1395 1090 1341 c 0,46,47
 1106 1021 1106 1021 1090 532 c 0,0,1
EndSplineSet
EndChar

StartChar: V
Encoding: 86 86 57
Width: 1114
GlyphClass: 2
Flags: W
LayerCount: 2
Fore
SplineSet
680 55 m 0,0,1
 657 -31 657 -31 569 -25 c 1,2,3
 481 -25 481 -25 451 49 c 0,4,5
 365 268 365 268 211 731 c 128,-1,6
 57 1194 57 1194 35 1292 c 0,7,8
 6 1415 6 1415 80 1448 c 0,9,10
 119 1464 119 1464 156 1444.5 c 128,-1,11
 193 1425 193 1425 213 1360 c 0,12,13
 215 1348 215 1348 253 1229 c 128,-1,14
 291 1110 291 1110 325.5 995.5 c 128,-1,15
 360 881 360 881 405.5 737.5 c 128,-1,16
 451 594 451 594 491.5 468 c 128,-1,17
 532 342 532 342 559 262 c 1,18,19
 637 489 637 489 777.5 923.5 c 128,-1,20
 918 1358 918 1358 918 1360 c 0,21,22
 938 1423 938 1423 979 1443.5 c 128,-1,23
 1020 1464 1020 1464 1059 1448 c 0,24,25
 1082 1438 1082 1438 1097 1416.5 c 128,-1,26
 1112 1395 1112 1395 1116 1363 c 128,-1,27
 1120 1331 1120 1331 1102 1292 c 0,28,29
 1057 1186 1057 1186 891 707.5 c 128,-1,30
 725 229 725 229 680 55 c 0,0,1
EndSplineSet
EndChar

StartChar: W
Encoding: 87 87 58
Width: 1114
GlyphClass: 2
Flags: W
LayerCount: 2
Fore
SplineSet
428 53 m 0,0,1
 420 22 420 22 393.5 4 c 128,-1,2
 367 -14 367 -14 339 -19.5 c 128,-1,3
 311 -25 311 -25 285 -23 c 0,4,5
 283 -23 283 -23 276 -23 c 0,6,7
 260 -23 260 -23 249 -21.5 c 128,-1,8
 238 -20 238 -20 219.5 -16 c 128,-1,9
 201 -12 201 -12 188.5 -4 c 128,-1,10
 176 4 176 4 166 21.5 c 128,-1,11
 156 39 156 39 152 63 c 0,12,13
 152 65 152 65 130.5 190 c 128,-1,14
 109 315 109 315 98 414 c 0,15,16
 73 650 73 650 18 1294 c 0,17,18
 8 1423 8 1423 78 1454 c 0,19,20
 94 1462 94 1462 114.5 1460 c 128,-1,21
 135 1458 135 1458 153.5 1450 c 128,-1,22
 172 1442 172 1442 184.5 1418.5 c 128,-1,23
 197 1395 197 1395 195 1364 c 0,24,25
 193 1247 193 1247 260 492 c 0,26,27
 266 422 266 422 280.5 301 c 128,-1,28
 295 180 295 180 299 154 c 1,29,30
 307 215 307 215 327.5 391 c 128,-1,31
 348 567 348 567 365.5 708.5 c 128,-1,32
 383 850 383 850 404.5 1010.5 c 128,-1,33
 426 1171 426 1171 443.5 1275.5 c 128,-1,34
 461 1380 461 1380 471 1407 c 0,35,36
 494 1456 494 1456 586 1456 c 0,37,38
 627 1458 627 1458 653.5 1444 c 128,-1,39
 680 1430 680 1430 686 1403 c 0,40,41
 694 1368 694 1368 707.5 1280 c 128,-1,42
 721 1192 721 1192 731 1109 c 128,-1,43
 741 1026 741 1026 758.5 873.5 c 128,-1,44
 776 721 776 721 786 639 c 0,45,46
 800 518 800 518 848 238 c 1,47,48
 883 527 883 527 913 1010 c 0,49,50
 929 1254 929 1254 928 1321 c 0,51,52
 926 1387 926 1387 954.5 1424.5 c 128,-1,53
 983 1462 983 1462 1024 1460 c 0,54,55
 1100 1458 1100 1458 1098 1311 c 0,56,57
 1098 1205 1098 1205 1077 989 c 0,58,59
 1061 790 1061 790 1052.5 702 c 128,-1,60
 1044 614 1044 614 1027 443 c 128,-1,61
 1010 272 1010 272 994.5 180 c 128,-1,62
 979 88 979 88 963 57 c 0,63,64
 943 14 943 14 898.5 -6.5 c 128,-1,65
 854 -27 854 -27 815 -23 c 1,66,67
 725 -23 725 -23 702 53 c 0,68,69
 653 248 653 248 625 575 c 0,70,71
 617 663 617 663 597.5 888.5 c 128,-1,72
 578 1114 578 1114 567 1198 c 1,73,74
 536 868 536 868 496.5 512.5 c 128,-1,75
 457 157 457 157 428 53 c 0,0,1
EndSplineSet
EndChar

StartChar: X
Encoding: 88 88 59
Width: 1114
GlyphClass: 2
Flags: W
LayerCount: 2
Fore
SplineSet
209 0 m 0,0,1
 184 -33 184 -33 156.5 -43 c 128,-1,2
 129 -53 129 -53 107.5 -46 c 128,-1,3
 86 -39 86 -39 66 -20 c 0,4,5
 7 35 7 35 61 129 c 0,6,7
 77 156 77 156 231 391.5 c 128,-1,8
 385 627 385 627 449 735 c 1,9,-1
 96 1266 l 2,10,11
 30 1366 30 1366 94 1419 c 0,12,13
 114 1435 114 1435 140 1442.5 c 128,-1,14
 166 1450 166 1450 198.5 1437.5 c 128,-1,15
 231 1425 231 1425 258 1391 c 0,16,17
 324 1305 324 1305 582 883 c 1,18,19
 820 1309 820 1309 883 1399 c 0,20,21
 906 1432 906 1432 933.5 1444 c 128,-1,22
 961 1456 961 1456 984.5 1452 c 128,-1,23
 1008 1448 1008 1448 1026 1433.5 c 128,-1,24
 1044 1419 1044 1419 1053.5 1399.5 c 128,-1,25
 1063 1380 1063 1380 1061 1351.5 c 128,-1,26
 1059 1323 1059 1323 1040 1294 c 0,27,28
 1026 1269 1026 1269 884.5 1042 c 128,-1,29
 743 815 743 815 692 727 c 0,30,31
 692 727 692 727 689 723 c 128,-1,32
 686 719 686 719 684 717 c 0,33,34
 733 637 733 637 865 415 c 128,-1,35
 997 193 997 193 1040 133 c 0,36,37
 1067 96 1067 96 1076 69.5 c 128,-1,38
 1085 43 1085 43 1082 24.5 c 128,-1,39
 1079 6 1079 6 1065 -10 c 0,40,41
 1047 -30 1047 -30 1023 -39.5 c 128,-1,42
 999 -49 999 -49 966 -38 c 0,43,44
 934 -27 934 -27 897 10 c 0,45,46
 858 53 858 53 801.5 143 c 128,-1,47
 745 233 745 233 667.5 374.5 c 128,-1,48
 590 516 590 516 555 573 c 1,49,50
 489 479 489 479 358 251 c 128,-1,51
 227 23 227 23 209 0 c 0,0,1
EndSplineSet
EndChar

StartChar: Y
Encoding: 89 89 60
Width: 1114
GlyphClass: 2
Flags: W
LayerCount: 2
Fore
SplineSet
428 -25 m 0,0,1
 410 -64 410 -64 370 -77 c 128,-1,2
 330 -90 330 -90 289 -61 c 0,3,4
 269 -47 269 -47 257.5 -26.5 c 128,-1,5
 246 -6 246 -6 244 20.5 c 128,-1,6
 242 47 242 47 258 78 c 2,7,-1
 473 502 l 1,8,9
 434 576 434 576 366.5 692.5 c 128,-1,10
 299 809 299 809 276 852 c 0,11,12
 249 901 249 901 195 991 c 128,-1,13
 141 1081 141 1081 106.5 1146.5 c 128,-1,14
 72 1212 72 1212 47 1278 c 0,15,16
 29 1325 29 1325 34 1359 c 128,-1,17
 39 1393 39 1393 53.5 1413.5 c 128,-1,18
 68 1434 68 1434 92 1444 c 0,19,20
 110 1452 110 1452 131 1454 c 128,-1,21
 152 1456 152 1456 174.5 1449 c 128,-1,22
 197 1442 197 1442 216.5 1417.5 c 128,-1,23
 236 1393 236 1393 248 1354 c 0,24,25
 260 1313 260 1313 276.5 1272 c 128,-1,26
 293 1231 293 1231 304 1204.5 c 128,-1,27
 315 1178 315 1178 342 1128.5 c 128,-1,28
 369 1079 369 1079 375 1068 c 128,-1,29
 381 1057 381 1057 415 999.5 c 128,-1,30
 449 942 449 942 449 940 c 0,31,32
 519 819 519 819 569 700 c 1,33,34
 575 712 575 712 608 784 c 0,35,36
 637 847 637 847 708.5 991 c 128,-1,37
 780 1135 780 1135 813 1214 c 0,38,39
 823 1239 823 1239 848.5 1289 c 128,-1,40
 874 1339 874 1339 885 1366 c 0,41,42
 897 1401 897 1401 916.5 1424.5 c 128,-1,43
 936 1448 936 1448 956.5 1456 c 128,-1,44
 977 1464 977 1464 996.5 1464 c 128,-1,45
 1016 1464 1016 1464 1034 1456 c 0,46,47
 1050 1448 1050 1448 1063.5 1434.5 c 128,-1,48
 1077 1421 1077 1421 1086.5 1400.5 c 128,-1,49
 1096 1380 1096 1380 1095 1351.5 c 128,-1,50
 1094 1323 1094 1323 1079 1288 c 0,51,52
 1069 1263 1069 1263 1038.5 1205 c 128,-1,53
 1008 1147 1008 1147 991 1110 c 0,54,55
 973 1067 973 1067 915.5 958.5 c 128,-1,56
 858 850 858 850 825 780 c 0,57,58
 790 704 790 704 741 602 c 128,-1,59
 692 500 692 500 662.5 438.5 c 128,-1,60
 633 377 633 377 545 203.5 c 128,-1,61
 457 30 457 30 428 -25 c 0,0,1
EndSplineSet
EndChar

StartChar: Z
Encoding: 90 90 61
Width: 1114
GlyphClass: 2
Flags: W
LayerCount: 2
Fore
SplineSet
1079 78 m 0,0,1
 1081 37 1081 37 1057.5 9.5 c 128,-1,2
 1034 -18 1034 -18 973 -18 c 0,3,4
 959 -18 959 -18 780.5 -13 c 128,-1,5
 602 -8 602 -8 454.5 -7 c 128,-1,6
 307 -6 307 -6 141 -10 c 0,7,8
 104 -10 104 -10 78.5 30 c 128,-1,9
 53 70 53 70 53 106 c 0,10,11
 53 155 53 155 137 309 c 0,12,13
 203 426 203 426 435.5 770 c 128,-1,14
 668 1114 668 1114 786 1272 c 1,15,16
 682 1270 682 1270 462 1267 c 128,-1,17
 242 1264 242 1264 170 1260 c 0,18,19
 125 1258 125 1258 103.5 1284.5 c 128,-1,20
 82 1311 82 1311 82 1348 c 0,21,22
 80 1387 80 1387 117 1418.5 c 128,-1,23
 154 1450 154 1450 205 1450 c 0,24,25
 250 1450 250 1450 330 1437.5 c 128,-1,26
 410 1425 410 1425 461 1425 c 0,27,28
 551 1425 551 1425 641 1428.5 c 128,-1,29
 731 1432 731 1432 847 1440 c 128,-1,30
 963 1448 963 1448 977 1448 c 0,31,32
 1012 1450 1012 1450 1037.5 1418 c 128,-1,33
 1063 1386 1063 1386 1065 1343 c 0,34,35
 1065 1327 1065 1327 1039.5 1294.5 c 128,-1,36
 1014 1262 1014 1262 976 1222 c 128,-1,37
 938 1182 938 1182 926 1157 c 0,38,39
 863 1055 863 1055 730.5 865.5 c 128,-1,40
 598 676 598 676 474 489.5 c 128,-1,41
 350 303 350 303 274 158 c 1,42,43
 503 172 503 172 695 172 c 128,-1,44
 887 172 887 172 977 160 c 0,45,46
 1034 150 1034 150 1055.5 130.5 c 128,-1,47
 1077 111 1077 111 1079 78 c 0,0,1
EndSplineSet
EndChar

StartChar: bracketleft
Encoding: 91 91 62
Width: 1114
GlyphClass: 2
Flags: W
LayerCount: 2
Fore
SplineSet
872 -174 m 0,0,1
 819 -168 819 -168 743.5 -168 c 128,-1,2
 668 -168 668 -168 604.5 -171 c 128,-1,3
 541 -174 541 -174 458 -178 c 128,-1,4
 375 -182 375 -182 322 -182 c 0,5,6
 271 -182 271 -182 244 -161.5 c 128,-1,7
 217 -141 217 -141 217 -106 c 0,8,9
 217 -88 217 -88 223 -68 c 1,10,-1
 223 -47 l 1,11,12
 231 57 231 57 237.5 333.5 c 128,-1,13
 244 610 244 610 238 887 c 0,14,15
 236 953 236 953 234.5 1034.5 c 128,-1,16
 233 1116 233 1116 234.5 1204 c 128,-1,17
 236 1292 236 1292 237 1356.5 c 128,-1,18
 238 1421 238 1421 240 1500 c 128,-1,19
 242 1579 242 1579 242 1593 c 2,20,-1
 242 1606 l 1,21,22
 234 1622 234 1622 231 1645 c 0,23,24
 229 1682 229 1682 256 1708.5 c 128,-1,25
 283 1735 283 1735 336 1735 c 0,26,27
 496 1739 496 1739 625 1739 c 128,-1,28
 754 1739 754 1739 860 1743 c 0,29,30
 907 1743 907 1743 929.5 1718.5 c 128,-1,31
 952 1694 952 1694 954 1659 c 0,32,33
 954 1643 954 1643 949 1624.5 c 128,-1,34
 944 1606 944 1606 933 1589.5 c 128,-1,35
 922 1573 922 1573 902.5 1564.5 c 128,-1,36
 883 1556 883 1556 856 1561 c 0,37,38
 735 1577 735 1577 438 1569 c 1,39,40
 438 1526 438 1526 432 1347.5 c 128,-1,41
 426 1169 426 1169 425 1050.5 c 128,-1,42
 424 932 424 932 426 768 c 0,43,44
 430 645 430 645 426 343 c 128,-1,45
 422 41 422 41 424 -20 c 1,46,47
 547 -22 547 -22 701.5 -15 c 128,-1,48
 856 -8 856 -8 872 -8 c 0,49,50
 919 -8 919 -8 938.5 -28.5 c 128,-1,51
 958 -49 958 -49 961 -86 c 0,52,53
 961 -104 961 -104 956.5 -119.5 c 128,-1,54
 952 -135 952 -135 943 -150.5 c 128,-1,55
 934 -166 934 -166 916.5 -172 c 128,-1,56
 899 -178 899 -178 872 -174 c 0,0,1
EndSplineSet
EndChar

StartChar: backslash
Encoding: 92 92 63
Width: 1114
GlyphClass: 2
Flags: W
LayerCount: 2
Fore
SplineSet
657 365 m 0,0,1
 606 463 606 463 359.5 871.5 c 128,-1,2
 113 1280 113 1280 59 1384 c 0,3,4
 34 1435 34 1435 44.5 1473 c 128,-1,5
 55 1511 55 1511 92 1532 c 0,6,7
 119 1542 119 1542 145.5 1543 c 128,-1,8
 172 1544 172 1544 200.5 1526.5 c 128,-1,9
 229 1509 229 1509 246 1477 c 0,10,11
 396 1178 396 1178 528 944 c 0,12,13
 741 561 741 561 1040 70 c 0,14,15
 1069 21 1069 21 1064 -37.5 c 128,-1,16
 1059 -96 1059 -96 1026 -115 c 0,17,18
 989 -140 989 -140 939 -116 c 128,-1,19
 889 -92 889 -92 856 -35 c 0,20,21
 838 -2 838 -2 765 150 c 128,-1,22
 692 302 692 302 657 365 c 0,0,1
EndSplineSet
EndChar

StartChar: bracketright
Encoding: 93 93 64
Width: 1114
GlyphClass: 2
Flags: W
LayerCount: 2
Fore
SplineSet
956 -106 m 0,0,1
 956 -141 956 -141 930.5 -161.5 c 128,-1,2
 905 -182 905 -182 852 -182 c 256,3,4
 799 -182 799 -182 717 -178 c 128,-1,5
 635 -174 635 -174 571.5 -171 c 128,-1,6
 508 -168 508 -168 432 -168 c 128,-1,7
 356 -168 356 -168 301 -174 c 0,8,9
 276 -178 276 -178 258 -172 c 128,-1,10
 240 -166 240 -166 230.5 -150.5 c 128,-1,11
 221 -135 221 -135 218 -119.5 c 128,-1,12
 215 -104 215 -104 215 -86 c 0,13,14
 217 -51 217 -51 235.5 -29.5 c 128,-1,15
 254 -8 254 -8 301 -8 c 0,16,17
 315 -8 315 -8 472 -15.5 c 128,-1,18
 629 -23 629 -23 752 -20 c 1,19,20
 752 41 752 41 748.5 343 c 128,-1,21
 745 645 745 645 750 768 c 0,22,23
 752 934 752 934 750 1051.5 c 128,-1,24
 748 1169 748 1169 742.5 1347.5 c 128,-1,25
 737 1526 737 1526 735 1569 c 1,26,27
 436 1577 436 1577 317 1561 c 0,28,29
 290 1557 290 1557 271 1565 c 128,-1,30
 252 1573 252 1573 240.5 1589.5 c 128,-1,31
 229 1606 229 1606 224 1623 c 128,-1,32
 219 1640 219 1640 219 1659 c 0,33,34
 221 1696 221 1696 242.5 1719.5 c 128,-1,35
 264 1743 264 1743 313 1743 c 0,36,37
 419 1741 419 1741 550.5 1741 c 128,-1,38
 682 1741 682 1741 840 1735 c 0,39,40
 893 1735 893 1735 918.5 1708 c 128,-1,41
 944 1681 944 1681 942 1645 c 0,42,43
 942 1622 942 1622 934 1606 c 1,44,-1
 934 1593 l 2,45,46
 934 1581 934 1581 936 1501 c 128,-1,47
 938 1421 938 1421 938 1356.5 c 128,-1,48
 938 1292 938 1292 940 1204 c 128,-1,49
 942 1116 942 1116 941 1034 c 128,-1,50
 940 952 940 952 938 887 c 0,51,52
 932 611 932 611 937 334 c 128,-1,53
 942 57 942 57 950 -47 c 1,54,-1
 950 -68 l 1,55,56
 956 -88 956 -88 956 -106 c 0,0,1
EndSplineSet
EndChar

StartChar: asciicircum
Encoding: 94 94 65
Width: 1114
GlyphClass: 2
Flags: W
LayerCount: 2
Fore
SplineSet
238 1319 m 0,0,1
 230 1311 230 1311 215 1296 c 0,2,3
 168 1243 168 1243 145.5 1227.5 c 128,-1,4
 123 1212 123 1212 94 1225 c 0,5,6
 78 1233 78 1233 62.5 1248.5 c 128,-1,7
 47 1264 47 1264 35 1285.5 c 128,-1,8
 23 1307 23 1307 27 1335.5 c 128,-1,9
 31 1364 31 1364 53 1393 c 0,10,11
 94 1446 94 1446 160.5 1521.5 c 128,-1,12
 227 1597 227 1597 308 1692.5 c 128,-1,13
 389 1788 389 1788 471 1896 c 0,14,15
 489 1923 489 1923 525 1931 c 128,-1,16
 561 1939 561 1939 595 1930 c 128,-1,17
 629 1921 629 1921 643 1894 c 0,18,19
 721 1790 721 1790 778.5 1719.5 c 128,-1,20
 836 1649 836 1649 866.5 1615 c 128,-1,21
 897 1581 897 1581 956.5 1519.5 c 128,-1,22
 1016 1458 1016 1458 1065 1405 c 0,23,24
 1090 1378 1090 1378 1093 1349.5 c 128,-1,25
 1096 1321 1096 1321 1081.5 1299.5 c 128,-1,26
 1067 1278 1067 1278 1049.5 1261.5 c 128,-1,27
 1032 1245 1032 1245 1014 1237 c 0,28,29
 985 1223 985 1223 960.5 1239 c 128,-1,30
 936 1255 936 1255 881 1313 c 0,31,32
 867 1327 867 1327 858 1333 c 0,33,34
 737 1456 737 1456 691 1509.5 c 128,-1,35
 645 1563 645 1563 563 1677 c 1,36,37
 508 1601 508 1601 465 1551 c 128,-1,38
 422 1501 422 1501 395.5 1477.5 c 128,-1,39
 369 1454 369 1454 325 1411 c 128,-1,40
 281 1368 281 1368 238 1319 c 0,0,1
EndSplineSet
EndChar

StartChar: underscore
Encoding: 95 95 66
Width: 1114
GlyphClass: 2
Flags: W
LayerCount: 2
Fore
SplineSet
135 -31 m 0,0,1
 356 -33 356 -33 488.5 -33 c 128,-1,2
 621 -33 621 -33 782.5 -31 c 128,-1,3
 944 -29 944 -29 981 -29 c 0,4,5
 1028 -29 1028 -29 1047.5 -51.5 c 128,-1,6
 1067 -74 1067 -74 1069 -111 c 0,7,8
 1069 -199 1069 -199 981 -199 c 0,9,10
 934 -199 934 -199 603 -202 c 128,-1,11
 272 -205 272 -205 137 -205 c 0,12,13
 49 -205 49 -205 49 -117 c 0,14,15
 45 -29 45 -29 135 -31 c 0,0,1
EndSplineSet
EndChar

StartChar: grave
Encoding: 96 96 67
Width: 1114
GlyphClass: 2
Flags: W
LayerCount: 2
Fore
SplineSet
612 1298 m 0,0,1
 606 1302 606 1302 552 1332 c 128,-1,2
 498 1362 498 1362 470 1378.5 c 128,-1,3
 442 1395 442 1395 398 1422.5 c 128,-1,4
 354 1450 354 1450 324 1475 c 0,5,6
 301 1493 301 1493 288.5 1520.5 c 128,-1,7
 276 1548 276 1548 277.5 1571.5 c 128,-1,8
 279 1595 279 1595 287 1616 c 0,9,10
 307 1647 307 1647 353 1656 c 128,-1,11
 399 1665 399 1665 438 1638 c 0,12,13
 444 1632 444 1632 494.5 1592 c 128,-1,14
 545 1552 545 1552 566.5 1536 c 128,-1,15
 588 1520 588 1520 628 1493 c 128,-1,16
 668 1466 668 1466 696 1450 c 0,17,18
 741 1425 741 1425 761.5 1383 c 128,-1,19
 782 1341 782 1341 766 1315 c 0,20,21
 748 1286 748 1286 705.5 1278.5 c 128,-1,22
 663 1271 663 1271 612 1298 c 0,0,1
EndSplineSet
EndChar

StartChar: a
Encoding: 97 97 68
Width: 1114
GlyphClass: 2
Flags: W
LayerCount: 2
Fore
SplineSet
1018 -29 m 1024,0,1
180 848 m 0,2,3
 207 887 207 887 248 922 c 0,4,5
 283 953 283 953 336 978.5 c 128,-1,6
 389 1004 389 1004 469 1024 c 0,7,8
 549 1044 549 1044 651 1044 c 0,9,10
 844 1040 844 1040 905 948 c 0,11,12
 995 809 995 809 999 551 c 0,13,14
 999 490 999 490 995 291 c 0,15,16
 995 246 995 246 1014 92 c 0,17,18
 1037 -78 1037 -78 975 -78 c 0,19,20
 891 -78 891 -78 881 -37 c 0,21,22
 836 141 836 141 834 141 c 0,23,24
 766 28 766 28 688 -18 c 0,25,26
 625 -57 625 -57 483 -57 c 0,27,28
 420 -57 420 -57 344 -22.5 c 128,-1,29
 268 12 268 12 213 85 c 128,-1,30
 158 158 158 158 131 233 c 1,31,32
 131 286 131 286 143 348 c 0,33,34
 157 414 157 414 205 461 c 0,35,36
 268 527 268 527 295 539 c 0,37,38
 399 594 399 594 418 600 c 0,39,40
 574 643 574 643 580 643 c 0,41,42
 684 655 684 655 711 662 c 0,43,44
 721 664 721 664 809 696 c 1,45,46
 817 723 817 723 811 756 c 0,47,48
 809 770 809 770 793 793 c 4,49,50
 768 824 768 824 737 840 c 0,51,52
 708 856 708 856 639 860 c 0,53,54
 584 864 584 864 528.5 847.5 c 128,-1,55
 473 831 473 831 437 808.5 c 128,-1,56
 401 786 401 786 379 768 c 0,57,58
 359 750 359 750 350 741 c 0,59,60
 270 635 270 635 193 688 c 0,61,62
 108 746 108 746 180 848 c 0,2,3
526 102 m 0,63,64
 561 102 561 102 597 114.5 c 128,-1,65
 633 127 633 127 670 155.5 c 128,-1,66
 707 184 707 184 735.5 224 c 128,-1,67
 764 264 764 264 784.5 326.5 c 128,-1,68
 805 389 805 389 809 465 c 1,69,70
 408 430 408 430 311 270 c 1,71,72
 358 178 358 178 410.5 140 c 128,-1,73
 463 102 463 102 526 102 c 0,63,64
EndSplineSet
EndChar

StartChar: b
Encoding: 98 98 69
Width: 1114
GlyphClass: 2
Flags: W
LayerCount: 2
Fore
SplineSet
1063 565 m 0,0,1
 1065 452 1065 452 1041.5 355 c 128,-1,2
 1018 258 1018 258 975 188.5 c 128,-1,3
 932 119 932 119 873.5 69.5 c 128,-1,4
 815 20 815 20 750.5 -4.5 c 128,-1,5
 686 -29 686 -29 618 -29 c 0,6,7
 434 -29 434 -29 307 68 c 1,8,9
 303 19 303 19 278.5 -0.5 c 128,-1,10
 254 -20 254 -20 217 -23 c 0,11,12
 117 -27 117 -27 117 90 c 0,13,14
 115 342 115 342 116 813 c 128,-1,15
 117 1284 117 1284 123 1458 c 0,16,17
 123 1521 123 1521 146.5 1546 c 128,-1,18
 170 1571 170 1571 211 1573 c 0,19,20
 258 1577 258 1577 288.5 1551.5 c 128,-1,21
 319 1526 319 1526 317 1458 c 0,22,23
 317 1442 317 1442 316 1273 c 128,-1,24
 315 1104 315 1104 315 975 c 1,25,26
 450 1067 450 1067 633 1067 c 0,27,28
 766 1065 766 1065 865.5 1000.5 c 128,-1,29
 965 936 965 936 1015 823 c 128,-1,30
 1065 710 1065 710 1063 565 c 0,0,1
588 897 m 0,31,32
 445 903 445 903 313 791 c 1,33,34
 313 529 313 529 309 233 c 1,35,36
 354 186 354 186 415.5 166.5 c 128,-1,37
 477 147 477 147 561 147 c 0,38,39
 708 147 708 147 787 256 c 128,-1,40
 866 365 866 365 864 549 c 0,41,42
 862 641 862 641 831.5 718 c 128,-1,43
 801 795 801 795 737.5 845 c 128,-1,44
 674 895 674 895 588 897 c 0,31,32
EndSplineSet
EndChar

StartChar: c
Encoding: 99 99 70
Width: 1114
GlyphClass: 2
Flags: W
LayerCount: 2
Fore
SplineSet
987 815 m 0,0,1
 1020 698 1020 698 926 659 c 0,2,3
 903 651 903 651 883.5 650 c 128,-1,4
 864 649 864 649 844.5 655.5 c 128,-1,5
 825 662 825 662 809 681 c 128,-1,6
 793 700 793 700 782 731 c 0,7,8
 780 741 780 741 773 764.5 c 128,-1,9
 766 788 766 788 762 799.5 c 128,-1,10
 758 811 758 811 749.5 828.5 c 128,-1,11
 741 846 741 846 732 855 c 128,-1,12
 723 864 723 864 708.5 874.5 c 128,-1,13
 694 885 694 885 675.5 890 c 128,-1,14
 657 895 657 895 633 895 c 0,15,16
 596 895 596 895 558 881.5 c 128,-1,17
 520 868 520 868 478 836.5 c 128,-1,18
 436 805 436 805 402.5 756 c 128,-1,19
 369 707 369 707 344 628 c 128,-1,20
 319 549 319 549 313 449 c 0,21,22
 297 134 297 134 549 121 c 0,23,24
 658 117 658 117 728.5 147.5 c 128,-1,25
 799 178 799 178 815 217 c 0,26,27
 829 252 829 252 847.5 272.5 c 128,-1,28
 866 293 866 293 885.5 299 c 128,-1,29
 905 305 905 305 923.5 303 c 128,-1,30
 942 301 942 301 963 295 c 0,31,32
 1053 256 1053 256 999 145 c 0,33,34
 981 108 981 108 945 73.5 c 128,-1,35
 909 39 909 39 853 6 c 128,-1,36
 797 -27 797 -27 711 -46.5 c 128,-1,37
 625 -66 625 -66 524 -63 c 0,38,39
 424 -61 424 -61 342 -23.5 c 128,-1,40
 260 14 260 14 209 76.5 c 128,-1,41
 158 139 158 139 130 218 c 128,-1,42
 102 297 102 297 104 381 c 0,43,44
 106 520 106 520 138 637 c 128,-1,45
 170 754 170 754 224.5 834.5 c 128,-1,46
 279 915 279 915 351.5 970.5 c 128,-1,47
 424 1026 424 1026 507 1052.5 c 128,-1,48
 590 1079 590 1079 680 1079 c 0,49,50
 789 1079 789 1079 873.5 1000 c 128,-1,51
 958 921 958 921 987 815 c 0,0,1
EndSplineSet
EndChar

StartChar: d
Encoding: 100 100 71
Width: 1114
GlyphClass: 2
Flags: W
LayerCount: 2
Fore
SplineSet
981 -18 m 0,0,1
 920 -30 920 -30 888 11.5 c 128,-1,2
 856 53 856 53 850 131 c 1,3,4
 827 98 827 98 801.5 71.5 c 128,-1,5
 776 45 776 45 740.5 21.5 c 128,-1,6
 705 -2 705 -2 654.5 -15.5 c 128,-1,7
 604 -29 604 -29 547 -29 c 0,8,9
 477 -29 477 -29 410.5 -5.5 c 128,-1,10
 344 18 344 18 283.5 66.5 c 128,-1,11
 223 115 223 115 178 183.5 c 128,-1,12
 133 252 133 252 108.5 349 c 128,-1,13
 84 446 84 446 86 559 c 0,14,15
 84 696 84 696 137 805.5 c 128,-1,16
 190 915 190 915 292.5 979.5 c 128,-1,17
 395 1044 395 1044 530 1047 c 0,18,19
 716 1047 716 1047 846 961 c 1,20,21
 848 1340 848 1340 858 1448 c 0,22,23
 868 1575 868 1575 969 1575 c 0,24,25
 1012 1573 1012 1573 1035.5 1546.5 c 128,-1,26
 1059 1520 1059 1520 1055 1448 c 0,27,28
 1049 1325 1049 1325 1037.5 996.5 c 128,-1,29
 1026 668 1026 668 1026 498 c 0,30,31
 1028 383 1028 383 1037.5 297 c 128,-1,32
 1047 211 1047 211 1056 175 c 128,-1,33
 1065 139 1065 139 1070 112.5 c 128,-1,34
 1075 86 1075 86 1073 68 c 0,35,36
 1063 -2 1063 -2 981 -18 c 0,0,1
565 154 m 0,37,38
 600 154 600 154 629.5 160 c 128,-1,39
 659 166 659 166 680.5 174 c 128,-1,40
 702 182 702 182 723.5 198.5 c 128,-1,41
 745 215 745 215 758.5 228.5 c 128,-1,42
 772 242 772 242 788.5 264.5 c 128,-1,43
 805 287 805 287 812 299 c 128,-1,44
 819 311 819 311 834 336 c 0,45,46
 838 342 838 342 840 346 c 0,47,48
 840 369 840 369 839 410 c 128,-1,49
 838 451 838 451 838 486.5 c 128,-1,50
 838 522 838 522 840 555 c 0,51,52
 840 578 840 578 841 624 c 128,-1,53
 842 670 842 670 842 692 c 1,54,55
 795 770 795 770 720 820 c 128,-1,56
 645 870 645 870 561 868 c 0,57,58
 475 864 475 864 411.5 817 c 128,-1,59
 348 770 348 770 316.5 698.5 c 128,-1,60
 285 627 285 627 283 541 c 0,61,62
 281 359 281 359 355.5 256.5 c 128,-1,63
 430 154 430 154 565 154 c 0,37,38
EndSplineSet
EndChar

StartChar: e
Encoding: 101 101 72
Width: 1114
GlyphClass: 2
Flags: W
LayerCount: 2
Fore
SplineSet
1006 123 m 0,0,1
 973 80 973 80 938 49 c 128,-1,2
 903 18 903 18 850 -8.5 c 128,-1,3
 797 -35 797 -35 718 -47 c 128,-1,4
 639 -59 639 -59 537 -57 c 0,5,6
 332 -55 332 -55 219 89 c 128,-1,7
 106 233 106 233 111 485 c 0,8,9
 113 622 113 622 154 733 c 128,-1,10
 195 844 195 844 264.5 916.5 c 128,-1,11
 334 989 334 989 429 1028 c 128,-1,12
 524 1067 524 1067 635 1067 c 0,13,14
 698 1067 698 1067 774 1032 c 128,-1,15
 850 997 850 997 915.5 931.5 c 128,-1,16
 981 866 981 866 1008 791 c 1,17,18
 1018 740 1018 740 980 680.5 c 128,-1,19
 942 621 942 621 899 590 c 0,20,21
 860 561 860 561 802.5 531.5 c 128,-1,22
 745 502 745 502 671.5 472 c 128,-1,23
 598 442 598 442 546 422.5 c 128,-1,24
 494 403 494 403 415 375.5 c 128,-1,25
 336 348 336 348 315 342 c 1,26,27
 323 293 323 293 338.5 253 c 128,-1,28
 354 213 354 213 381 181.5 c 128,-1,29
 408 150 408 150 450 131.5 c 128,-1,30
 492 113 492 113 549 111 c 0,31,32
 604 109 604 109 658.5 123 c 128,-1,33
 713 137 713 137 748.5 160.5 c 128,-1,34
 784 184 784 184 806.5 201.5 c 128,-1,35
 829 219 829 219 838 229 c 0,36,37
 918 335 918 335 995 283 c 0,38,39
 1080 223 1080 223 1006 123 c 0,0,1
592 907 m 0,40,41
 557 907 557 907 521 895 c 128,-1,42
 485 883 485 883 448.5 854 c 128,-1,43
 412 825 412 825 383 785 c 128,-1,44
 354 745 354 745 333.5 683 c 128,-1,45
 313 621 313 621 309 547 c 1,46,47
 700 643 700 643 807 739 c 1,48,49
 760 831 760 831 707.5 869 c 128,-1,50
 655 907 655 907 592 907 c 0,40,41
EndSplineSet
EndChar

StartChar: f
Encoding: 102 102 73
Width: 1114
GlyphClass: 2
Flags: W
LayerCount: 2
Fore
SplineSet
813 -33 m 0,0,1
 811 -33 811 -33 675 -35 c 128,-1,2
 539 -37 539 -37 420 -36 c 128,-1,3
 301 -35 301 -35 227 -29 c 0,4,5
 172 -29 172 -29 148.5 0 c 128,-1,6
 125 29 125 29 127 68 c 0,7,8
 127 107 127 107 150.5 132.5 c 128,-1,9
 174 158 174 158 229 156 c 0,10,11
 252 154 252 154 297 153 c 128,-1,12
 342 152 342 152 365 152 c 1,13,14
 367 189 367 189 360.5 222.5 c 128,-1,15
 354 256 354 256 354 301 c 0,16,17
 354 340 354 340 350 418 c 128,-1,18
 346 496 346 496 339 626 c 128,-1,19
 332 756 332 756 330 827 c 1,20,21
 291 825 291 825 227 825 c 0,22,23
 139 825 139 825 139 913 c 0,24,25
 135 1001 135 1001 225 1004 c 2,26,-1
 324 1004 l 1,27,28
 322 1037 322 1037 322 1098 c 0,29,30
 322 1196 322 1196 353.5 1276 c 128,-1,31
 385 1356 385 1356 437 1409 c 128,-1,32
 489 1462 489 1462 563 1498 c 128,-1,33
 637 1534 637 1534 720 1550.5 c 128,-1,34
 803 1567 803 1567 897 1567 c 0,35,36
 940 1567 940 1567 967.5 1546.5 c 128,-1,37
 995 1526 995 1526 995 1485 c 0,38,39
 995 1444 995 1444 972.5 1416.5 c 128,-1,40
 950 1389 950 1389 918 1389 c 0,41,42
 736 1389 736 1389 625 1303 c 128,-1,43
 514 1217 514 1217 514 1077 c 0,44,45
 514 1034 514 1034 516 1006 c 1,46,47
 840 1010 840 1010 883 1010 c 0,48,49
 930 1010 930 1010 949.5 989.5 c 128,-1,50
 969 969 969 969 971 934 c 0,51,52
 971 844 971 844 883 844 c 0,53,54
 860 844 860 844 806 842 c 128,-1,55
 752 840 752 840 668 837 c 128,-1,56
 584 834 584 834 524 834 c 1,57,58
 526 781 526 781 535.5 568.5 c 128,-1,59
 545 356 545 356 549 246 c 0,60,61
 551 154 551 154 553 147 c 1,62,63
 731 141 731 141 817 139 c 0,64,65
 868 139 868 139 893 117.5 c 128,-1,66
 918 96 918 96 918 61 c 0,67,68
 918 22 918 22 892 -5.5 c 128,-1,69
 866 -33 866 -33 813 -33 c 0,0,1
EndSplineSet
EndChar

StartChar: g
Encoding: 103 103 74
Width: 1114
GlyphClass: 2
Flags: W
LayerCount: 2
Fore
SplineSet
995 -86 m 0,0,1
 985 -188 985 -188 949 -272 c 128,-1,2
 913 -356 913 -356 859 -415.5 c 128,-1,3
 805 -475 805 -475 735.5 -517 c 128,-1,4
 666 -559 666 -559 589 -578.5 c 128,-1,5
 512 -598 512 -598 428 -598 c 0,6,7
 365 -598 365 -598 301.5 -579.5 c 128,-1,8
 238 -561 238 -561 197 -541 c 0,9,10
 195 -539 195 -539 182.5 -532.5 c 128,-1,11
 170 -526 170 -526 168 -525 c 128,-1,12
 166 -524 166 -524 156.5 -518 c 128,-1,13
 147 -512 147 -512 145 -510 c 128,-1,14
 143 -508 143 -508 137 -503 c 128,-1,15
 131 -498 131 -498 130 -493.5 c 128,-1,16
 129 -489 129 -489 127 -482 c 128,-1,17
 125 -475 125 -475 124 -468 c 128,-1,18
 123 -461 123 -461 123 -451 c 0,19,20
 123 -410 123 -410 149.5 -383 c 128,-1,21
 176 -356 176 -356 211 -365 c 0,22,23
 225 -367 225 -367 255 -383 c 128,-1,24
 285 -399 285 -399 320.5 -412.5 c 128,-1,25
 356 -426 356 -426 389 -426 c 0,26,27
 493 -426 493 -426 586.5 -383 c 128,-1,28
 680 -340 680 -340 741.5 -258 c 128,-1,29
 803 -176 803 -176 817 -74 c 0,30,31
 823 -31 823 -31 827 78 c 1,32,33
 725 -63 725 -63 500 -63 c 1,34,35
 299 -59 299 -59 208 72 c 128,-1,36
 117 203 117 203 117 461 c 0,37,38
 119 584 119 584 150.5 683 c 128,-1,39
 182 782 182 782 236.5 848.5 c 128,-1,40
 291 915 291 915 364.5 959.5 c 128,-1,41
 438 1004 438 1004 519 1023 c 128,-1,42
 600 1042 600 1042 692 1042 c 0,43,44
 801 1042 801 1042 848 1033 c 128,-1,45
 895 1024 895 1024 942 999 c 0,46,47
 960 989 960 989 968.5 968.5 c 128,-1,48
 977 948 977 948 976 927.5 c 128,-1,49
 975 907 975 907 967 895 c 0,50,51
 967 893 967 893 962.5 888 c 128,-1,52
 958 883 958 883 956 881 c 1,53,54
 1007 869 1007 869 1008 803 c 0,55,56
 1008 799 1008 799 1011 573.5 c 128,-1,57
 1014 348 1014 348 1009.5 192.5 c 128,-1,58
 1005 37 1005 37 995 -86 c 0,0,1
311 526 m 0,59,60
 309 460 309 460 310 401 c 128,-1,61
 311 342 311 342 326.5 289 c 128,-1,62
 342 236 342 236 364.5 197 c 128,-1,63
 387 158 387 158 428 136.5 c 128,-1,64
 469 115 469 115 524 117 c 0,65,66
 583 119 583 119 633.5 136.5 c 128,-1,67
 684 154 684 154 718 181.5 c 128,-1,68
 752 209 752 209 776.5 246 c 128,-1,69
 801 283 801 283 814 317.5 c 128,-1,70
 827 352 827 352 834 389 c 1,71,72
 834 448 834 448 835 584.5 c 128,-1,73
 836 721 836 721 838 791 c 0,74,75
 838 816 838 816 850 840 c 1,76,-1
 838 842 l 1,77,78
 729 875 729 875 639 870 c 0,79,80
 596 868 596 868 554 856 c 128,-1,81
 512 844 512 844 469 816 c 128,-1,82
 426 788 426 788 393 750.5 c 128,-1,83
 360 713 360 713 337.5 655.5 c 128,-1,84
 315 598 315 598 311 526 c 0,59,60
EndSplineSet
EndChar

StartChar: h
Encoding: 104 104 75
Width: 1114
GlyphClass: 2
Flags: W
LayerCount: 2
Fore
SplineSet
1018 84 m 0,0,1
 1018 21 1018 21 985 -13 c 128,-1,2
 952 -47 952 -47 909 -45 c 0,3,4
 870 -43 870 -43 837.5 -12.5 c 128,-1,5
 805 18 805 18 805 66 c 0,6,7
 805 123 805 123 808 289 c 128,-1,8
 811 455 811 455 811 559 c 0,9,10
 809 698 809 698 777 773 c 128,-1,11
 745 848 745 848 684 848 c 0,12,13
 623 848 623 848 570.5 827.5 c 128,-1,14
 518 807 518 807 484.5 776 c 128,-1,15
 451 745 451 745 423 706.5 c 128,-1,16
 395 668 395 668 381 630 c 128,-1,17
 367 592 367 592 357.5 555 c 128,-1,18
 348 518 348 518 345 496.5 c 128,-1,19
 342 475 342 475 342 465 c 1,20,-1
 342 467 l 1,21,22
 342 455 342 455 341 427 c 128,-1,23
 340 399 340 399 340 385 c 0,24,25
 340 346 340 346 340 287.5 c 128,-1,26
 340 229 340 229 339 198.5 c 128,-1,27
 338 168 338 168 336 127 c 128,-1,28
 334 86 334 86 330 49 c 0,29,30
 326 6 326 6 289 -19.5 c 128,-1,31
 252 -45 252 -45 209 -43 c 0,32,33
 168 -43 168 -43 141.5 -15.5 c 128,-1,34
 115 12 115 12 119 61 c 0,35,36
 125 145 125 145 134 357 c 128,-1,37
 143 569 143 569 139 647 c 0,38,39
 125 991 125 991 135 1460 c 0,40,41
 135 1515 135 1515 165 1544 c 128,-1,42
 195 1573 195 1573 238 1573 c 0,43,44
 283 1575 283 1575 312.5 1549.5 c 128,-1,45
 342 1524 342 1524 342 1468 c 0,46,47
 342 1241 342 1241 346 834 c 1,48,49
 369 875 369 875 401.5 908.5 c 128,-1,50
 434 942 434 942 482 974 c 128,-1,51
 530 1006 530 1006 600 1023 c 128,-1,52
 670 1040 670 1040 752 1040 c 0,53,54
 820 1040 820 1040 869 1009.5 c 128,-1,55
 918 979 918 979 945.5 923.5 c 128,-1,56
 973 868 973 868 985 799.5 c 128,-1,57
 997 731 997 731 997 651 c 0,58,59
 997 528 997 528 1007.5 341 c 128,-1,60
 1018 154 1018 154 1018 84 c 0,0,1
EndSplineSet
EndChar

StartChar: i
Encoding: 105 105 76
Width: 1114
GlyphClass: 2
Flags: W
LayerCount: 2
Fore
SplineSet
571 1141 m 0,0,1
 495 1135 495 1135 448 1184 c 128,-1,2
 401 1233 401 1233 401 1300 c 0,3,4
 401 1361 401 1361 453.5 1406.5 c 128,-1,5
 506 1452 506 1452 571 1456 c 0,6,7
 643 1458 643 1458 688 1414 c 128,-1,8
 733 1370 733 1370 733 1305 c 0,9,10
 733 1239 733 1239 689 1194 c 128,-1,11
 645 1149 645 1149 571 1141 c 0,0,1
956 -25 m 0,12,13
 921 -25 921 -25 602 -30 c 128,-1,14
 283 -35 283 -35 186 -35 c 0,15,16
 137 -35 137 -35 117.5 -8.5 c 128,-1,17
 98 18 98 18 100 57 c 0,18,19
 100 96 100 96 119.5 118.5 c 128,-1,20
 139 141 139 141 188 141 c 2,21,-1
 506 141 l 1,22,23
 506 235 506 235 504 301 c 0,24,25
 502 354 502 354 502 404.5 c 128,-1,26
 502 455 502 455 503 521.5 c 128,-1,27
 504 588 504 588 505 614.5 c 128,-1,28
 506 641 506 641 509 728 c 128,-1,29
 512 815 512 815 512 827 c 1,30,31
 487 831 487 831 395 828 c 128,-1,32
 303 825 303 825 256 827 c 0,33,34
 217 827 217 827 195.5 850.5 c 128,-1,35
 174 874 174 874 174 905 c 0,36,37
 172 942 172 942 192.5 968.5 c 128,-1,38
 213 995 213 995 254 995 c 0,39,40
 447 1009 447 1009 600 1006 c 0,41,42
 633 1006 633 1006 655.5 992.5 c 128,-1,43
 678 979 678 979 687 956.5 c 128,-1,44
 696 934 696 934 700.5 916.5 c 128,-1,45
 705 899 705 899 705 887 c 0,46,47
 695 758 695 758 692.5 626 c 128,-1,48
 690 494 690 494 693 399.5 c 128,-1,49
 696 305 696 305 705 141 c 1,50,-1
 963 141 l 2,51,52
 1010 141 1010 141 1027 119.5 c 128,-1,53
 1044 98 1044 98 1044 61 c 0,54,55
 1040 -25 1040 -25 956 -25 c 0,12,13
EndSplineSet
EndChar

StartChar: j
Encoding: 106 106 77
Width: 1114
GlyphClass: 2
Flags: W
LayerCount: 2
Fore
SplineSet
762 1133 m 0,0,1
 684 1133 684 1133 641 1186 c 128,-1,2
 598 1239 598 1239 598 1311 c 0,3,4
 598 1372 598 1372 646 1409 c 128,-1,5
 694 1446 694 1446 762 1448 c 0,6,7
 834 1450 834 1450 880 1406 c 128,-1,8
 926 1362 926 1362 926 1295.5 c 128,-1,9
 926 1229 926 1229 880 1181 c 128,-1,10
 834 1133 834 1133 762 1133 c 0,0,1
686 -29 m 0,11,12
 686 -13 686 -13 679 127.5 c 128,-1,13
 672 268 672 268 669 411.5 c 128,-1,14
 666 555 666 555 676 813 c 1,15,16
 647 811 647 811 565 811 c 128,-1,17
 483 811 483 811 381 812 c 128,-1,18
 279 813 279 813 254 813 c 0,19,20
 207 813 207 813 178.5 843.5 c 128,-1,21
 150 874 150 874 152 913 c 0,22,23
 152 944 152 944 179.5 966.5 c 128,-1,24
 207 989 207 989 252 989 c 0,25,26
 324 993 324 993 504 998.5 c 128,-1,27
 684 1004 684 1004 776 1001 c 0,28,29
 807 1001 807 1001 829.5 987 c 128,-1,30
 852 973 852 973 862 951.5 c 128,-1,31
 872 930 872 930 876.5 912.5 c 128,-1,32
 881 895 881 895 881 883 c 0,33,34
 879 863 879 863 872.5 828 c 128,-1,35
 866 793 866 793 864 770.5 c 128,-1,36
 862 748 862 748 862 719 c 0,37,38
 862 668 862 668 869.5 385 c 128,-1,39
 877 102 877 102 877 -55 c 0,40,41
 877 -141 877 -141 855.5 -216 c 128,-1,42
 834 -291 834 -291 798 -344 c 128,-1,43
 762 -397 762 -397 709.5 -440 c 128,-1,44
 657 -483 657 -483 600 -510 c 128,-1,45
 543 -537 543 -537 475.5 -555 c 128,-1,46
 408 -573 408 -573 343.5 -580.5 c 128,-1,47
 279 -588 279 -588 211 -588 c 0,48,49
 168 -588 168 -588 140.5 -566.5 c 128,-1,50
 113 -545 113 -545 113 -506 c 0,51,52
 113 -465 113 -465 139.5 -434 c 128,-1,53
 166 -403 166 -403 199 -403 c 0,54,55
 275 -403 275 -403 344.5 -390 c 128,-1,56
 414 -377 414 -377 476.5 -348 c 128,-1,57
 539 -319 539 -319 585 -276 c 128,-1,58
 631 -233 631 -233 658.5 -170 c 128,-1,59
 686 -107 686 -107 686 -29 c 0,11,12
EndSplineSet
EndChar

StartChar: k
Encoding: 107 107 78
Width: 1114
GlyphClass: 2
Flags: W
LayerCount: 2
Fore
SplineSet
340 66 m 0,0,1
 338 3 338 3 305 -23 c 128,-1,2
 272 -49 272 -49 223 -45 c 0,3,4
 182 -43 182 -43 152.5 -17.5 c 128,-1,5
 123 8 123 8 127 61 c 0,6,7
 135 153 135 153 138 359 c 128,-1,8
 141 565 141 565 141 745.5 c 128,-1,9
 141 926 141 926 139 1168.5 c 128,-1,10
 137 1411 137 1411 137 1470 c 0,11,12
 137 1521 137 1521 170 1547 c 128,-1,13
 203 1573 203 1573 248 1573 c 0,14,15
 291 1573 291 1573 318.5 1548.5 c 128,-1,16
 346 1524 346 1524 346 1473 c 0,17,18
 346 1209 346 1209 334 639 c 1,19,20
 449 743 449 743 622 886.5 c 128,-1,21
 795 1030 795 1030 813 1049 c 0,22,23
 842 1078 842 1078 868.5 1087 c 128,-1,24
 895 1096 895 1096 914.5 1089.5 c 128,-1,25
 934 1083 934 1083 950 1067 c 0,26,27
 1003 1010 1003 1010 934 926 c 0,28,29
 893 879 893 879 639 655 c 1,30,31
 680 581 680 581 785.5 442 c 128,-1,32
 891 303 891 303 973 197.5 c 128,-1,33
 1055 92 1055 92 1057 78 c 0,34,35
 1063 8 1063 8 1010 -27 c 0,36,37
 987 -41 987 -41 965.5 -44 c 128,-1,38
 944 -47 944 -47 919.5 -35 c 128,-1,39
 895 -23 895 -23 874 8 c 0,40,41
 864 24 864 24 808 93 c 128,-1,42
 752 162 752 162 695.5 230.5 c 128,-1,43
 639 299 639 299 581.5 386 c 128,-1,44
 524 473 524 473 500 532 c 1,45,-1
 334 385 l 2,46,47
 332 383 332 383 330 383 c 0,48,49
 328 307 328 307 335 204 c 128,-1,50
 342 101 342 101 340 66 c 0,0,1
EndSplineSet
EndChar

StartChar: l
Encoding: 108 108 79
Width: 1114
GlyphClass: 2
Flags: W
LayerCount: 2
Fore
SplineSet
1069 78 m 0,0,1
 1071 37 1071 37 1047.5 9.5 c 128,-1,2
 1024 -18 1024 -18 963 -18 c 0,3,4
 936 -18 936 -18 598 -14 c 128,-1,5
 260 -10 260 -10 160 -10 c 0,6,7
 115 -10 115 -10 93.5 14.5 c 128,-1,8
 72 39 72 39 72 78 c 0,9,10
 70 119 70 119 91.5 145.5 c 128,-1,11
 113 172 113 172 162 172 c 0,12,13
 254 172 254 172 477 170 c 1,14,15
 477 252 477 252 475 301 c 0,16,17
 471 483 471 483 475 800.5 c 128,-1,18
 479 1118 479 1118 485 1374 c 1,19,20
 419 1370 419 1370 246 1368 c 0,21,22
 203 1368 203 1368 178.5 1397.5 c 128,-1,23
 154 1427 154 1427 156 1466 c 0,24,25
 156 1501 156 1501 178.5 1523.5 c 128,-1,26
 201 1546 201 1546 244 1546 c 0,27,28
 387 1546 387 1546 475 1550 c 128,-1,29
 563 1554 563 1554 629 1552 c 0,30,31
 656 1552 656 1552 666 1524 c 1,32,33
 693 1514 693 1514 692 1491 c 0,34,35
 682 1425 682 1425 675 1144.5 c 128,-1,36
 668 864 668 864 668 725 c 0,37,38
 668 520 668 520 670 383 c 0,39,40
 670 307 670 307 676 162 c 1,41,42
 735 162 735 162 800.5 160 c 128,-1,43
 866 158 866 158 908 157 c 128,-1,44
 950 156 950 156 967 156 c 0,45,46
 1024 156 1024 156 1045.5 134.5 c 128,-1,47
 1067 113 1067 113 1069 78 c 0,0,1
EndSplineSet
EndChar

StartChar: m
Encoding: 109 109 80
Width: 1114
GlyphClass: 2
Flags: W
LayerCount: 2
Fore
SplineSet
250 61 m 0,0,1
 250 28 250 28 241.5 5 c 128,-1,2
 233 -18 233 -18 218 -29.5 c 128,-1,3
 203 -41 203 -41 186.5 -44 c 128,-1,4
 170 -47 170 -47 152 -47 c 0,5,6
 111 -45 111 -45 87 -22.5 c 128,-1,7
 63 0 63 0 63 61 c 0,8,9
 63 79 63 79 61 115.5 c 128,-1,10
 59 152 59 152 56 207 c 128,-1,11
 53 262 53 262 53 301 c 0,12,13
 43 557 43 557 53 942 c 0,14,15
 53 1012 53 1012 88 1044.5 c 128,-1,16
 123 1077 123 1077 168 1075 c 0,17,18
 209 1075 209 1075 232.5 1044.5 c 128,-1,19
 256 1014 256 1014 248 944 c 0,20,21
 246 928 246 928 239.5 893 c 128,-1,22
 233 858 233 858 231 842 c 1,23,24
 329 1047 329 1047 504 1044 c 0,25,26
 545 1044 545 1044 576.5 989 c 128,-1,27
 608 934 608 934 629 840 c 1,28,29
 742 1047 742 1047 940 1044 c 0,30,31
 989 1044 989 1044 1016.5 985 c 128,-1,32
 1044 926 1044 926 1052.5 826.5 c 128,-1,33
 1061 727 1061 727 1063 601 c 128,-1,34
 1065 475 1065 475 1061 344 c 128,-1,35
 1057 213 1057 213 1063 86 c 0,36,37
 1063 45 1063 45 1058 17.5 c 128,-1,38
 1053 -10 1053 -10 1039.5 -23.5 c 128,-1,39
 1026 -37 1026 -37 1012.5 -41 c 128,-1,40
 999 -45 999 -45 981 -45 c 0,41,42
 961 -45 961 -45 944.5 -42 c 128,-1,43
 928 -39 928 -39 910.5 -25.5 c 128,-1,44
 893 -12 893 -12 882.5 15.5 c 128,-1,45
 872 43 872 43 870 86 c 0,46,47
 866 156 866 156 867 250 c 128,-1,48
 868 344 868 344 870 450.5 c 128,-1,49
 872 557 872 557 872 646 c 128,-1,50
 872 735 872 735 864 793.5 c 128,-1,51
 856 852 856 852 840 852 c 0,52,53
 783 854 783 854 734.5 792.5 c 128,-1,54
 686 731 686 731 653 633 c 1,55,56
 659 518 659 518 650 327.5 c 128,-1,57
 641 137 641 137 645 70 c 0,58,59
 647 33 647 33 641 8.5 c 128,-1,60
 635 -16 635 -16 619.5 -27.5 c 128,-1,61
 604 -39 604 -39 588.5 -43 c 128,-1,62
 573 -47 573 -47 555 -45 c 0,63,64
 516 -45 516 -45 492.5 -22.5 c 128,-1,65
 469 0 469 0 463 70 c 0,66,67
 459 136 459 136 469 299.5 c 128,-1,68
 479 463 479 463 479 555 c 0,69,70
 479 573 479 573 479 602 c 0,71,72
 479 756 479 756 473 804 c 128,-1,73
 467 852 467 852 434 852 c 0,74,75
 385 852 385 852 330.5 784.5 c 128,-1,76
 276 717 276 717 240 625 c 1,77,78
 238 559 238 559 242 383 c 0,79,80
 242 311 242 311 246 198.5 c 128,-1,81
 250 86 250 86 250 61 c 0,0,1
EndSplineSet
EndChar

StartChar: n
Encoding: 110 110 81
Width: 1114
GlyphClass: 2
Flags: W
LayerCount: 2
Fore
SplineSet
328 61 m 0,0,1
 328 2 328 2 295 -23.5 c 128,-1,2
 262 -49 262 -49 215 -45 c 0,3,4
 178 -43 178 -43 153.5 -18.5 c 128,-1,5
 129 6 129 6 127 61 c 0,6,7
 127 77 127 77 116.5 160.5 c 128,-1,8
 106 244 106 244 104 301 c 0,9,10
 98 434 98 434 113.5 665.5 c 128,-1,11
 129 897 129 897 131 934 c 0,12,13
 131 997 131 997 167 1027 c 128,-1,14
 203 1057 203 1057 250 1055 c 0,15,16
 293 1055 293 1055 318.5 1027 c 128,-1,17
 344 999 344 999 340 936 c 0,18,19
 336 893 336 893 332 868 c 1,20,21
 381 944 381 944 470 994 c 128,-1,22
 559 1044 559 1044 682 1044 c 0,23,24
 823 1044 823 1044 896 941 c 128,-1,25
 969 838 969 838 975 651 c 0,26,27
 979 526 979 526 1005.5 332.5 c 128,-1,28
 1032 139 1032 139 1036 78 c 0,29,30
 1038 15 1038 15 1013.5 -15 c 128,-1,31
 989 -45 989 -45 948 -45 c 0,32,33
 903 -47 903 -47 869.5 -18.5 c 128,-1,34
 836 10 836 10 831 78 c 0,35,36
 829 96 829 96 810 271 c 128,-1,37
 791 446 791 446 786 559 c 0,38,39
 778 733 778 733 752.5 793.5 c 128,-1,40
 727 854 727 854 653 854 c 0,41,42
 602 854 602 854 555 837.5 c 128,-1,43
 508 821 508 821 471 795.5 c 128,-1,44
 434 770 434 770 401.5 734 c 128,-1,45
 369 698 369 698 348.5 666.5 c 128,-1,46
 328 635 328 635 307 600 c 1,47,48
 301 483 301 483 303 383 c 0,49,50
 303 311 303 311 315.5 201.5 c 128,-1,51
 328 92 328 92 328 61 c 0,0,1
272 502 m 1,52,-1
 272 506 l 1,53,-1
 272 502 l 1,52,-1
EndSplineSet
EndChar

StartChar: o
Encoding: 111 111 82
Width: 1114
GlyphClass: 2
Flags: W
LayerCount: 2
Fore
SplineSet
514 -55 m 0,0,1
 414 -53 414 -53 331 -7 c 128,-1,2
 248 39 248 39 193.5 114.5 c 128,-1,3
 139 190 139 190 109.5 287.5 c 128,-1,4
 80 385 80 385 82 492 c 0,5,6
 82 615 82 615 113.5 720 c 128,-1,7
 145 825 145 825 206.5 903 c 128,-1,8
 268 981 268 981 362.5 1026 c 128,-1,9
 457 1071 457 1071 575 1071 c 0,10,11
 649 1071 649 1071 715.5 1050.5 c 128,-1,12
 782 1030 782 1030 842.5 984 c 128,-1,13
 903 938 903 938 944 868.5 c 128,-1,14
 985 799 985 799 1006.5 693.5 c 128,-1,15
 1028 588 1028 588 1022 459 c 0,16,17
 1014 334 1014 334 982 240.5 c 128,-1,18
 950 147 950 147 890.5 78.5 c 128,-1,19
 831 10 831 10 736 -22.5 c 128,-1,20
 641 -55 641 -55 514 -55 c 0,0,1
559 119 m 0,21,22
 620 117 620 117 669.5 143.5 c 128,-1,23
 719 170 719 170 748.5 221 c 128,-1,24
 778 272 778 272 794.5 341 c 128,-1,25
 811 410 811 410 815 494 c 0,26,27
 823 711 823 711 751.5 811 c 128,-1,28
 680 911 680 911 549 911 c 0,29,30
 428 911 428 911 364.5 801.5 c 128,-1,31
 301 692 301 692 291 496 c 0,32,33
 289 428 289 428 294 375 c 128,-1,34
 299 322 299 322 317.5 273.5 c 128,-1,35
 336 225 336 225 365.5 193.5 c 128,-1,36
 395 162 395 162 443 142.5 c 128,-1,37
 491 123 491 123 559 119 c 0,21,22
EndSplineSet
EndChar

StartChar: p
Encoding: 112 112 83
Width: 1114
GlyphClass: 2
Flags: W
LayerCount: 2
Fore
SplineSet
330 -504 m 0,0,1
 330 -555 330 -555 303 -581.5 c 128,-1,2
 276 -608 276 -608 238 -608 c 0,3,4
 140 -604 140 -604 133 -502 c 0,5,6
 125 -316 125 -316 120 135 c 128,-1,7
 115 586 115 586 117 846 c 0,8,9
 117 1020 117 1020 135 1061 c 0,10,11
 151 1094 151 1094 184 1110 c 128,-1,12
 217 1126 217 1126 250 1122 c 0,13,14
 283 1118 283 1118 306.5 1091.5 c 128,-1,15
 330 1065 330 1065 322 1036 c 0,16,17
 314 1001 314 1001 309 942 c 1,18,19
 454 1042 454 1042 602 1042 c 0,20,21
 682 1042 682 1042 743.5 1027 c 128,-1,22
 805 1012 805 1012 857 971 c 128,-1,23
 909 930 909 930 945 862.5 c 128,-1,24
 981 795 981 795 1001.5 691.5 c 128,-1,25
 1022 588 1022 588 1024 446 c 0,26,27
 1024 378 1024 378 1007.5 308 c 128,-1,28
 991 238 991 238 955.5 172 c 128,-1,29
 920 106 920 106 870.5 54 c 128,-1,30
 821 2 821 2 751.5 -29.5 c 128,-1,31
 682 -61 682 -61 602 -63 c 0,32,33
 407 -65 407 -65 322 -39 c 1,34,35
 322 -137 322 -137 326 -299 c 128,-1,36
 330 -461 330 -461 330 -504 c 0,0,1
307 725 m 2,37,38
 307 688 307 688 309 576.5 c 128,-1,39
 311 465 311 465 314 345 c 128,-1,40
 317 225 317 225 317 121 c 1,41,42
 358 107 358 107 431 104.5 c 128,-1,43
 504 102 504 102 578 106 c 0,44,45
 641 108 641 108 689 146 c 128,-1,46
 737 184 737 184 764 243.5 c 128,-1,47
 791 303 791 303 802 370.5 c 128,-1,48
 813 438 813 438 811 512 c 0,49,50
 807 598 807 598 793.5 662.5 c 128,-1,51
 780 727 780 727 760.5 766 c 128,-1,52
 741 805 741 805 713.5 829.5 c 128,-1,53
 686 854 686 854 658.5 862 c 128,-1,54
 631 870 631 870 594 870 c 0,55,56
 524 870 524 870 445.5 835.5 c 128,-1,57
 367 801 367 801 307 750 c 1,58,-1
 307 725 l 2,37,38
EndSplineSet
EndChar

StartChar: q
Encoding: 113 113 84
Width: 1114
GlyphClass: 2
Flags: W
LayerCount: 2
Fore
SplineSet
965 -492 m 0,0,1
 959 -547 959 -547 926 -576.5 c 128,-1,2
 893 -606 893 -606 852 -606 c 0,3,4
 813 -606 813 -606 786.5 -576.5 c 128,-1,5
 760 -547 760 -547 766 -492 c 0,6,7
 778 -338 778 -338 786 -27 c 1,8,9
 692 -68 692 -68 524 -63 c 0,10,11
 444 -61 444 -61 374.5 -30.5 c 128,-1,12
 305 0 305 0 256 49 c 128,-1,13
 207 98 207 98 171 161.5 c 128,-1,14
 135 225 135 225 118.5 292.5 c 128,-1,15
 102 360 102 360 102 426 c 0,16,17
 104 565 104 565 137 675.5 c 128,-1,18
 170 786 170 786 223 858 c 128,-1,19
 276 930 276 930 351 977 c 128,-1,20
 426 1024 426 1024 507 1044.5 c 128,-1,21
 588 1065 588 1065 680 1065 c 0,22,23
 789 1065 789 1065 878 1030 c 128,-1,24
 967 995 967 995 1012 942 c 0,25,26
 1032 917 1032 917 1040.5 891.5 c 128,-1,27
 1049 866 1049 866 1046.5 847.5 c 128,-1,28
 1044 829 1044 829 1034 817 c 0,29,30
 1018 799 1018 799 991 788 c 1,31,32
 991 763 991 763 991 543.5 c 128,-1,33
 991 324 991 324 989 235.5 c 128,-1,34
 987 147 987 147 985 -24 c 128,-1,35
 983 -195 983 -195 978 -304.5 c 128,-1,36
 973 -414 973 -414 965 -492 c 0,0,1
549 106 m 0,37,38
 701 100 701 100 793 152 c 1,39,40
 797 279 797 279 809 848 c 1,41,42
 772 868 772 868 737 874.5 c 128,-1,43
 702 881 702 881 633 881 c 0,44,45
 596 881 596 881 558 869.5 c 128,-1,46
 520 858 520 858 477 829.5 c 128,-1,47
 434 801 434 801 400.5 759 c 128,-1,48
 367 717 367 717 343 647.5 c 128,-1,49
 319 578 319 578 315 492 c 0,50,51
 313 422 313 422 324.5 357.5 c 128,-1,52
 336 293 336 293 361.5 236.5 c 128,-1,53
 387 180 387 180 436.5 144 c 128,-1,54
 486 108 486 108 549 106 c 0,37,38
EndSplineSet
EndChar

StartChar: r
Encoding: 114 114 85
Width: 1114
GlyphClass: 2
Flags: W
LayerCount: 2
Fore
SplineSet
369 45 m 0,0,1
 371 -53 371 -53 264 -47 c 0,2,3
 223 -45 223 -45 198.5 -25.5 c 128,-1,4
 174 -6 174 -6 170 45 c 0,5,6
 170 51 170 51 158.5 146.5 c 128,-1,7
 147 242 147 242 145 301 c 0,8,9
 141 432 141 432 156.5 654.5 c 128,-1,10
 172 877 172 877 172 936 c 0,11,12
 174 999 174 999 208 1027 c 128,-1,13
 242 1055 242 1055 289 1055 c 0,14,15
 332 1055 332 1055 358.5 1027 c 128,-1,16
 385 999 385 999 381 938 c 2,17,-1
 369 813 l 1,18,19
 392 852 392 852 439.5 891 c 128,-1,20
 487 930 487 930 557 964.5 c 128,-1,21
 627 999 627 999 724 1018.5 c 128,-1,22
 821 1038 821 1038 928 1036 c 1,23,24
 951 1032 951 1032 967 992 c 128,-1,25
 983 952 983 952 991 902 c 128,-1,26
 999 852 999 852 1000 800 c 128,-1,27
 1001 748 1001 748 991 717 c 0,28,29
 985 680 985 680 962.5 659.5 c 128,-1,30
 940 639 940 639 907 631 c 0,31,32
 870 623 870 623 839.5 647.5 c 128,-1,33
 809 672 809 672 805 709 c 0,34,35
 801 729 801 729 800 764 c 128,-1,36
 799 799 799 799 793.5 821.5 c 128,-1,37
 788 844 788 844 772 860 c 1,38,39
 704 860 704 860 639.5 834.5 c 128,-1,40
 575 809 575 809 527 771 c 128,-1,41
 479 733 479 733 439 688 c 128,-1,42
 399 643 399 643 376.5 607 c 128,-1,43
 354 571 354 571 346 547 c 1,44,45
 342 441 342 441 344 383 c 0,46,47
 344 307 344 307 356.5 182 c 128,-1,48
 369 57 369 57 369 45 c 0,0,1
EndSplineSet
EndChar

StartChar: s
Encoding: 115 115 86
Width: 1114
GlyphClass: 2
Flags: W
LayerCount: 2
Fore
SplineSet
115 135 m 0,0,1
 86 250 86 250 158 287 c 0,2,3
 187 297 187 297 217.5 298 c 128,-1,4
 248 299 248 299 275.5 277.5 c 128,-1,5
 303 256 303 256 319 219 c 0,6,7
 331 190 331 190 338.5 177 c 128,-1,8
 346 164 346 164 359.5 147.5 c 128,-1,9
 373 131 373 131 388 124 c 128,-1,10
 403 117 403 117 428 111.5 c 128,-1,11
 453 106 453 106 485 106 c 0,12,13
 542 106 542 106 621 135 c 128,-1,14
 700 164 700 164 763.5 212 c 128,-1,15
 827 260 827 260 834 311 c 0,16,17
 836 340 836 340 809 361.5 c 128,-1,18
 782 383 782 383 731 398.5 c 128,-1,19
 680 414 680 414 624.5 427 c 128,-1,20
 569 440 569 440 493.5 458.5 c 128,-1,21
 418 477 418 477 360 496 c 0,22,23
 241 535 241 535 200.5 580 c 128,-1,24
 160 625 160 625 160 713 c 0,25,26
 160 877 160 877 343 970 c 128,-1,27
 526 1063 526 1063 885 1063 c 0,28,29
 910 1063 910 1063 930 1004.5 c 128,-1,30
 950 946 950 946 959.5 894 c 128,-1,31
 969 842 969 842 971 815 c 0,32,33
 971 790 971 790 971 766.5 c 128,-1,34
 971 743 971 743 956.5 722.5 c 128,-1,35
 942 702 942 702 915 694 c 0,36,37
 874 682 874 682 840.5 701.5 c 128,-1,38
 807 721 807 721 795 750 c 0,39,40
 766 816 766 816 750 883 c 1,41,42
 691 883 691 883 624 872.5 c 128,-1,43
 557 862 557 862 496.5 841.5 c 128,-1,44
 436 821 436 821 398 787.5 c 128,-1,45
 360 754 360 754 367 713 c 0,46,47
 373 666 373 666 582 623 c 0,48,49
 666 607 666 607 730.5 588 c 128,-1,50
 795 569 795 569 858.5 542.5 c 128,-1,51
 922 516 922 516 961.5 484.5 c 128,-1,52
 1001 453 1001 453 1021.5 407.5 c 128,-1,53
 1042 362 1042 362 1036 309 c 0,54,55
 1022 192 1022 192 940 104 c 128,-1,56
 858 16 858 16 733 -28 c 128,-1,57
 608 -72 608 -72 461 -72 c 0,58,59
 381 -72 381 -72 311.5 -51.5 c 128,-1,60
 242 -31 242 -31 187.5 17 c 128,-1,61
 133 65 133 65 115 135 c 0,0,1
EndSplineSet
EndChar

StartChar: t
Encoding: 116 116 87
Width: 1114
GlyphClass: 2
Flags: W
LayerCount: 2
Fore
SplineSet
905 -18 m 0,0,1
 792 -61 792 -61 631 -57 c 0,2,3
 553 -55 553 -55 486.5 -29.5 c 128,-1,4
 420 -4 420 -4 367.5 40 c 128,-1,5
 315 84 315 84 284.5 153.5 c 128,-1,6
 254 223 254 223 252 311 c 0,7,8
 250 344 250 344 251 412.5 c 128,-1,9
 252 481 252 481 252 504.5 c 128,-1,10
 252 528 252 528 255 590.5 c 128,-1,11
 258 653 258 653 259 672.5 c 128,-1,12
 260 692 260 692 265 751.5 c 128,-1,13
 270 811 270 811 272 827 c 1,14,-1
 170 827 l 2,15,16
 80 827 80 827 86 918 c 0,17,18
 86 1006 86 1006 172 1006 c 0,19,20
 238 1006 238 1006 281 1004 c 1,21,22
 287 1149 287 1149 272 1313 c 0,23,24
 268 1346 268 1346 288.5 1375.5 c 128,-1,25
 309 1405 309 1405 344 1405 c 0,26,27
 381 1405 381 1405 424 1378.5 c 128,-1,28
 467 1352 467 1352 471 1323 c 0,29,30
 479 1247 479 1247 471 999 c 1,31,32
 537 997 537 997 632 994 c 128,-1,33
 727 991 727 991 787.5 989 c 128,-1,34
 848 987 848 987 872 987 c 0,35,36
 960 987 960 987 961 897 c 0,37,38
 959 862 959 862 939.5 841.5 c 128,-1,39
 920 821 920 821 871.5 821 c 128,-1,40
 823 821 823 821 465 825 c 1,41,42
 465 788 465 788 460 701 c 128,-1,43
 455 614 455 614 454 583.5 c 128,-1,44
 453 553 453 553 449.5 478 c 128,-1,45
 446 403 446 403 447.5 390 c 128,-1,46
 449 377 449 377 449 326 c 0,47,48
 453 236 453 236 509 179.5 c 128,-1,49
 565 123 565 123 662 119 c 0,50,51
 789 115 789 115 905 164 c 0,52,53
 936 176 936 176 960.5 159.5 c 128,-1,54
 985 143 985 143 995 102 c 0,55,56
 1001 63 1001 63 974.5 30.5 c 128,-1,57
 948 -2 948 -2 905 -18 c 0,0,1
EndSplineSet
EndChar

StartChar: u
Encoding: 117 117 88
Width: 1114
GlyphClass: 2
Flags: W
LayerCount: 2
Fore
SplineSet
930 -47 m 0,0,1
 881 -51 881 -51 848 -25.5 c 128,-1,2
 815 0 815 0 815 63 c 2,3,-1
 815 121 l 1,4,5
 764 78 764 78 701.5 43 c 128,-1,6
 639 8 639 8 554 -16.5 c 128,-1,7
 469 -41 469 -41 389 -33 c 0,8,9
 317 -27 317 -27 256 20.5 c 128,-1,10
 195 68 195 68 161 133.5 c 128,-1,11
 127 199 127 199 123 262 c 0,12,13
 113 403 113 403 113 592 c 0,14,15
 113 658 113 658 118 774.5 c 128,-1,16
 123 891 123 891 121 934 c 0,17,18
 121 983 121 983 147.5 1007.5 c 128,-1,19
 174 1032 174 1032 215 1032 c 0,20,21
 258 1032 258 1032 290 1006.5 c 128,-1,22
 322 981 322 981 322 934 c 0,23,24
 322 916 322 916 316.5 799 c 128,-1,25
 311 682 311 682 313 602 c 0,26,27
 313 391 313 391 330 281 c 0,28,29
 334 240 334 240 345 214 c 128,-1,30
 356 188 356 188 374.5 176 c 128,-1,31
 393 164 393 164 413.5 160 c 128,-1,32
 434 156 434 156 467 156 c 0,33,34
 555 156 555 156 647 197 c 128,-1,35
 739 238 739 238 817 297 c 1,36,37
 819 430 819 430 817 600 c 0,38,39
 817 827 817 827 809 936 c 0,40,41
 809 979 809 979 834.5 1004.5 c 128,-1,42
 860 1030 860 1030 897 1032 c 0,43,44
 940 1032 940 1032 973 1006.5 c 128,-1,45
 1006 981 1006 981 1006 936 c 1,46,47
 1010 905 1010 905 1013 802.5 c 128,-1,48
 1016 700 1016 700 1018 682 c 0,49,50
 1024 502 1024 502 1024 66 c 0,51,52
 1024 7 1024 7 997.5 -19 c 128,-1,53
 971 -45 971 -45 930 -47 c 0,0,1
EndSplineSet
EndChar

StartChar: v
Encoding: 118 118 89
Width: 1114
GlyphClass: 2
Flags: W
LayerCount: 2
Fore
SplineSet
657 -14 m 0,0,1
 645 -41 645 -41 608 -50 c 128,-1,2
 571 -59 571 -59 535.5 -49 c 128,-1,3
 500 -39 500 -39 483 -12 c 0,4,5
 233 451 233 451 86 846 c 0,6,7
 74 881 74 881 73 909.5 c 128,-1,8
 72 938 72 938 81 958.5 c 128,-1,9
 90 979 90 979 104.5 991.5 c 128,-1,10
 119 1004 119 1004 135 1012 c 0,11,12
 153 1022 153 1022 175 1023 c 128,-1,13
 197 1024 197 1024 218.5 1014 c 128,-1,14
 240 1004 240 1004 260.5 979 c 128,-1,15
 281 954 281 954 291 915 c 0,16,17
 305 866 305 866 323.5 815 c 128,-1,18
 342 764 342 764 356.5 723 c 128,-1,19
 371 682 371 682 392.5 627.5 c 128,-1,20
 414 573 414 573 426 542.5 c 128,-1,21
 438 512 438 512 462.5 454.5 c 128,-1,22
 487 397 487 397 496.5 376.5 c 128,-1,23
 506 356 506 356 532.5 296 c 128,-1,24
 559 236 559 236 565 223 c 1,25,26
 776 629 776 629 870 932 c 0,27,28
 890 1000 890 1000 931.5 1021 c 128,-1,29
 973 1042 973 1042 1012 1024 c 0,30,31
 1035 1014 1035 1014 1048 994.5 c 128,-1,32
 1061 975 1061 975 1065 939 c 128,-1,33
 1069 903 1069 903 1055 856 c 0,34,35
 1028 774 1028 774 985 680 c 128,-1,36
 942 586 942 586 840.5 373 c 128,-1,37
 739 160 739 160 657 -14 c 0,0,1
EndSplineSet
EndChar

StartChar: w
Encoding: 119 119 90
Width: 1114
GlyphClass: 2
Flags: W
LayerCount: 2
Fore
SplineSet
401 -6 m 0,0,1
 391 -39 391 -39 363.5 -56.5 c 128,-1,2
 336 -74 336 -74 309 -74 c 0,3,4
 276 -74 276 -74 247.5 -55.5 c 128,-1,5
 219 -37 219 -37 207 6 c 0,6,7
 49 522 49 522 18 905 c 0,8,9
 12 956 12 956 33.5 983 c 128,-1,10
 55 1010 55 1010 96 1014 c 0,11,12
 139 1020 139 1020 171 999.5 c 128,-1,13
 203 979 203 979 211 926 c 0,14,15
 236 668 236 668 322 164 c 1,16,17
 334 234 334 234 367.5 418 c 128,-1,18
 401 602 401 602 429 739.5 c 128,-1,19
 457 877 457 877 475 942 c 0,20,21
 498 1026 498 1026 584 1022 c 0,22,23
 617 1020 617 1020 641.5 1002.5 c 128,-1,24
 666 985 666 985 682 940 c 0,25,26
 684 932 684 932 706.5 790.5 c 128,-1,27
 729 649 729 649 763 461.5 c 128,-1,28
 797 274 797 274 825 160 c 1,29,30
 866 357 866 357 932 926 c 0,31,32
 938 981 938 981 968.5 1000.5 c 128,-1,33
 999 1020 999 1020 1038 1012 c 0,34,35
 1118 996 1118 996 1106 887 c 0,36,37
 1081 680 1081 680 1032 416 c 128,-1,38
 983 152 983 152 938 20 c 0,39,40
 911 -60 911 -60 809 -55 c 0,41,42
 768 -55 768 -55 738.5 -40 c 128,-1,43
 709 -25 709 -25 692 18 c 0,44,45
 659 104 659 104 635.5 226 c 128,-1,46
 612 348 612 348 592.5 517 c 128,-1,47
 573 686 573 686 567 723 c 1,48,49
 549 647 549 647 523.5 513 c 128,-1,50
 498 379 498 379 469 245 c 128,-1,51
 440 111 440 111 401 -6 c 0,0,1
EndSplineSet
EndChar

StartChar: x
Encoding: 120 120 91
Width: 1114
GlyphClass: 2
Flags: W
LayerCount: 2
Fore
SplineSet
231 0 m 0,0,1
 206 -33 206 -33 180 -43 c 128,-1,2
 154 -53 154 -53 132.5 -46 c 128,-1,3
 111 -39 111 -39 90 -20 c 0,4,5
 31 35 31 35 86 129 c 0,6,7
 111 168 111 168 173.5 232.5 c 128,-1,8
 236 297 236 297 311.5 377 c 128,-1,9
 387 457 387 457 436 524 c 1,10,11
 373 604 373 604 268.5 709.5 c 128,-1,12
 164 815 164 815 135 852 c 0,13,14
 110 887 110 887 103 916.5 c 128,-1,15
 96 946 96 946 105.5 967.5 c 128,-1,16
 115 989 115 989 133 1006 c 0,17,18
 153 1022 153 1022 178 1027 c 128,-1,19
 203 1032 203 1032 235.5 1021 c 128,-1,20
 268 1010 268 1010 299 977 c 0,21,22
 344 930 344 930 427 830.5 c 128,-1,23
 510 731 510 731 573 645 c 1,24,25
 600 680 600 680 648 745.5 c 128,-1,26
 696 811 696 811 722 846 c 128,-1,27
 748 881 748 881 779.5 921 c 128,-1,28
 811 961 811 961 836 983 c 0,29,30
 877 1026 877 1026 914.5 1034 c 128,-1,31
 952 1042 952 1042 979 1020 c 0,32,33
 997 1006 997 1006 1008.5 984.5 c 128,-1,34
 1020 963 1020 963 1017 934 c 128,-1,35
 1014 905 1014 905 991 881 c 2,36,-1
 688 506 l 1,37,-1
 682 500 l 1,38,39
 735 428 735 428 798.5 359.5 c 128,-1,40
 862 291 862 291 918.5 233.5 c 128,-1,41
 975 176 975 176 1006 133 c 0,42,43
 1033 96 1033 96 1042 69.5 c 128,-1,44
 1051 43 1051 43 1047.5 24.5 c 128,-1,45
 1044 6 1044 6 1030 -10 c 0,46,47
 1012 -30 1012 -30 988.5 -39.5 c 128,-1,48
 965 -49 965 -49 931 -38 c 128,-1,49
 897 -27 897 -27 860 10 c 0,50,51
 678 207 678 207 549 375 c 1,52,53
 490 299 490 299 370.5 164 c 128,-1,54
 251 29 251 29 231 0 c 0,0,1
EndSplineSet
EndChar

StartChar: y
Encoding: 121 121 92
Width: 1114
GlyphClass: 2
Flags: W
LayerCount: 2
Fore
SplineSet
360 -594 m 0,0,1
 342 -633 342 -633 302 -646 c 128,-1,2
 262 -659 262 -659 221 -631 c 0,3,4
 201 -617 201 -617 189.5 -596 c 128,-1,5
 178 -575 178 -575 176 -548.5 c 128,-1,6
 174 -522 174 -522 190 -494 c 2,7,-1
 457 27 l 1,8,9
 205 500 205 500 70 858 c 0,10,11
 52 905 52 905 56.5 940 c 128,-1,12
 61 975 61 975 75.5 995.5 c 128,-1,13
 90 1016 90 1016 115 1024 c 0,14,15
 133 1034 133 1034 153.5 1036 c 128,-1,16
 174 1038 174 1038 195.5 1030 c 128,-1,17
 217 1022 217 1022 237.5 998.5 c 128,-1,18
 258 975 258 975 268 936 c 0,19,20
 303 825 303 825 360.5 686 c 128,-1,21
 418 547 418 547 457 463 c 128,-1,22
 496 379 496 379 563 240 c 1,23,24
 776 672 776 672 885 948 c 0,25,26
 897 983 897 983 916.5 1006.5 c 128,-1,27
 936 1030 936 1030 956.5 1038.5 c 128,-1,28
 977 1047 977 1047 996.5 1047 c 128,-1,29
 1016 1047 1016 1047 1034 1038 c 0,30,31
 1050 1030 1050 1030 1063.5 1017 c 128,-1,32
 1077 1004 1077 1004 1086.5 983.5 c 128,-1,33
 1096 963 1096 963 1095 933 c 128,-1,34
 1094 903 1094 903 1079 870 c 0,35,36
 1030 753 1030 753 934 551.5 c 128,-1,37
 838 350 838 350 747.5 172 c 128,-1,38
 657 -6 657 -6 461 -399 c 0,39,40
 395 -526 395 -526 360 -594 c 0,0,1
EndSplineSet
EndChar

StartChar: z
Encoding: 122 122 93
Width: 1114
GlyphClass: 2
Flags: W
LayerCount: 2
Fore
SplineSet
1014 78 m 0,0,1
 1016 37 1016 37 992.5 9.5 c 128,-1,2
 969 -18 969 -18 907 -18 c 0,3,4
 891 -18 891 -18 743.5 -13 c 128,-1,5
 596 -8 596 -8 470 -7 c 128,-1,6
 344 -6 344 -6 186 -10 c 0,7,8
 149 -10 149 -10 122.5 30 c 128,-1,9
 96 70 96 70 96 106 c 0,10,11
 96 120 96 120 101 136 c 128,-1,12
 106 152 106 152 133 185.5 c 128,-1,13
 160 219 160 219 209 268 c 0,14,15
 242 301 242 301 367 422 c 128,-1,16
 492 543 492 543 608.5 658.5 c 128,-1,17
 725 774 725 774 776 836 c 1,18,19
 362 820 362 820 213 844 c 0,20,21
 125 858 125 858 125 932 c 0,22,23
 123 975 123 975 144.5 1003.5 c 128,-1,24
 166 1032 166 1032 215 1026 c 0,25,26
 575 989 575 989 911 1010 c 0,27,28
 946 1012 946 1012 971.5 979 c 128,-1,29
 997 946 997 946 999 905 c 0,30,31
 1001 868 1001 868 932 760 c 0,32,33
 873 672 873 672 794 587 c 128,-1,34
 715 502 715 502 649.5 444.5 c 128,-1,35
 584 387 584 387 492.5 305 c 128,-1,36
 401 223 401 223 340 160 c 1,37,38
 737 185 737 185 911 160 c 0,39,40
 968 150 968 150 991 130.5 c 128,-1,41
 1014 111 1014 111 1014 78 c 0,0,1
EndSplineSet
EndChar

StartChar: braceleft
Encoding: 123 123 94
Width: 1114
GlyphClass: 2
Flags: W
LayerCount: 2
Fore
SplineSet
1014 -113 m 0,0,1
 1014 -148 1014 -148 991.5 -176.5 c 128,-1,2
 969 -205 969 -205 918 -205 c 0,3,4
 820 -205 820 -205 731.5 -185.5 c 128,-1,5
 643 -166 643 -166 572.5 -130 c 128,-1,6
 502 -94 502 -94 460 -35.5 c 128,-1,7
 418 23 418 23 418 96 c 0,8,9
 418 153 418 153 430 206.5 c 128,-1,10
 442 260 442 260 460.5 302 c 128,-1,11
 479 344 479 344 496.5 385 c 128,-1,12
 514 426 514 426 526.5 471 c 128,-1,13
 539 516 539 516 539 561 c 0,14,15
 539 567 539 567 525.5 579.5 c 128,-1,16
 512 592 512 592 483.5 605 c 128,-1,17
 455 618 455 618 418 628.5 c 128,-1,18
 381 639 381 639 326.5 647 c 128,-1,19
 272 655 272 655 215 655 c 0,20,21
 172 655 172 655 142.5 689 c 128,-1,22
 113 723 113 723 113 766 c 256,23,24
 113 809 113 809 134.5 834.5 c 128,-1,25
 156 860 156 860 199 860 c 0,26,27
 254 860 254 860 297 863 c 128,-1,28
 340 866 340 866 384 873.5 c 128,-1,29
 428 881 428 881 457.5 892 c 128,-1,30
 487 903 487 903 506.5 923.5 c 128,-1,31
 526 944 526 944 526 973 c 0,32,33
 526 989 526 989 509 1020 c 128,-1,34
 492 1051 492 1051 472.5 1085.5 c 128,-1,35
 453 1120 453 1120 435.5 1183.5 c 128,-1,36
 418 1247 418 1247 418 1321 c 0,37,38
 418 1514 418 1514 551 1628.5 c 128,-1,39
 684 1743 684 1743 918 1743 c 0,40,41
 959 1743 959 1743 988.5 1720.5 c 128,-1,42
 1018 1698 1018 1698 1018 1667 c 0,43,44
 1018 1632 1018 1632 980 1600.5 c 128,-1,45
 942 1569 942 1569 909 1569 c 0,46,47
 770 1569 770 1569 690 1507.5 c 128,-1,48
 610 1446 610 1446 610 1343 c 0,49,50
 610 1294 610 1294 628.5 1232.5 c 128,-1,51
 647 1171 647 1171 669.5 1126 c 128,-1,52
 692 1081 692 1081 710.5 1039 c 128,-1,53
 729 997 729 997 729 979 c 0,54,55
 729 938 729 938 705.5 902 c 128,-1,56
 682 866 682 866 640 840.5 c 128,-1,57
 598 815 598 815 553 796.5 c 128,-1,58
 508 778 508 778 459 768 c 1,59,60
 576 733 576 733 652.5 678 c 128,-1,61
 729 623 729 623 729 576.5 c 128,-1,62
 729 530 729 530 718 483 c 128,-1,63
 707 436 707 436 689.5 396 c 128,-1,64
 672 356 672 356 654.5 314 c 128,-1,65
 637 272 637 272 624.5 220 c 128,-1,66
 612 168 612 168 612 113 c 0,67,68
 612 78 612 78 641 49 c 128,-1,69
 670 20 670 20 714 4 c 128,-1,70
 758 -12 758 -12 809 -21.5 c 128,-1,71
 860 -31 860 -31 909 -31 c 0,72,73
 952 -31 952 -31 983 -53.5 c 128,-1,74
 1014 -76 1014 -76 1014 -113 c 0,0,1
EndSplineSet
EndChar

StartChar: bar
Encoding: 124 124 95
Width: 1114
GlyphClass: 2
Flags: W
LayerCount: 2
Fore
SplineSet
676 1610 m 0,0,1
 676 1594 676 1594 665.5 746 c 128,-1,2
 655 -102 655 -102 662 -289 c 1,3,4
 658 -334 658 -334 627 -359.5 c 128,-1,5
 596 -385 596 -385 555 -383 c 0,6,7
 516 -383 516 -383 496.5 -356.5 c 128,-1,8
 477 -330 477 -330 481 -279 c 0,9,10
 487 -197 487 -197 491.5 202.5 c 128,-1,11
 496 602 496 602 497 1056.5 c 128,-1,12
 498 1511 498 1511 500 1604 c 0,13,14
 502 1715 502 1715 584 1714 c 0,15,16
 676 1719 676 1719 676 1610 c 0,0,1
EndSplineSet
EndChar

StartChar: braceright
Encoding: 125 125 96
Width: 1114
GlyphClass: 2
Flags: W
LayerCount: 2
Fore
SplineSet
711 217 m 0,0,1
 711 24 711 24 577.5 -90.5 c 128,-1,2
 444 -205 444 -205 211 -205 c 0,3,4
 170 -205 170 -205 141.5 -182.5 c 128,-1,5
 113 -160 113 -160 113 -129 c 0,6,7
 113 -94 113 -94 149.5 -62.5 c 128,-1,8
 186 -31 186 -31 219 -31 c 0,9,10
 360 -31 360 -31 438 30.5 c 128,-1,11
 516 92 516 92 516 195 c 0,12,13
 516 244 516 244 497.5 308.5 c 128,-1,14
 479 373 479 373 457.5 422 c 128,-1,15
 436 471 436 471 417.5 517 c 128,-1,16
 399 563 399 563 399 582 c 0,17,18
 399 623 399 623 424 657.5 c 128,-1,19
 449 692 449 692 488.5 718.5 c 128,-1,20
 528 745 528 745 574.5 763.5 c 128,-1,21
 621 782 621 782 670 793 c 1,22,23
 553 828 553 828 476 883 c 128,-1,24
 399 938 399 938 399 984 c 128,-1,25
 399 1030 399 1030 411.5 1074 c 128,-1,26
 424 1118 424 1118 440.5 1156 c 128,-1,27
 457 1194 457 1194 474.5 1233 c 128,-1,28
 492 1272 492 1272 503 1321 c 128,-1,29
 514 1370 514 1370 514 1425 c 0,30,31
 514 1460 514 1460 486.5 1489 c 128,-1,32
 459 1518 459 1518 415 1534 c 128,-1,33
 371 1550 371 1550 319.5 1559.5 c 128,-1,34
 268 1569 268 1569 219 1569 c 0,35,36
 176 1569 176 1569 145.5 1591.5 c 128,-1,37
 115 1614 115 1614 115 1651 c 0,38,39
 115 1686 115 1686 137.5 1714.5 c 128,-1,40
 160 1743 160 1743 211 1743 c 0,41,42
 309 1743 309 1743 397 1723.5 c 128,-1,43
 485 1704 485 1704 556 1668 c 128,-1,44
 627 1632 627 1632 669 1574 c 128,-1,45
 711 1516 711 1516 711 1442 c 0,46,47
 711 1385 711 1385 697.5 1333.5 c 128,-1,48
 684 1282 684 1282 666.5 1243 c 128,-1,49
 649 1204 649 1204 631.5 1166 c 128,-1,50
 614 1128 614 1128 602 1085 c 128,-1,51
 590 1042 590 1042 590 999 c 0,52,53
 590 991 590 991 603 980 c 128,-1,54
 616 969 616 969 645 955.5 c 128,-1,55
 674 942 674 942 711 931 c 128,-1,56
 748 920 748 920 802 912.5 c 128,-1,57
 856 905 856 905 913 905 c 0,58,59
 954 905 954 905 986 871.5 c 128,-1,60
 1018 838 1018 838 1018 795 c 256,61,62
 1018 752 1018 752 995.5 725 c 128,-1,63
 973 698 973 698 930 698 c 0,64,65
 875 698 875 698 831.5 696 c 128,-1,66
 788 694 788 694 743 687 c 128,-1,67
 698 680 698 680 668.5 667.5 c 128,-1,68
 639 655 639 655 620.5 634.5 c 128,-1,69
 602 614 602 614 602 588 c 0,70,71
 602 572 602 572 619.5 537 c 128,-1,72
 637 502 637 502 656.5 464 c 128,-1,73
 676 426 676 426 693.5 358.5 c 128,-1,74
 711 291 711 291 711 217 c 0,0,1
EndSplineSet
EndChar

StartChar: asciitilde
Encoding: 126 126 97
Width: 1114
GlyphClass: 2
Flags: W
LayerCount: 2
Fore
SplineSet
1042 1047 m 0,0,1
 1060 1039 1060 1039 1068.5 1019 c 128,-1,2
 1077 999 1077 999 1074 970.5 c 128,-1,3
 1071 942 1071 942 1064 915.5 c 128,-1,4
 1057 889 1057 889 1042 854 c 0,5,6
 915 541 915 541 739 541 c 0,7,8
 696 541 696 541 660.5 554 c 128,-1,9
 625 567 625 567 594 597 c 128,-1,10
 563 627 563 627 540.5 658.5 c 128,-1,11
 518 690 518 690 492 737 c 0,12,13
 486 747 486 747 472.5 771 c 128,-1,14
 459 795 459 795 454 802 c 128,-1,15
 449 809 449 809 438.5 825.5 c 128,-1,16
 428 842 428 842 422 846 c 128,-1,17
 416 850 416 850 404.5 858 c 128,-1,18
 393 866 393 866 383 868 c 128,-1,19
 373 870 373 870 358 870 c 0,20,21
 342 870 342 870 329.5 865 c 128,-1,22
 317 860 317 860 305 845.5 c 128,-1,23
 293 831 293 831 283.5 818 c 128,-1,24
 274 805 274 805 262 774 c 128,-1,25
 250 743 250 743 241.5 720.5 c 128,-1,26
 233 698 233 698 217 651 c 0,27,28
 203 610 203 610 159 578.5 c 128,-1,29
 115 547 115 547 84 555 c 0,30,31
 61 561 61 561 45 594 c 128,-1,32
 29 627 29 627 39 666 c 0,33,34
 90 863 90 863 179 975 c 128,-1,35
 268 1087 268 1087 352 1087 c 0,36,37
 387 1087 387 1087 409.5 1084 c 128,-1,38
 432 1081 432 1081 458.5 1072 c 128,-1,39
 485 1063 485 1063 505.5 1043.5 c 128,-1,40
 526 1024 526 1024 549.5 993.5 c 128,-1,41
 573 963 573 963 598 915 c 0,42,43
 604 903 604 903 616.5 879.5 c 128,-1,44
 629 856 629 856 634 845 c 128,-1,45
 639 834 639 834 650.5 816.5 c 128,-1,46
 662 799 662 799 669 790.5 c 128,-1,47
 676 782 676 782 686 773 c 128,-1,48
 696 764 696 764 707.5 760 c 128,-1,49
 719 756 719 756 731 756 c 0,50,51
 733 756 733 756 741 756 c 0,52,53
 759 756 759 756 767.5 757 c 128,-1,54
 776 758 776 758 790.5 762 c 128,-1,55
 805 766 805 766 813 775 c 128,-1,56
 821 784 821 784 834.5 801.5 c 128,-1,57
 848 819 848 819 861 846.5 c 128,-1,58
 874 874 874 874 893 913 c 0,59,60
 903 938 903 938 917.5 963.5 c 128,-1,61
 932 989 932 989 951.5 1012.5 c 128,-1,62
 971 1036 971 1036 995 1046.5 c 128,-1,63
 1019 1057 1019 1057 1042 1047 c 0,0,1
EndSplineSet
EndChar

StartChar: endash
Encoding: 8211 8211 98
Width: 1114
GlyphClass: 2
Flags: W
LayerCount: 2
Fore
SplineSet
246 688 m 0,0,1
 400 688 400 688 614.5 685 c 128,-1,2
 829 682 829 682 858 682 c 0,3,4
 905 682 905 682 924.5 660.5 c 128,-1,5
 944 639 944 639 946 604 c 0,6,7
 946 514 946 514 858 514 c 0,8,9
 823 514 823 514 583.5 512 c 128,-1,10
 344 510 344 510 248 510 c 0,11,12
 160 510 160 510 160 598 c 1,13,14
 156 688 156 688 246 688 c 0,0,1
EndSplineSet
EndChar

StartChar: emdash
Encoding: 8212 8212 99
Width: 1114
GlyphClass: 2
Flags: W
LayerCount: 2
Fore
SplineSet
135 684 m 0,0,1
 356 682 356 682 490.5 682 c 128,-1,2
 625 682 625 682 789.5 684 c 128,-1,3
 954 686 954 686 989 686 c 0,4,5
 1036 686 1036 686 1055.5 663.5 c 128,-1,6
 1075 641 1075 641 1077 604 c 0,7,8
 1077 514 1077 514 989 514 c 0,9,10
 942 514 942 514 607 512 c 128,-1,11
 272 510 272 510 137 510 c 0,12,13
 49 510 49 510 49 598 c 0,14,15
 45 686 45 686 135 684 c 0,0,1
EndSplineSet
EndChar

StartChar: quoteleft
Encoding: 8216 8216 100
Width: 1114
GlyphClass: 2
Flags: W
LayerCount: 2
Fore
SplineSet
514 1040 m 0,0,1
 479 1103 479 1103 430 1211 c 128,-1,2
 381 1319 381 1319 354 1391 c 0,3,4
 340 1432 340 1432 357.5 1462.5 c 128,-1,5
 375 1493 375 1493 406 1507 c 0,6,7
 431 1517 431 1517 455 1519.5 c 128,-1,8
 479 1522 479 1522 503.5 1509.5 c 128,-1,9
 528 1497 528 1497 539 1470 c 0,10,11
 578 1364 578 1364 715 1128 c 0,12,13
 758 1056 758 1056 647 1004 c 0,14,15
 631 996 631 996 615.5 991.5 c 128,-1,16
 600 987 600 987 581.5 989 c 128,-1,17
 563 991 563 991 544.5 1003 c 128,-1,18
 526 1015 526 1015 514 1040 c 0,0,1
EndSplineSet
EndChar

StartChar: quoteright
Encoding: 8217 8217 101
Width: 1114
GlyphClass: 2
Flags: W
LayerCount: 2
Fore
SplineSet
727 1368 m 0,0,1
 631 1102 631 1102 578 1006 c 0,2,3
 551 959 551 959 511 941.5 c 128,-1,4
 471 924 471 924 440 940 c 0,5,6
 403 958 403 958 378.5 1004.5 c 128,-1,7
 354 1051 354 1051 379 1094 c 0,8,9
 414 1155 414 1155 466 1266.5 c 128,-1,10
 518 1378 518 1378 543 1448 c 0,11,12
 555 1477 555 1477 578.5 1488 c 128,-1,13
 602 1499 602 1499 627.5 1497 c 128,-1,14
 653 1495 653 1495 678 1485 c 0,15,16
 709 1473 709 1473 725 1441 c 128,-1,17
 741 1409 741 1409 727 1368 c 0,0,1
EndSplineSet
EndChar

StartChar: quotesinglbase
Encoding: 8218 8218 102
Width: 1114
GlyphClass: 2
Flags: W
LayerCount: 2
Fore
SplineSet
569 1452 m 0,0,1
 596 1376 596 1376 629 1265.5 c 128,-1,2
 662 1155 662 1155 678 1081 c 0,3,4
 686 1040 686 1040 663.5 1011.5 c 128,-1,5
 641 983 641 983 608 975 c 0,6,7
 583 971 583 971 559 971 c 128,-1,8
 535 971 535 971 512 987.5 c 128,-1,9
 489 1004 489 1004 483 1032 c 0,10,11
 463 1126 463 1126 358 1397 c 0,12,13
 350 1415 350 1415 353 1432.5 c 128,-1,14
 356 1450 356 1450 364.5 1461.5 c 128,-1,15
 373 1473 373 1473 387 1483 c 128,-1,16
 401 1493 401 1493 414.5 1498 c 128,-1,17
 428 1503 428 1503 442 1507 c 0,18,19
 465 1513 465 1513 488.5 1515.5 c 128,-1,20
 512 1518 512 1518 534.5 1501.5 c 128,-1,21
 557 1485 557 1485 569 1452 c 0,0,1
EndSplineSet
EndChar

StartChar: quotedblleft
Encoding: 8220 8220 103
Width: 1114
GlyphClass: 2
Flags: W
LayerCount: 2
Fore
SplineSet
686 1128 m 0,0,1
 651 1191 651 1191 602 1299 c 128,-1,2
 553 1407 553 1407 526 1479 c 0,3,4
 512 1518 512 1518 529.5 1549.5 c 128,-1,5
 547 1581 547 1581 575 1595 c 0,6,7
 600 1605 600 1605 624.5 1607.5 c 128,-1,8
 649 1610 649 1610 673.5 1597.5 c 128,-1,9
 698 1585 698 1585 711 1559 c 0,10,11
 750 1453 750 1453 885 1217 c 0,12,13
 928 1145 928 1145 819 1092 c 0,14,15
 803 1084 803 1084 786.5 1079.5 c 128,-1,16
 770 1075 770 1075 751.5 1077 c 128,-1,17
 733 1079 733 1079 715.5 1092 c 128,-1,18
 698 1105 698 1105 686 1128 c 0,0,1
379 1020 m 0,19,20
 344 1083 344 1083 295 1189.5 c 128,-1,21
 246 1296 246 1296 219 1368 c 0,22,23
 205 1409 205 1409 222.5 1441 c 128,-1,24
 240 1473 240 1473 268 1485 c 0,25,26
 293 1495 293 1495 317.5 1497 c 128,-1,27
 342 1499 342 1499 366.5 1488 c 128,-1,28
 391 1477 391 1477 403 1448 c 0,29,30
 442 1342 442 1342 578 1106 c 0,31,32
 621 1034 621 1034 512 981 c 0,33,34
 496 973 496 973 480.5 970 c 128,-1,35
 465 967 465 967 445.5 969 c 128,-1,36
 426 971 426 971 408.5 983 c 128,-1,37
 391 995 391 995 379 1020 c 0,19,20
EndSplineSet
EndChar

StartChar: quotedblright
Encoding: 8221 8221 104
Width: 1114
GlyphClass: 2
Flags: W
LayerCount: 2
Fore
SplineSet
596 1479 m 0,0,1
 500 1211 500 1211 446 1114 c 0,2,3
 428 1083 428 1083 401.5 1067 c 128,-1,4
 375 1051 375 1051 350.5 1051 c 128,-1,5
 326 1051 326 1051 305 1059 c 0,6,7
 196 1112 196 1112 240 1184 c 0,8,9
 275 1245 275 1245 331 1367 c 128,-1,10
 387 1489 387 1489 412 1559 c 0,11,12
 422 1586 422 1586 446.5 1598 c 128,-1,13
 471 1610 471 1610 496.5 1608 c 128,-1,14
 522 1606 522 1606 547 1595 c 0,15,16
 578 1583 578 1583 594 1550.5 c 128,-1,17
 610 1518 610 1518 596 1479 c 0,0,1
903 1368 m 0,18,19
 807 1102 807 1102 754 1006 c 0,20,21
 727 959 727 959 687 941.5 c 128,-1,22
 647 924 647 924 616 940 c 0,23,24
 579 958 579 958 553.5 1004.5 c 128,-1,25
 528 1051 528 1051 555 1094 c 0,26,27
 592 1155 592 1155 642 1266.5 c 128,-1,28
 692 1378 692 1378 719 1448 c 0,29,30
 729 1477 729 1477 753.5 1488 c 128,-1,31
 778 1499 778 1499 802.5 1497 c 128,-1,32
 827 1495 827 1495 852 1485 c 0,33,34
 883 1473 883 1473 899 1441 c 128,-1,35
 915 1409 915 1409 903 1368 c 0,18,19
EndSplineSet
EndChar

StartChar: bullet
Encoding: 8226 8226 105
Width: 1114
GlyphClass: 2
Flags: W
LayerCount: 2
Fore
SplineSet
565 688 m 0,0,1
 477 680 477 680 418.5 738.5 c 128,-1,2
 360 797 360 797 360 879 c 0,3,4
 360 953 360 953 423.5 1006 c 128,-1,5
 487 1059 487 1059 565 1063 c 0,6,7
 651 1065 651 1065 705.5 1011.5 c 128,-1,8
 760 958 760 958 760 881 c 256,9,10
 760 803 760 803 706.5 750.5 c 128,-1,11
 653 698 653 698 565 688 c 0,0,1
EndSplineSet
EndChar
